<svg width="73" height="73" viewBox="0 0 73 73" fill="none" xmlns="http://www.w3.org/2000/svg">
<g id="AI interview logo">
<path id="Vector" d="M21.7427 55.7788C23.2335 54.7095 24.3464 53.1946 24.9213 51.4523C25.4962 49.7101 25.5033 47.8303 24.9417 46.0837C24.3801 44.3371 23.2786 42.8138 21.796 41.7332C20.3134 40.6526 18.5261 40.0703 16.6914 40.0703C14.8568 40.0703 13.0694 40.6526 11.5868 41.7332C10.1042 42.8138 9.00274 44.3371 8.44111 46.0837C7.87948 47.8303 7.88662 49.7101 8.4615 51.4523C9.03639 53.1946 10.1494 54.7095 11.6402 55.7788C8.42904 56.8444 5.63456 58.8932 3.65254 61.6352C1.67053 64.3771 0.60145 67.6732 0.596739 71.0565C0.595131 71.2195 0.626056 71.3812 0.687704 71.5322C0.749353 71.6831 0.840486 71.8202 0.955772 71.9355C1.07106 72.0508 1.20818 72.1419 1.35911 72.2036C1.51005 72.2652 1.67176 72.2962 1.83479 72.2945H31.548C31.7111 72.2962 31.8728 72.2652 32.0237 72.2036C32.1746 72.1419 32.3118 72.0508 32.427 71.9355C32.5423 71.8202 32.6335 71.6831 32.6951 71.5322C32.7568 71.3812 32.7877 71.2195 32.7861 71.0565C32.7814 67.6732 31.7123 64.3771 29.7303 61.6352C27.7483 58.8932 24.9538 56.8444 21.7427 55.7788ZM10.5012 48.7714C10.5012 47.5471 10.8642 46.3503 11.5444 45.3323C12.2246 44.3143 13.1914 43.5209 14.3225 43.0523C15.4536 42.5838 16.6983 42.4612 17.8991 42.7001C19.0999 42.9389 20.2029 43.5285 21.0686 44.3942C21.9343 45.2599 22.5239 46.363 22.7627 47.5638C23.0016 48.7646 22.879 50.0092 22.4105 51.1403C21.9419 52.2715 21.1485 53.2383 20.1305 53.9185C19.1126 54.5987 17.9157 54.9617 16.6914 54.9617C15.0498 54.9611 13.4757 54.3087 12.3149 53.148C11.1541 51.9872 10.5017 50.413 10.5012 48.7714Z" fill="#1B3139"/>
<path id="Vector_2" d="M61.3608 55.7788C62.8516 54.7095 63.9646 53.1946 64.5395 51.4523C65.1144 49.7101 65.1215 47.8303 64.5599 46.0837C63.9982 44.3371 62.8968 42.8138 61.4142 41.7332C59.9316 40.6526 58.1442 40.0703 56.3096 40.0703C54.4749 40.0703 52.6876 40.6526 51.205 41.7332C49.7223 42.8138 48.6209 44.3371 48.0593 46.0837C47.4976 47.8303 47.5048 49.7101 48.0797 51.4523C48.6546 53.1946 49.7675 54.7095 51.2583 55.7788C48.0472 56.8444 45.2527 58.8932 43.2707 61.6352C41.2887 64.3771 40.2196 67.6732 40.2149 71.0565C40.2133 71.2195 40.2442 71.3812 40.3059 71.5322C40.3675 71.6831 40.4586 71.8202 40.5739 71.9355C40.6892 72.0508 40.8263 72.1419 40.9773 72.2036C41.1282 72.2652 41.2899 72.2962 41.453 72.2945H71.1662C71.3292 72.2962 71.4909 72.2652 71.6419 72.2036C71.7928 72.1419 71.9299 72.0508 72.0452 71.9355C72.1605 71.8202 72.2516 71.6831 72.3133 71.5322C72.3749 71.3812 72.4058 71.2195 72.4042 71.0565C72.3995 67.6732 71.3305 64.3771 69.3484 61.6352C67.3664 58.8932 64.5719 56.8444 61.3608 55.7788ZM50.1193 48.7714C50.1193 47.5471 50.4824 46.3503 51.1626 45.3323C51.8428 44.3143 52.8095 43.5209 53.9407 43.0523C55.0718 42.5838 56.3164 42.4612 57.5172 42.7001C58.718 42.9389 59.821 43.5285 60.6867 44.3942C61.5525 45.2599 62.142 46.363 62.3809 47.5638C62.6197 48.7646 62.4971 50.0092 62.0286 51.1403C61.5601 52.2715 60.7667 53.2383 59.7487 53.9185C58.7307 54.5987 57.5339 54.9617 56.3096 54.9617C54.668 54.9611 53.0938 54.3087 51.9331 53.148C50.7723 51.9872 50.1199 50.413 50.1193 48.7714Z" fill="#1B3139"/>
<path id="Vector_3" d="M52.5948 1.72567V10.3921H31.5479C31.06 10.3914 30.5767 10.4871 30.1258 10.6735C29.6749 10.8599 29.2652 11.1335 28.9202 11.4785C28.5751 11.8235 28.3016 12.2332 28.1152 12.6841C27.9287 13.1351 27.8331 13.6183 27.8338 14.1063V30.201H26.8928L17.236 35.0295C17.0651 35.1083 16.8795 35.1504 16.6913 35.1533C16.4646 35.1575 16.2414 35.0974 16.0475 34.9799C15.8683 34.8653 15.7202 34.7081 15.6165 34.5223C15.5128 34.3365 15.4567 34.1279 15.4532 33.9152V30.201H11.7391C11.5761 30.2026 11.4143 30.1717 11.2634 30.1101C11.1125 30.0484 10.9754 29.9573 10.8601 29.842C10.7448 29.7267 10.6537 29.5896 10.592 29.4387C10.5304 29.2877 10.4994 29.126 10.501 28.963V1.72567C10.4994 1.56263 10.5303 1.40091 10.592 1.24998C10.6536 1.09904 10.7448 0.96191 10.86 0.846622C10.9753 0.731333 11.1125 0.640199 11.2634 0.578554C11.4143 0.516909 11.5761 0.485991 11.7391 0.487609H51.3567C51.5198 0.485991 51.6815 0.516909 51.8324 0.578554C51.9834 0.640199 52.1205 0.731333 52.2358 0.846622C52.3511 0.96191 52.4422 1.09904 52.5039 1.24998C52.5655 1.40091 52.5964 1.56263 52.5948 1.72567Z" fill="#1B3139"/>
<path id="Vector_4" d="M62.5 14.1063V33.9152C62.5016 34.0783 62.4706 34.24 62.409 34.3909C62.3473 34.5418 62.2562 34.679 62.1409 34.7943C62.0256 34.9095 61.8885 35.0007 61.7376 35.0623C61.5866 35.124 61.4249 35.1549 61.2619 35.1533H57.5477V36.3914C57.5443 36.6041 57.4882 36.8126 57.3845 36.9984C57.2808 37.1842 57.1327 37.3414 56.9535 37.4561C56.7596 37.5735 56.5364 37.6336 56.3097 37.6294C56.1215 37.6266 55.9359 37.5844 55.765 37.5056L51.0604 35.1533H31.5487C31.3856 35.1549 31.2239 35.124 31.073 35.0623C30.922 35.0007 30.7849 34.9095 30.6696 34.7943C30.5544 34.679 30.4632 34.5418 30.4016 34.3909C30.3399 34.24 30.309 34.0783 30.3106 33.9152V14.1063C30.309 13.9432 30.3399 13.7815 30.4016 13.6306C30.4632 13.4797 30.5543 13.3425 30.6696 13.2272C30.7849 13.1119 30.922 13.0208 31.073 12.9592C31.2239 12.8975 31.3856 12.8666 31.5487 12.8682H61.2619C61.4249 12.8666 61.5867 12.8975 61.7376 12.9592C61.8885 13.0208 62.0257 13.1119 62.1409 13.2272C62.2562 13.3425 62.3474 13.4797 62.409 13.6306C62.4706 13.7815 62.5016 13.9432 62.5 14.1063Z" fill="#1B3139"/>
</g>
</svg>
