<svg width="20" height="20" viewBox="0 0 20 20" fill="none" xmlns="http://www.w3.org/2000/svg">
<g id="solar:arrow-up-outline">
<path id="Vector" fill-rule="evenodd" clip-rule="evenodd" d="M16.7027 9.72499C16.8112 9.83357 16.8721 9.98075 16.8721 10.1342C16.8721 10.2877 16.8112 10.4349 16.7027 10.5434L12.07 15.1762C12.017 15.233 11.953 15.2787 11.882 15.3103C11.811 15.342 11.7343 15.359 11.6565 15.3604C11.5788 15.3617 11.5016 15.3474 11.4294 15.3183C11.3573 15.2892 11.2918 15.2458 11.2369 15.1909C11.1819 15.1359 11.1385 15.0704 11.1094 14.9983C11.0803 14.9261 11.066 14.8489 11.0673 14.7712C11.0687 14.6934 11.0857 14.6167 11.1174 14.5457C11.149 14.4747 11.1947 14.4107 11.2515 14.3577L14.896 10.7133H3.93958C3.78599 10.7133 3.6387 10.6523 3.5301 10.5437C3.4215 10.4351 3.36049 10.2878 3.36049 10.1342C3.36049 9.98063 3.4215 9.83333 3.5301 9.72473C3.6387 9.61613 3.78599 9.55512 3.93958 9.55512H14.896L11.2515 5.91072C11.1947 5.8577 11.149 5.79377 11.1174 5.72274C11.0857 5.6517 11.0687 5.57502 11.0673 5.49726C11.066 5.41951 11.0803 5.34228 11.1094 5.27017C11.1385 5.19806 11.1819 5.13256 11.2369 5.07757C11.2918 5.02258 11.3573 4.97923 11.4294 4.95011C11.5016 4.92098 11.5788 4.90668 11.6565 4.90805C11.7343 4.90942 11.811 4.92644 11.882 4.95809C11.953 4.98974 12.017 5.03538 12.07 5.09227L16.7027 9.72499Z" fill="#165041"/>
</g>
</svg>
