<svg width="114" height="26" viewBox="0 0 114 26" fill="none" xmlns="http://www.w3.org/2000/svg">
<g id="logo-AUTICON-lite-blue-255x56-1 1" clip-path="url(#clip0_2881_1507)">
<path id="Vector" d="M20.2336 8.53564C22.1488 8.53564 24.064 8.53564 26.0372 8.53564C26.1845 12.5133 26.3318 16.491 26.4836 20.5892C29.3407 20.4999 29.3407 20.4999 30.055 19.6964C30.1255 18.8697 30.1671 18.0405 30.1963 17.2114C30.215 16.7093 30.2337 16.2072 30.253 15.6898C30.2705 15.1613 30.2881 14.6327 30.3061 14.0881C30.3254 13.5578 30.3447 13.0275 30.3646 12.4811C30.4121 11.166 30.457 9.85085 30.5015 8.53564C32.4166 8.53564 34.3318 8.53564 36.305 8.53564C36.305 14.1339 36.305 19.7321 36.305 25.4999C34.6845 25.4999 33.064 25.4999 31.3943 25.4999C31.247 24.9106 31.0997 24.3214 30.9479 23.7142C30.6901 24.0089 30.4323 24.3035 30.1666 24.6071C27.972 25.9576 25.8704 25.8965 23.3586 25.4999C21.5967 24.3371 20.9517 23.1832 20.4069 21.1689C20.0158 18.853 20.1446 16.4847 20.1778 14.1439C20.1818 13.6044 20.1859 13.0649 20.19 12.509C20.2005 11.1845 20.2165 9.86008 20.2336 8.53564Z" fill="#A0B9CC"/>
<path id="Vector_2" d="M13.7604 8.59143C15.4926 9.89064 16.4788 11.2401 16.9297 13.3724C17.1017 14.7314 17.1595 16.0222 17.1522 17.391C17.1507 17.8657 17.1493 18.3405 17.1478 18.8296C17.1422 19.5625 17.1422 19.5625 17.1365 20.3102C17.1345 20.8091 17.1324 21.3081 17.1304 21.8221C17.1251 23.0481 17.1178 24.274 17.1086 25.4999C16.3089 25.524 15.5089 25.5413 14.709 25.5557C14.2636 25.5661 13.8182 25.5764 13.3593 25.5871C12.1979 25.4999 12.1979 25.4999 11.305 24.6071C11.0604 24.7509 10.8158 24.8948 10.5639 25.043C8.66127 25.8752 6.6424 25.753 4.60856 25.4999C3.2684 24.6958 2.62121 24.2038 1.92999 22.8213C1.7028 20.717 1.62103 18.9379 2.62754 17.0457C5.03053 15.0124 7.84023 14.4745 10.8586 13.8928C10.0697 12.8947 10.0697 12.8947 9.06239 12.9947C8.71595 13.0424 8.36952 13.0902 8.01258 13.1394C7.66845 13.1837 7.32432 13.228 6.96975 13.2737C6.0169 13.4347 5.09536 13.6435 4.16214 13.8928C2.37642 11.3816 2.37642 11.3816 2.37642 9.87492C6.11156 8.02387 9.70877 7.28914 13.7604 8.59143ZM7.28714 19.2499C7.40623 20.136 7.40623 20.136 7.73356 21.0356C9.06146 21.6415 9.06146 21.6415 10.2726 20.9798C11.4358 20.236 11.4358 20.236 11.4445 18.943C11.3985 18.6023 11.3524 18.2616 11.305 17.9106C9.6558 17.9106 8.72537 18.4829 7.28714 19.2499Z" fill="#A0B9CC"/>
<path id="Vector_3" d="M109.52 8.08944C111.134 8.94044 112.058 9.90156 112.645 11.6609C112.682 12.713 112.692 13.7662 112.688 14.819C112.687 15.1243 112.687 15.4296 112.686 15.7441C112.684 16.7175 112.678 17.6908 112.672 18.6642C112.67 19.3249 112.668 19.9855 112.666 20.6461C112.661 22.2641 112.654 23.8821 112.645 25.5002C110.877 25.5002 109.109 25.5002 107.287 25.5002C107.26 24.7423 107.233 23.9844 107.205 23.2035C107.168 22.2112 107.13 21.219 107.092 20.2267C107.075 19.7269 107.057 19.2271 107.039 18.7122C107.02 18.2331 107.001 17.754 106.982 17.2604C106.966 16.8186 106.949 16.3767 106.933 15.9215C106.882 14.7315 106.882 14.7315 106.395 13.4466C105.363 13.5939 104.332 13.7412 103.27 13.893C103.122 17.7234 102.975 21.5537 102.823 25.5002C100.908 25.5002 98.9927 25.5002 97.0195 25.5002C97.0195 19.9019 97.0195 14.3037 97.0195 8.53587C98.6401 8.53587 100.261 8.53587 101.93 8.53587C102.078 8.97784 102.225 9.4198 102.377 9.87516C102.727 9.58051 103.076 9.28587 103.437 8.9823C105.343 7.72234 107.313 7.66736 109.52 8.08944Z" fill="#A0B9CC"/>
<path id="Vector_4" d="M90.4317 9.30466C92.1058 10.5211 93.2341 11.9099 93.895 13.8928C94.1766 17.2663 94.3593 20.5421 92.1093 23.2678C90.1267 25.3002 88.1455 25.6598 85.3571 25.751C82.9432 25.6582 81.3986 25.4564 79.6093 23.7142C77.3389 21.2546 76.7441 19.1905 76.8174 15.8999C77.0768 13.3496 78.2464 11.2379 80.0558 9.42848C83.3932 7.49274 87.0467 7.37916 90.4317 9.30466ZM83.7667 13.1394C82.51 14.7552 82.6327 16.3927 82.7343 18.357C83.135 19.6221 83.135 19.6221 83.6272 20.5892C84.6584 20.7365 85.6897 20.8838 86.7522 21.0356C88.0962 19.2996 88.3249 17.8806 88.2502 15.75C88.0075 14.2752 87.4235 13.516 86.3058 12.5535C84.5959 12.3708 84.5959 12.3708 83.7667 13.1394Z" fill="#A0B9CC"/>
<path id="Vector_5" d="M41.6621 3.625C43.2826 3.625 44.9032 3.625 46.5728 3.625C46.5728 5.24554 46.5728 6.86607 46.5728 8.53571C47.8987 8.53571 49.2246 8.53571 50.5907 8.53571C50.5907 10.0089 50.5907 11.4821 50.5907 13C49.2648 13 47.9389 13 46.5728 13C46.7201 15.6518 46.8675 18.3036 47.0193 21.0357C48.0505 21.0357 49.0818 21.0357 50.1443 21.0357C50.8064 22.7495 51.1372 23.742 50.5907 25.5C49.5206 25.5485 48.4527 25.5837 47.382 25.6116C47.0813 25.6266 46.7806 25.6415 46.4708 25.6569C44.9002 25.6876 43.9747 25.5478 42.616 24.7397C40.4634 22.4257 40.6553 20.1021 40.7134 17.1016C40.7175 16.7071 40.7215 16.3126 40.7257 15.9061C40.7361 14.9374 40.7521 13.9687 40.7693 13C40.0326 13 39.296 13 38.5371 13C38.5371 11.5268 38.5371 10.0536 38.5371 8.53571C39.421 8.53571 40.305 8.53571 41.2157 8.53571C41.2065 8.05692 41.1973 7.57812 41.1878 7.08482C41.2157 5.41071 41.2157 5.41071 41.6621 3.625Z" fill="#A0B9CC"/>
<path id="Vector_6" d="M75.0052 8.759C75.3459 8.97998 75.6866 9.20097 76.0376 9.42865C75.7784 11.1781 75.1194 12.2673 73.8054 13.4465C72.8645 13.4233 72.006 13.2485 71.0833 13.0681C70.1349 12.9039 70.1349 12.9039 69.1458 13.7255C68.3499 14.9353 68.0356 15.5662 68.0019 17.0179C68.6402 18.9486 68.6402 18.9486 69.7876 20.5894C71.5659 20.6565 72.9621 20.577 74.6983 20.1429C75.2876 21.3215 75.8769 22.5001 76.484 23.7144C74.2388 25.8275 72.0828 25.6969 69.09 25.6936C66.7403 25.3973 65.3126 24.5966 63.6492 22.9331C61.7564 20.199 61.578 17.8232 61.9577 14.6009C62.4988 12.005 64.0876 10.4359 66.2162 8.98222C69.0726 7.64054 72.0886 7.57259 75.0052 8.759Z" fill="#A0B9CC"/>
<path id="Vector_7" d="M53.2695 8.53564C55.1847 8.53564 57.0999 8.53564 59.0731 8.53564C59.0731 14.1339 59.0731 19.7321 59.0731 25.4999C57.1579 25.4999 55.2427 25.4999 53.2695 25.4999C53.2695 19.9017 53.2695 14.3035 53.2695 8.53564Z" fill="#A0B9CC"/>
<path id="Vector_8" d="M57.7337 0.946557C58.8498 1.672 58.8498 1.672 59.5194 2.73227C59.5473 4.09946 59.5473 4.09946 59.073 5.41084C57.8077 6.53151 57.1376 6.75606 55.4457 6.72223C54.1623 6.3037 54.1623 6.3037 53.2973 5.55035C52.6461 4.13307 52.8209 3.31317 53.2694 1.83941C54.9304 0.732098 55.7685 0.739695 57.7337 0.946557Z" fill="#A0B9CC"/>
</g>
<defs>
<clipPath id="clip0_2881_1507">
<rect width="113.839" height="25" fill="white" transform="translate(0.144531 0.5)"/>
</clipPath>
</defs>
</svg>
