<svg width="71" height="62" viewBox="0 0 71 62" fill="none" xmlns="http://www.w3.org/2000/svg">
<path id="Vector" d="M47.799 20.2469C44.7271 15.3514 39.6209 12.0938 33.889 11.3677C33.911 12.7575 32.8011 13.8988 31.4114 13.9209C30.0216 13.943 28.8802 12.833 28.8582 11.4432C24.5788 11.9086 20.5891 13.8234 17.5513 16.8734C14.514 19.9202 12.6085 23.9165 12.1558 28.1956C13.511 28.2427 14.5863 29.3558 14.5863 30.711C14.5863 32.0662 13.511 33.1792 12.1558 33.2264C12.6148 37.5057 14.5203 41.5019 17.5544 44.5518C20.5918 47.6049 24.5788 49.526 28.8581 50.0039C28.8612 49.3342 29.1317 48.6959 29.6096 48.2243C30.0844 47.7558 30.7289 47.4948 31.3987 47.5011C32.0684 47.5105 32.7067 47.7809 33.1752 48.262C33.6405 48.7399 33.8984 49.3845 33.8889 50.0543C34.6373 49.9631 35.3762 49.8184 36.1025 49.6266C36.8666 44.3977 39.6712 39.6874 43.9003 36.5216C42.5671 33.7766 42.2244 30.6543 42.9381 27.6858C43.6487 24.7176 45.3653 22.0895 47.799 20.2469ZM33.889 30.7111C33.8859 32.0977 32.7603 33.2233 31.3736 33.2265H23.8777C22.5037 33.2076 21.4 32.0851 21.4 30.7111C21.4 29.337 22.5037 28.2145 23.8777 28.1956H28.8582V21.5047C28.8771 20.1275 29.9964 19.0239 31.3736 19.0239C32.7508 19.0239 33.8702 20.1275 33.889 21.5047V30.7111ZM59.345 18.0833C57.0623 17.4324 54.6443 17.4136 52.3521 18.033C38.4671 -3.80402 7.05299 7.14467 6.9741 29.8558C6.65025 37.2952 9.7442 44.4734 15.3784 49.3408C21.0129 54.2113 28.5624 56.233 35.876 54.8338V61.0972C-2.02825 66.9141 -14.52 8.82086 26.1162 0.601699C32.8103 -0.59942 39.7155 0.469642 45.7332 3.63589C51.7513 6.80217 56.5438 11.8861 59.345 18.0833ZM70.5641 52.4941V61.424H40.9072C40.9481 59.8582 40.7846 51.8687 41.0581 50.4818C41.4637 47.5608 42.7246 44.8222 44.6866 42.6212C46.6486 40.417 49.2206 38.8449 52.0756 38.106C52.1008 38.1311 52.1008 38.1311 52.1008 38.106C52.1763 38.0808 52.2517 38.0808 52.3272 38.0557C41.2215 32.2073 51.6669 16.8916 61.2571 24.7493V24.7745C63.238 26.6139 64.1718 29.3211 63.7474 31.9905C63.323 34.66 61.5967 36.9459 59.1441 38.081C62.3922 38.8482 65.2849 40.6876 67.3569 43.3036C69.4288 45.9196 70.5578 49.158 70.5641 52.4941Z" fill="#1B3139"/>
</svg>
