<svg width="51" height="58" viewBox="0 0 51 58" fill="none" xmlns="http://www.w3.org/2000/svg">
<path id="Vector" d="M4.31366 37.6652L0.176758 40.6989L7.97387 57.8472L12.1108 54.8136L4.31366 37.6652ZM6.58432 39.1319L12.283 51.6621L14.7234 49.8737H37.6459L49.4478 38.3529C50.5935 37.2314 51.2606 35.3428 50.4982 33.6725C49.7684 32.0612 48.123 31.5064 46.8633 32.4331L37.2646 39.4684H33.7877C33.0486 41.1269 31.6635 42.1952 30.1319 42.1952H20.9449L20.9426 40.4245H30.1296C32.3212 40.4245 33.7041 37.3288 32.463 34.9178C31.9424 33.9086 31.101 33.3154 30.1296 33.3154H14.5139L6.58432 39.1319ZM14.3606 4.99384C12.7895 2.99895 10.2423 2.99895 8.67118 4.99384C7.1001 6.98872 7.1001 10.2231 8.67118 12.218C10.2423 14.2129 12.7895 14.2129 14.3606 12.218C15.9317 10.2202 15.9317 6.98872 14.3606 4.99384ZM42.0756 4.99384C40.5045 2.99895 37.9573 2.99895 36.3862 4.99384C34.8151 6.98872 34.8151 10.2231 36.3862 12.218C37.9573 14.2129 40.5045 14.2129 42.0756 12.218C43.649 10.2202 43.649 6.98872 42.0756 4.99384ZM29.107 2.45297C27.0455 -0.167592 23.7011 -0.167592 21.6395 2.45297C19.5757 5.07052 19.5757 9.32002 21.6395 11.9409C23.701 14.5615 27.0454 14.5615 29.107 11.9409C31.1732 9.32334 31.1732 5.07384 29.107 2.45297ZM15.5506 24.2497V18.6634L15.7086 18.4155C16.0526 17.8843 16.429 17.3915 16.8451 16.9489C15.9759 16.2495 14.9765 15.8747 13.9237 15.8747H9.10808C8.26441 15.8747 7.46727 16.1166 6.76074 16.5475C6.09139 16.9547 5.49874 17.5273 5.013 18.2207V24.2527L15.5506 24.2497ZM35.1983 18.9762V24.2527H45.7407V18.2207C45.2526 17.5243 44.6599 16.9517 43.9929 16.5475C43.2864 16.1166 42.4869 15.8747 41.6456 15.8747H36.83C35.7841 15.8747 34.7732 16.2554 33.9086 16.9489C34.3222 17.3915 34.7057 17.8873 35.0451 18.4155C35.238 18.7254 35.1983 18.5866 35.1983 18.9762ZM33.8038 27.2538V19.295C33.1624 18.3565 32.3722 17.5893 31.4774 17.0492C30.5547 16.4885 29.5158 16.1757 28.4235 16.1757H22.3203C21.228 16.1757 20.1891 16.4885 19.2664 17.0492C18.3739 17.5892 17.5838 18.3565 16.9399 19.295V27.2538H33.8038Z" fill="#1B3139"/>
</svg>
