<svg width="55" height="55" viewBox="0 0 55 55" fill="none" xmlns="http://www.w3.org/2000/svg">
<g id="Frame 1031">
<path id="Vector" d="M21.582 3.02069C22.0189 3.3619 22.4323 3.71562 22.8409 4.09018C22.9542 4.18937 23.0675 4.28855 23.1842 4.39074C25.2084 6.26779 26.6668 9.21515 26.8902 11.9671C26.9048 12.1424 26.9195 12.3177 26.9345 12.4983C26.9449 12.6305 26.9552 12.7627 26.9659 12.8989C27.1051 12.8984 27.2444 12.8979 27.3878 12.8974C30.7719 12.8855 34.156 12.8766 37.5401 12.871C39.1766 12.8682 40.8132 12.8644 42.4497 12.8582C43.8756 12.8529 45.3016 12.8494 46.7276 12.8482C47.483 12.8475 48.2384 12.8458 48.9938 12.8419C49.7042 12.8382 50.4146 12.8371 51.125 12.8379C51.3863 12.8378 51.6476 12.8367 51.9089 12.8346C52.2645 12.832 52.6202 12.8329 52.9758 12.8341C53.1752 12.8336 53.3745 12.8331 53.58 12.8325C53.7341 12.8544 53.8882 12.8763 54.047 12.8989C54.5183 13.6075 54.4566 14.2126 54.4537 15.035C54.4545 15.2003 54.4553 15.3655 54.4562 15.5358C54.4584 16.0918 54.4581 16.6478 54.4578 17.2039C54.4589 17.6016 54.4601 17.9993 54.4615 18.397C54.4647 19.4789 54.4655 20.5609 54.4657 21.6428C54.4661 22.5448 54.4674 23.4469 54.4687 24.3489C54.4714 26.3546 54.4725 28.3602 54.4722 30.3659C54.4722 30.4862 54.4722 30.6066 54.4722 30.7306C54.4722 30.8511 54.4722 30.9717 54.4722 31.0958C54.472 33.0502 54.4754 35.0045 54.4805 36.9588C54.4856 38.9644 54.4881 40.9701 54.4878 42.9757C54.4877 44.1022 54.4888 45.2286 54.4925 46.355C54.496 47.4139 54.4961 48.4727 54.4934 49.5316C54.4931 49.9209 54.4939 50.3103 54.4961 50.6997C54.4988 51.2297 54.4972 51.7596 54.4944 52.2896C54.4963 52.4451 54.4981 52.6005 54.5 52.7607C54.4878 53.8055 54.4878 53.8055 54.0922 54.1954C53.6403 54.4531 53.3919 54.4933 52.8761 54.4936C52.7132 54.495 52.5503 54.4964 52.3825 54.4979C52.2042 54.4967 52.0259 54.4955 51.8423 54.4942C51.5574 54.4955 51.5574 54.4955 51.2668 54.4968C50.6283 54.4989 49.9899 54.4972 49.3514 54.4955C48.8946 54.4963 48.4377 54.4972 47.9808 54.4984C46.8675 54.5006 45.7543 54.5003 44.641 54.4987C43.7364 54.4975 42.8318 54.4973 41.9273 54.4979C41.7986 54.498 41.6699 54.4981 41.5374 54.4982C41.276 54.4983 41.0146 54.4985 40.7533 54.4987C38.3018 54.5002 35.8502 54.4985 33.3987 54.4956C31.2941 54.4931 29.1895 54.4936 27.0848 54.4961C24.6419 54.4989 22.199 54.5001 19.756 54.4984C19.4957 54.4982 19.2353 54.4981 18.975 54.4979C18.7828 54.4978 18.7828 54.4978 18.5868 54.4977C17.6829 54.4972 16.7791 54.498 15.8753 54.4992C14.6595 54.5009 13.4438 54.4997 12.228 54.4966C11.7808 54.4959 11.3337 54.4961 10.8865 54.4973C10.278 54.4988 9.66966 54.4969 9.0612 54.4942C8.88252 54.4954 8.70384 54.4966 8.51974 54.4979C8.35731 54.4965 8.19487 54.4951 8.02752 54.4936C7.81675 54.4935 7.81675 54.4935 7.60172 54.4933C7.13924 54.4074 6.98019 54.2597 6.69985 53.8864C6.63364 53.3652 6.63364 53.3653 6.63515 52.716C6.63469 52.5966 6.63423 52.4772 6.63375 52.3542C6.63286 51.9534 6.63583 51.5527 6.63877 51.1518C6.63892 50.8648 6.63883 50.5778 6.63853 50.2908C6.63837 49.5109 6.64154 48.731 6.64529 47.951C6.64865 47.1362 6.64897 46.3215 6.64961 45.5067C6.65128 43.9634 6.6557 42.4201 6.6611 40.8768C6.66711 39.12 6.67007 37.3632 6.67277 35.6064C6.6784 31.9922 6.68786 28.3779 6.69985 24.7637C6.49119 24.6846 6.49119 24.6846 6.27832 24.6039C3.84747 23.5822 2.28862 20.5865 1.31948 18.292C0.102105 15.0776 0.279628 11.6095 1.59621 8.46224C2.21899 7.09519 3.00643 5.92304 4.00967 4.80926C4.11093 4.69525 4.21219 4.58124 4.31651 4.46377C8.90248 -0.413605 16.2397 -0.663928 21.582 3.02069ZM23.2072 22.5435C23.0872 22.7611 22.9696 22.9801 22.855 23.2006C21.7204 24.9883 18.7613 26.0484 16.8104 26.5389C13.8979 27.0908 11.3058 26.6881 8.4933 25.8423C8.4933 34.6816 8.4933 43.5209 8.4933 52.628C23.0526 52.628 37.6118 52.628 52.6123 52.628C52.6123 42.187 52.6123 31.746 52.6123 20.9885C45.7987 20.9107 45.7987 20.9107 38.8475 20.8313C36.7 20.7969 36.7 20.7969 34.5091 20.7618C33.2203 20.7534 33.2203 20.7534 31.9315 20.7483C31.3593 20.746 30.7878 20.7366 30.2158 20.7228C26.223 20.4133 26.223 20.4133 23.2072 22.5435Z" fill="#050505"/>
<path id="Vector_2" d="M40.7108 23.1011C40.8373 23.1018 40.9638 23.1025 41.0941 23.1033C41.2241 23.1029 41.3541 23.1026 41.488 23.1022C41.763 23.102 42.038 23.1027 42.313 23.1042C42.7346 23.1061 43.156 23.1042 43.5776 23.1019C43.8445 23.1021 44.1114 23.1026 44.3783 23.1033C44.5048 23.1026 44.6313 23.1018 44.7616 23.1011C45.6542 23.1097 45.6542 23.1097 46.0541 23.5106C46.0997 23.8818 46.0997 23.8818 46.1008 24.3487C46.1021 24.5254 46.1034 24.7021 46.1047 24.8841C46.1043 25.0786 46.1038 25.2732 46.1034 25.4736C46.1043 25.6779 46.1052 25.8823 46.1061 26.0928C46.1086 26.7711 46.1085 27.4494 46.108 28.1277C46.1087 28.5975 46.1095 29.0672 46.1104 29.537C46.1118 30.5228 46.1117 31.5086 46.1107 32.4944C46.1096 33.6344 46.1118 34.7744 46.1157 35.9144C46.1192 37.0104 46.1197 38.1063 46.1191 39.2023C46.1192 39.669 46.1201 40.1357 46.1219 40.6024C46.1241 41.2541 46.123 41.9057 46.1209 42.5574C46.1229 42.8486 46.1229 42.8486 46.125 43.1457C46.1238 43.3229 46.1225 43.5001 46.1212 43.6827C46.1212 43.8368 46.1213 43.991 46.1213 44.1498C46.0384 44.6356 45.9104 44.7949 45.5161 45.083C44.9338 45.1499 44.9338 45.1499 44.2207 45.1483C44.0949 45.1483 43.9692 45.1484 43.8396 45.1485C43.5741 45.1481 43.3086 45.1464 43.0432 45.1434C42.6362 45.1391 42.2294 45.1397 41.8223 45.1409C39.8271 45.1331 39.8271 45.1331 39.4183 44.7234C39.3732 44.3489 39.3732 44.3489 39.3728 43.8773C39.3718 43.6988 39.3707 43.5203 39.3697 43.3365C39.3704 43.14 39.3712 42.9435 39.3719 42.741C39.3713 42.5347 39.3706 42.3283 39.37 42.1156C39.3684 41.4306 39.3695 40.7456 39.3707 40.0606C39.3704 39.5864 39.3701 39.1122 39.3696 38.638C39.369 37.643 39.3698 36.6479 39.3716 35.6529C39.3735 34.5017 39.3729 33.3504 39.3709 32.1992C39.3691 31.0928 39.3693 29.9865 39.3703 28.8802C39.3706 28.4088 39.3703 27.9375 39.3694 27.4661C39.3685 26.8084 39.3699 26.1507 39.3719 25.493C39.3712 25.2965 39.3704 25.1 39.3697 24.8975C39.3707 24.719 39.3717 24.5406 39.3728 24.3567C39.3729 24.2011 39.373 24.0454 39.3732 23.8851C39.4726 23.0603 40.0064 23.1079 40.7108 23.1011Z" fill="#050505"/>
<path id="Vector_3" d="M13.0544 2.47742C13.1258 3.854 13.1796 5.23039 13.2124 6.60842C13.2281 7.24885 13.2494 7.88798 13.2844 8.52766C13.5221 12.989 13.5221 12.989 12.4063 14.4294C11.7892 15.0923 11.1123 15.6476 10.3887 16.189C9.86806 16.6109 9.45436 17.096 9.02538 17.6088C8.67829 18.0234 8.30441 18.4047 7.92135 18.7859C7.70895 18.9979 7.70895 18.9979 7.49225 19.2143C7.3488 19.3566 7.20535 19.4988 7.05755 19.6454C6.90924 19.7933 6.76094 19.9411 6.60813 20.0935C6.24647 20.4539 5.88439 20.8139 5.5219 21.1735C4.26944 20.6022 3.66274 19.1727 3.13437 17.9489C2.03999 14.9499 2.20133 11.7919 3.44822 8.88804C4.89638 5.95346 7.28452 3.91842 10.3313 2.77516C11.2632 2.49442 12.0875 2.47099 13.0544 2.47742Z" fill="#F0E5F5"/>
<path id="Vector_4" d="M14.8475 2.47748C15.1617 2.50251 15.4758 2.52858 15.7898 2.55507C15.9647 2.56948 16.1396 2.58388 16.3199 2.59872C18.9099 2.90162 21.2555 4.6986 22.8998 6.62553C24.8949 9.40956 25.6526 12.512 25.115 15.9153C24.7317 17.7068 24.0732 19.3742 22.918 20.814C22.6827 20.9412 22.4439 21.0623 22.2007 21.1735C21.6101 20.586 21.0201 19.9979 20.4306 19.4092C20.2306 19.2096 20.0304 19.0102 19.8301 18.8109C17.791 16.7825 17.791 16.7825 16.9802 15.7933C16.6407 15.4033 16.6407 15.4033 16.1962 15.0521C15.4874 14.445 14.9358 13.9535 14.6895 13.0326C14.6407 12.3514 14.6454 11.6918 14.6724 11.0095C14.6757 10.7622 14.6783 10.5149 14.68 10.2676C14.6868 9.62237 14.7044 8.97793 14.7244 8.33303C14.7428 7.67268 14.7509 7.0122 14.7599 6.35166C14.7791 5.05993 14.8096 3.76881 14.8475 2.47748Z" fill="#F0E5F5"/>
<path id="Vector_5" d="M27.4655 14.6797C27.7489 14.6799 27.7489 14.6799 28.0381 14.6802C28.2541 14.6799 28.4702 14.6797 28.6927 14.6794C28.9343 14.6801 29.1759 14.6807 29.4175 14.6814C29.6702 14.6815 29.9229 14.6814 30.1756 14.6813C30.8637 14.6813 31.5517 14.6823 32.2398 14.6836C32.9581 14.6847 33.6764 14.6848 34.3948 14.685C35.7559 14.6856 37.1171 14.6871 38.4782 14.6889C40.0275 14.6909 41.5767 14.6919 43.126 14.6928C46.3137 14.6946 49.5015 14.6978 52.6893 14.7018C52.6893 16.1849 52.6893 17.668 52.6893 19.1961C43.8708 19.1961 35.0524 19.1961 25.9668 19.1961C26.099 18.6661 26.2469 18.1633 26.4152 17.6455C26.6616 16.8385 26.7707 16.0697 26.8257 15.2292C26.8819 14.7131 26.9446 14.707 27.4655 14.6797Z" fill="#F0E5F5"/>
<path id="Vector_6" d="M34.0056 30.0954C34.3827 30.0946 34.7596 30.0881 35.1367 30.0813C35.3771 30.0802 35.6175 30.0795 35.8579 30.0792C36.0761 30.0777 36.2944 30.0762 36.5192 30.0747C37.217 30.1822 37.3818 30.3209 37.8034 30.8811C37.8733 31.3491 37.8999 31.741 37.8934 32.2084C37.8943 32.3409 37.8953 32.4734 37.8963 32.6099C37.8985 33.047 37.8956 33.4839 37.8924 33.9211C37.8924 34.2251 37.8927 34.5291 37.8932 34.8331C37.8934 35.4697 37.8911 36.1063 37.8871 36.743C37.882 37.5595 37.8825 38.3759 37.8847 39.1925C37.886 39.82 37.8846 40.4475 37.8824 41.075C37.8816 41.3761 37.8815 41.6772 37.8822 41.9784C37.8827 42.3988 37.8798 42.8192 37.8759 43.2396C37.8767 43.3643 37.8775 43.489 37.8783 43.6175C37.8704 44.1242 37.8562 44.4663 37.5662 44.8906C37.0595 45.2146 36.561 45.1496 35.97 45.1483C35.8442 45.1483 35.7185 45.1484 35.5889 45.1485C35.3234 45.1481 35.0579 45.1464 34.7925 45.1434C34.3855 45.1391 33.9786 45.1397 33.5716 45.1409C31.5764 45.1331 31.5764 45.1331 31.1676 44.7234C31.1311 44.2707 31.1168 43.8376 31.1183 43.3846C31.117 43.1776 31.117 43.1776 31.1156 42.9664C31.1131 42.509 31.1133 42.0517 31.1137 41.5943C31.113 41.2773 31.1122 40.9602 31.1113 40.6432C31.11 39.9782 31.11 39.3133 31.111 38.6484C31.112 37.7947 31.109 36.9412 31.1048 36.0875C31.1022 35.4327 31.102 34.778 31.1026 34.1231C31.1025 33.8083 31.1016 33.4935 31.0998 33.1787C31.0976 32.7392 31.0987 32.2999 31.1008 31.8604C31.0995 31.7294 31.0981 31.5985 31.0967 31.4636C31.1005 31.1016 31.1005 31.1016 31.1676 30.5216C32.0242 29.9492 33.0039 30.0952 34.0056 30.0954Z" fill="#040404"/>
<path id="Vector_7" d="M13.7718 15.0613C14.8807 15.9913 15.9127 16.956 16.8508 18.0605C17.6905 19.0277 18.6113 19.9096 19.5329 20.7975C19.6637 20.926 19.7944 21.0545 19.9291 21.1869C20.047 21.301 20.1648 21.4152 20.2863 21.5328C20.6196 21.9317 20.7786 22.3016 20.9456 22.7914C17.9488 24.8803 14.9771 25.5125 11.3808 25.0519C9.85919 24.6792 7.93471 23.8632 6.77734 22.7914C6.77734 22.6135 6.77734 22.4355 6.77734 22.2521C6.89571 22.2521 7.01408 22.2521 7.13603 22.2521C7.17841 22.1509 7.22079 22.0497 7.26446 21.9454C7.54818 21.4373 7.89442 21.0951 8.30949 20.6876C8.47259 20.5261 8.63569 20.3645 8.80374 20.1981C8.97636 20.0288 9.14905 19.8596 9.32181 19.6904C10.3357 18.6931 11.3367 17.7004 12.2603 16.6176C12.5658 16.2623 12.8883 15.9289 13.2226 15.6006C13.3278 15.4968 13.433 15.393 13.5413 15.2861C13.6174 15.2119 13.6934 15.1377 13.7718 15.0613Z" fill="#F0E5F5"/>
<path id="Vector_8" d="M25.322 34.7781C25.4554 34.7785 25.5888 34.7789 25.7262 34.7793C26.1329 34.7798 26.5393 34.7756 26.9459 34.771C27.2041 34.7706 27.4622 34.7705 27.7204 34.7707C27.9557 34.7702 28.1911 34.7696 28.4335 34.7691C29.0157 34.836 29.0157 34.836 29.3168 35.0539C29.6304 35.4792 29.622 35.7433 29.6234 36.2696C29.6251 36.4514 29.6268 36.6331 29.6285 36.8204C29.6275 37.0165 29.6264 37.2126 29.6252 37.4146C29.6258 37.616 29.6263 37.8175 29.6268 38.0251C29.6272 38.4512 29.6262 38.8773 29.6239 39.3035C29.621 39.9569 29.6239 40.6101 29.6273 41.2635C29.627 41.6771 29.6263 42.0907 29.6252 42.5043C29.6269 42.7984 29.6269 42.7984 29.6285 43.0985C29.6268 43.2802 29.6252 43.462 29.6234 43.6493C29.623 43.8093 29.6225 43.9694 29.6221 44.1343C29.5393 44.6303 29.4194 44.7907 29.0157 45.0829C28.4335 45.1498 28.4335 45.1498 27.7204 45.1482C27.5946 45.1483 27.4689 45.1484 27.3393 45.1485C27.0738 45.148 26.8083 45.1463 26.5429 45.1433C26.1359 45.1391 25.729 45.1396 25.322 45.1408C23.3268 45.1331 23.3268 45.1331 22.918 44.7233C22.8725 44.3208 22.8725 44.3208 22.8716 43.8136C22.8699 43.5293 22.8699 43.5293 22.8682 43.2392C22.8689 43.0337 22.8696 42.8283 22.8704 42.6167C22.87 42.4065 22.8697 42.1964 22.8693 41.9799C22.8691 41.535 22.8697 41.0902 22.8712 40.6453C22.8732 39.9623 22.8713 39.2794 22.869 38.5964C22.8692 38.165 22.8697 37.7336 22.8704 37.3022C22.8696 37.0968 22.8689 36.8914 22.8682 36.6797C22.8693 36.4902 22.8704 36.3006 22.8716 36.1053C22.8719 35.9379 22.8722 35.7705 22.8725 35.5981C23.006 34.4183 24.425 34.7816 25.322 34.7781Z" fill="#060606"/>
<path id="Vector_9" d="M41.2109 24.7689C42.2171 24.7689 43.2232 24.7689 44.2598 24.7689C44.2598 30.8793 44.2598 36.9897 44.2598 43.2852C43.2537 43.2852 42.2476 43.2852 41.2109 43.2852C41.2109 37.1748 41.2109 31.0645 41.2109 24.7689Z" fill="#F0E5F5"/>
<path id="Vector_10" d="M16.322 38.3661C16.4478 38.366 16.5735 38.366 16.7031 38.3659C16.9686 38.3663 17.2341 38.368 17.4995 38.371C17.9065 38.3753 18.3133 38.3747 18.7204 38.3735C20.7156 38.3813 20.7156 38.3813 21.1244 38.791C21.1602 39.2378 21.1746 39.6642 21.172 40.1112C21.1725 40.3066 21.1725 40.3066 21.1731 40.5061C21.1733 40.7817 21.1726 41.0573 21.1711 41.333C21.1692 41.7555 21.1711 42.178 21.1734 42.6006C21.1732 42.8681 21.1727 43.1357 21.172 43.4032C21.1727 43.53 21.1735 43.6568 21.1742 43.7874C21.1656 44.6821 21.1656 44.6821 20.7657 45.0829C19.951 45.1549 19.1337 45.1421 18.3162 45.1397C17.9095 45.1391 17.5031 45.1433 17.0965 45.1479C16.8383 45.1483 16.5801 45.1484 16.322 45.1482C16.0867 45.1488 15.8513 45.1493 15.6089 45.1499C15.0266 45.0829 15.0266 45.0829 14.6811 44.8875C14.3844 44.3575 14.4188 43.8946 14.4171 43.2908C14.4166 43.1692 14.4161 43.0475 14.4156 42.9222C14.4152 42.6653 14.4162 42.4084 14.4185 42.1516C14.4213 41.7585 14.4185 41.3658 14.415 40.9728C14.4154 40.723 14.4161 40.4733 14.4171 40.2235C14.4177 39.9963 14.4184 39.7691 14.419 39.535C14.4886 38.9708 14.4886 38.9708 14.6811 38.6269C15.2227 38.3205 15.7051 38.3647 16.322 38.3661Z" fill="#060606"/>
<path id="Vector_11" d="M32.7822 31.9597C33.8475 31.9597 34.9129 31.9597 36.0104 31.9597C36.0104 35.6971 36.0104 39.4345 36.0104 43.2852C34.9451 43.2852 33.8798 43.2852 32.7822 43.2852C32.7822 39.5478 32.7822 35.8104 32.7822 31.9597Z" fill="#F0E5F5"/>
<path id="Vector_12" d="M24.7119 36.454C25.718 36.454 26.7242 36.454 27.7608 36.454C27.7608 38.7083 27.7608 40.9626 27.7608 43.2852C26.7547 43.2852 25.7485 43.2852 24.7119 43.2852C24.7119 41.0309 24.7119 38.7766 24.7119 36.454Z" fill="#F0E5F5"/>
<path id="Vector_13" d="M16.2822 40.2291C17.2884 40.2291 18.2945 40.2291 19.3311 40.2291C19.3311 41.2376 19.3311 42.2461 19.3311 43.2852C18.325 43.2852 17.3188 43.2852 16.2822 43.2852C16.2822 42.2767 16.2822 41.2682 16.2822 40.2291Z" fill="#F0E5F5"/>
</g>
</svg>
