<svg width="23" height="126" viewBox="0 0 23 126" fill="none" xmlns="http://www.w3.org/2000/svg">
<path id="Vector" d="M2.71966 2.46052L2.71988 2.46177C6.01739 19.3821 7.8224 36.5769 8.2008 53.733C8.52264 68.4056 7.79945 83.0542 6.03738 97.485L2.87271 95.5056C1.50062 94.6473 -0.119774 96.0688 0.324875 97.7406L7.30402 123.977C7.74189 125.623 9.75581 125.876 10.5169 124.381L22.6487 100.547C23.4217 99.0283 22.1315 97.2408 20.6201 97.7366L16.9653 98.9354C17.5395 83.6024 16.9901 68.2832 15.3626 53.162C13.4742 35.6386 10.1374 18.3748 5.36165 1.68605C5.1115 0.821645 4.20037 0.343391 3.39554 0.815634C2.86212 1.12872 2.59325 1.80774 2.71966 2.46052Z" fill="#203B44"/>
</svg>
