<svg width="382" height="231" viewBox="0 0 382 231" fill="none" xmlns="http://www.w3.org/2000/svg">
<g filter="url(#filter0_dddd_2881_1370)">
<rect x="64.5" y="56" width="253.887" height="105.385" rx="10.5056" fill="#FCFDFD"/>
<g clip-path="url(#clip0_2881_1370)">
<path d="M87.4981 80.676H88.4368C88.4626 80.6964 88.4918 80.7121 88.5231 80.7223C89.2637 80.8216 89.9824 81.044 90.6496 81.3802C91.9508 82.0376 93.1598 82.8633 94.2455 83.8361C94.6319 84.1686 95.011 84.5095 95.3934 84.8467C95.7739 85.3035 96.1988 85.7166 96.622 86.134L97.1922 86.7033C97.4005 86.8849 97.6064 87.0696 97.8173 87.2479C98.7107 88.055 99.6705 88.7854 100.687 89.4314C101.195 89.759 101.753 90.0036 102.338 90.1557C103.264 90.4018 104.235 90.4292 105.174 90.2357C105.401 90.1836 105.634 90.1474 105.855 90.0769C107.088 89.6859 108.103 89.0378 108.564 87.7496C108.571 87.7289 108.598 87.7154 108.617 87.6987C108.606 87.785 108.6 87.8713 108.583 87.9547C107.851 91.496 103.845 93.947 100.121 92.0587C98.6063 91.2636 97.2049 90.2694 95.954 89.1025C95.7708 88.9069 95.5684 88.7301 95.3499 88.5749C95.1734 88.3465 94.9735 88.1371 94.7536 87.9501C94.3715 87.5223 93.9721 87.1105 93.5554 86.7148C93.0934 86.2348 92.5971 85.789 92.0704 85.3809C90.9399 84.4776 89.7837 83.6134 88.3341 83.2694C88.2662 83.1891 88.1661 83.1906 88.0752 83.1727C87.3416 83.031 86.589 83.0169 85.8506 83.131C85.0831 83.2208 84.3441 83.476 83.6847 83.879C83.6468 83.8994 83.6076 83.9178 83.5697 83.9408C82.9542 84.3352 82.4727 84.9069 82.1888 85.5806C82.1408 85.5483 82.1368 85.5112 82.1535 85.4491C82.8102 82.959 84.3726 81.3929 86.9001 80.8052C87.1052 80.7927 87.3073 80.7487 87.499 80.6746" fill="#FE7490"/>
<path d="M103.195 80.676C103.422 80.7502 103.658 80.7977 103.896 80.8176C105.298 81.104 106.552 81.8786 107.436 83.0034C108.319 84.1283 108.775 85.5302 108.722 86.9597C108.666 87.2027 108.631 87.4499 108.616 87.6987C108.598 87.7154 108.571 87.7275 108.563 87.7496C108.103 89.0378 107.088 89.6857 105.855 90.0769C105.634 90.1474 105.401 90.1836 105.174 90.2357C105.197 90.2104 105.222 90.1865 105.248 90.1644C105.754 89.8021 106.173 89.3317 106.475 88.7874C106.777 88.2431 106.954 87.6384 106.993 87.0172C107.054 86.1729 106.863 85.3296 106.446 84.5933C106.028 83.857 105.402 83.2607 104.647 82.8793C103.851 82.4778 102.953 82.3292 102.071 82.4536C101.6 82.3828 101.139 82.2591 100.661 82.2323C99.872 82.1966 99.0817 82.2696 98.3125 82.4495C99.3572 81.6515 100.558 81.083 101.838 80.781C101.984 80.7776 102.127 80.7418 102.257 80.676H103.195Z" fill="#55D8F0"/>
<path d="M92.3471 91.0254C91.1854 91.8545 89.9516 92.5541 88.504 92.6862C87.2229 92.7958 85.9407 92.4883 84.8487 91.8096C83.7566 91.1309 82.9132 90.1174 82.4442 88.9202C82.2745 88.4843 82.1524 88.0314 82.08 87.5693C82.0719 87.5213 82.0863 87.462 82.0225 87.4384V86.034C82.0781 85.8836 82.1335 85.7333 82.1887 85.5829C82.4724 84.9088 82.9539 84.3365 83.5696 83.9417C83.6061 83.919 83.6452 83.9006 83.6846 83.8799C83.677 83.9757 83.6386 84.0665 83.5753 84.1388C83.0044 85.093 82.7766 86.2136 82.9298 87.315C83.0235 88.2316 83.3685 89.1045 83.9269 89.8373C84.4853 90.5702 85.2353 91.1346 86.0942 91.4681C86.8669 91.8152 87.7223 91.9355 88.5607 91.8151C89.2006 91.6968 89.8214 91.4922 90.4061 91.2066L90.4686 91.1865C90.8143 91.1988 91.1604 91.1859 91.5042 91.1477C91.781 91.0817 92.0632 91.0409 92.3474 91.0257" fill="#02C5F3"/>
<path d="M88.3341 83.2706C87.6365 83.2322 86.9423 83.3924 86.3321 83.7326C85.8896 83.9884 85.5095 84.3394 85.2195 84.7603C84.9295 85.1812 84.7368 85.6613 84.6554 86.1659C84.574 86.6705 84.6059 87.1869 84.7488 87.6777C84.8918 88.1684 85.1421 88.6212 85.4818 89.0031C85.6995 89.1971 85.9053 89.4041 86.098 89.623C86.4276 89.9024 86.7883 90.1428 87.173 90.3396C88.1728 90.8665 89.278 91.1625 90.4073 91.2058C89.8226 91.4915 89.2016 91.6962 88.5616 91.8143C87.7233 91.9352 86.8679 91.8155 86.0951 91.4691C85.2363 91.1354 84.4863 90.571 83.9279 89.8382C83.3695 89.1053 83.0244 88.2325 82.9307 87.3159C82.7768 86.214 83.0043 85.0926 83.5754 84.1377C83.6387 84.0654 83.6772 83.9746 83.685 83.8788C84.3443 83.4757 85.0833 83.2206 85.8509 83.1308C86.5892 83.0166 87.3418 83.0306 88.0754 83.1722C88.1661 83.1901 88.2662 83.1886 88.3343 83.2692" fill="#55D8F0"/>
<path d="M90.4072 91.2061C89.2784 91.1626 88.1737 90.8667 87.1744 90.3399C86.7898 90.1431 86.4291 89.9027 86.0996 89.6233C86.1685 89.6176 86.2376 89.6314 86.299 89.6633C87.523 90.3773 88.7114 90.2415 89.8949 89.5396C90.9156 88.8979 91.8818 88.1735 92.784 87.3737C93.0429 87.1559 93.2989 86.9353 93.5561 86.7161C93.9727 87.1108 94.3721 87.522 94.7543 87.9499C93.9962 88.6936 93.1876 89.384 92.3344 90.0163C91.7358 90.4415 91.1133 90.8321 90.47 91.1859L90.4078 91.2061" fill="#54CF74"/>
<path d="M95.3936 84.8463C96.2236 84.0381 97.1104 83.2905 98.0473 82.6091C98.1308 82.5487 98.2237 82.5021 98.312 82.4491C99.0811 82.2694 99.8713 82.1964 100.66 82.2322C101.139 82.259 101.6 82.3827 102.07 82.4534C102.07 82.4658 102.072 82.4782 102.073 82.4908C101.662 82.5618 101.265 82.697 100.895 82.8916C99.3114 83.6493 97.9878 84.7649 96.7226 85.9579C96.6673 86.0009 96.6312 86.0641 96.6222 86.1337C96.2002 85.7162 95.7741 85.3029 95.3936 84.8463Z" fill="#54CF74"/>
<path d="M102.075 82.49C102.075 82.4774 102.072 82.465 102.071 82.4526C102.953 82.3283 103.852 82.4769 104.647 82.8784C105.403 83.2597 106.029 83.8561 106.446 84.5924C106.864 85.3287 107.054 86.172 106.994 87.0163C106.954 87.6375 106.777 88.2421 106.476 88.7864C106.174 89.3308 105.754 89.8011 105.248 90.1634C105.222 90.1856 105.197 90.2094 105.174 90.2348C104.236 90.4283 103.265 90.4009 102.339 90.1548C102.787 90.1557 103.235 90.1021 103.67 89.9954C104.239 89.8276 104.755 89.5148 105.166 89.0877C105.577 88.6606 105.871 88.1338 106.017 87.5592C106.163 86.9845 106.158 86.3817 106.001 85.8098C105.844 85.2379 105.541 84.7167 105.122 84.2972C104.959 84.1355 104.834 83.9252 104.602 83.8398C104.601 83.8051 104.591 83.7714 104.573 83.7416C104.555 83.7118 104.53 83.687 104.5 83.6695C103.782 83.1124 102.956 82.7107 102.075 82.49Z" fill="#02C5F3"/>
<path d="M102.074 82.4919C102.956 82.7126 103.782 83.1143 104.5 83.6714C104.53 83.6889 104.555 83.7137 104.573 83.7435C104.59 83.7733 104.6 83.8071 104.602 83.8417C103.871 83.4208 103.102 83.1616 102.246 83.3311C101.67 83.4641 101.121 83.6941 100.623 84.0111C99.3783 84.7715 98.2268 85.675 97.1922 86.7032L96.6221 86.1339C96.631 86.0644 96.6671 86.0012 96.7225 85.9581C97.9882 84.7651 99.3115 83.6498 100.896 82.8918C101.266 82.6976 101.663 82.5626 102.074 82.4919Z" fill="#02C179"/>
<path d="M90.4681 91.1865C91.1114 90.8326 91.7338 90.442 92.3322 90.0166C93.1863 89.3844 93.9956 88.694 94.7544 87.9502C94.9744 88.1371 95.1741 88.3465 95.3505 88.575C94.506 89.3978 93.6015 90.1564 92.6443 90.8448C92.5747 90.8942 92.4982 90.9339 92.4248 90.978L92.3451 91.0274L92.3466 91.0246C92.0624 91.04 91.7803 91.0808 91.5034 91.1465C91.1596 91.1847 90.8135 91.1977 90.4678 91.1854" fill="#02C179"/>
<path d="M105.154 79.9552C105.048 79.9551 104.944 79.9261 104.853 79.8714C104.762 79.8166 104.688 79.7381 104.638 79.6443C103.743 77.9645 102.409 76.5596 100.777 75.5799C99.1453 74.6003 97.278 74.0827 95.3748 74.0827C93.4716 74.0827 91.6043 74.6003 89.9726 75.5799C88.3409 76.5596 87.0063 77.9645 86.1117 79.6443C86.0364 79.777 85.9122 79.8752 85.7655 79.9177C85.6189 79.9603 85.4615 79.9439 85.3268 79.872C85.192 79.8002 85.0907 79.6786 85.0443 79.5332C84.9979 79.3877 85.0101 79.2299 85.0784 79.0934C86.0729 77.2263 87.5564 75.6648 89.3701 74.5759C91.1838 73.4871 93.2594 72.9119 95.3748 72.9119C97.4902 72.9119 99.5659 73.4871 101.38 74.5759C103.193 75.6648 104.677 77.2263 105.671 79.0934C105.719 79.1825 105.742 79.2825 105.74 79.3835C105.737 79.4845 105.709 79.5831 105.657 79.6698C105.605 79.7565 105.531 79.8282 105.443 79.8781C105.355 79.9279 105.256 79.9542 105.155 79.9544" fill="#B7B7B7"/>
<mask id="mask0_2881_1370" style="mask-type:luminance" maskUnits="userSpaceOnUse" x="92" y="94" width="6" height="3">
<path d="M97.5992 94.6096H92.3955V96.4562H97.5992V94.6096Z" fill="white"/>
</mask>
<g mask="url(#mask0_2881_1370)">
<path d="M92.3955 96.1417C92.9274 94.9861 93.8025 94.3742 94.564 94.9381L94.7366 95.0802C95.2282 95.5632 95.7613 95.9251 96.3059 95.875C96.7374 95.8442 97.1579 95.5298 97.5357 95.0336L97.5992 95.1886C97.0049 96.4136 96.0599 96.7363 95.2507 96.2191C94.9653 96.0251 94.6967 95.8076 94.4475 95.5689C93.7763 95.0664 93.0572 95.52 92.464 96.2887L92.3955 96.1417Z" fill="black"/>
</g>
<mask id="mask1_2881_1370" style="mask-type:luminance" maskUnits="userSpaceOnUse" x="98" y="94" width="6" height="3">
<path d="M103.928 94.6096H98.7246V96.4562H103.928V94.6096Z" fill="white"/>
</mask>
<g mask="url(#mask1_2881_1370)">
<path d="M98.7246 96.1417C99.2565 94.9861 100.132 94.3742 100.893 94.9381L101.066 95.0802C101.557 95.5632 102.09 95.9251 102.635 95.875C103.066 95.8442 103.487 95.5298 103.865 95.0336L103.928 95.1886C103.334 96.4136 102.389 96.7363 101.58 96.2191C101.294 96.0251 101.026 95.8076 100.777 95.5689C100.105 95.0664 99.3863 95.52 98.7931 96.2887L98.7246 96.1417Z" fill="black"/>
</g>
<path d="M106.424 95.5393H108.725" stroke="black" stroke-width="0.66165" stroke-linecap="round"/>
<path d="M81.1621 101.379V97.3517H83.2851C83.5307 97.347 83.7734 97.4055 83.9899 97.5214C84.1903 97.6299 84.3581 97.7898 84.4761 97.9846C84.5971 98.188 84.6589 98.4211 84.6545 98.6577C84.6576 98.8879 84.5958 99.1142 84.4761 99.3108C84.3572 99.5044 84.1883 99.6625 83.9871 99.7682C83.7707 99.8816 83.5294 99.939 83.2851 99.935H82.1517V101.379H81.1621ZM82.1517 99.118H83.1701C83.234 99.121 83.2979 99.1114 83.3582 99.0897C83.4184 99.068 83.4737 99.0346 83.521 98.9914C83.5649 98.9491 83.5994 98.8981 83.6222 98.8416C83.645 98.7851 83.6556 98.7244 83.6534 98.6635C83.6558 98.6013 83.6453 98.5393 83.6225 98.4813C83.5997 98.4234 83.5652 98.3708 83.521 98.3269C83.4742 98.283 83.419 98.2489 83.3587 98.2266C83.2984 98.2044 83.2343 98.1945 83.1701 98.1975H82.1517V99.118ZM87.232 101.379V97.3517H89.2918C89.5468 97.3469 89.7993 97.4031 90.0282 97.5157C90.2349 97.6176 90.4092 97.775 90.5316 97.9702C90.6542 98.1699 90.717 98.4005 90.7129 98.6347C90.7162 98.8771 90.6438 99.1144 90.5058 99.3136C90.3686 99.5123 90.1795 99.6695 89.9592 99.7682L90.8395 101.379H89.7348L88.9753 99.912H88.2216V101.379H87.232ZM88.2216 99.1065H89.1997C89.335 99.1128 89.4676 99.0676 89.5708 98.9799C89.6169 98.939 89.6535 98.8883 89.6778 98.8317C89.7022 98.775 89.7138 98.7136 89.7118 98.652C89.7138 98.5903 89.7022 98.529 89.6778 98.4723C89.6535 98.4156 89.6169 98.365 89.5708 98.324C89.4676 98.2364 89.335 98.1911 89.1997 98.1975H88.2216V99.1065ZM92.974 101.379L94.6252 97.3517H95.7587L97.3869 101.379H96.3168L95.9485 100.407H94.3778L94.0039 101.379H92.974ZM94.677 99.6186H95.6551L95.1718 98.3298L94.677 99.6186ZM101.541 101.437C101.249 101.439 100.959 101.386 100.687 101.278C100.431 101.178 100.198 101.028 99.999 100.838C99.8041 100.651 99.6486 100.427 99.5416 100.18C99.4311 99.9225 99.3752 99.6452 99.3776 99.3654C99.3749 99.0837 99.4307 98.8045 99.5416 98.5455C99.6489 98.2971 99.8055 98.073 100.002 97.8868C100.202 97.6973 100.436 97.5479 100.692 97.4466C100.962 97.3398 101.251 97.286 101.541 97.2884C101.763 97.2884 101.984 97.3213 102.197 97.3862C102.407 97.4493 102.607 97.5413 102.792 97.6595C102.968 97.7706 103.123 97.9118 103.25 98.0766L102.582 98.7325C102.456 98.565 102.294 98.4275 102.108 98.3298C101.932 98.2412 101.738 98.1959 101.541 98.1975C101.386 98.1963 101.232 98.2266 101.089 98.2866C100.953 98.3437 100.829 98.4268 100.724 98.5312C100.619 98.6363 100.537 98.7616 100.482 98.8994C100.424 99.0477 100.394 99.2059 100.396 99.3654C100.394 99.5223 100.425 99.678 100.485 99.8228C100.543 99.9604 100.627 100.085 100.733 100.191C100.839 100.297 100.966 100.38 101.107 100.436C101.256 100.494 101.415 100.523 101.575 100.522C101.764 100.523 101.951 100.48 102.119 100.395C102.294 100.304 102.448 100.176 102.571 100.021L103.221 100.66C103.093 100.822 102.94 100.961 102.766 101.071C102.585 101.189 102.387 101.28 102.18 101.342C101.972 101.404 101.757 101.436 101.541 101.437ZM105.712 101.379V97.3517H106.702V98.8994H108.359V97.3517H109.348V101.379H108.359V99.8027H106.702V101.379H105.712Z" fill="black" stroke="black" stroke-width="0.0575348"/>
</g>
<rect width="53" height="12" transform="translate(119.158 81.189)" fill="#FFFCFC"/>
<path d="M121.361 86.2208H124.56V87.4169H121.361V86.2208ZM121.475 88.9548H125.091V90.189H119.946V83.5437H124.968V84.7778H121.475V88.9548ZM128.4 90.2649C127.919 90.2649 127.485 90.1573 127.099 89.9421C126.713 89.7206 126.406 89.4137 126.178 89.0213C125.957 88.6289 125.846 88.1669 125.846 87.6353C125.846 87.0973 125.957 86.6322 126.178 86.2398C126.406 85.8474 126.713 85.5436 127.099 85.3284C127.485 85.1132 127.919 85.0057 128.4 85.0057C128.83 85.0057 129.206 85.1006 129.529 85.2905C129.852 85.4803 130.102 85.7683 130.279 86.1543C130.456 86.5404 130.545 87.034 130.545 87.6353C130.545 88.2302 130.46 88.7238 130.289 89.1162C130.118 89.5023 129.871 89.7902 129.548 89.9801C129.232 90.17 128.849 90.2649 128.4 90.2649ZM128.656 89.0498C128.896 89.0498 129.115 88.9928 129.311 88.8789C129.507 88.765 129.662 88.6036 129.776 88.3947C129.896 88.1796 129.956 87.9264 129.956 87.6353C129.956 87.3378 129.896 87.0847 129.776 86.8758C129.662 86.667 129.507 86.5056 129.311 86.3917C129.115 86.2778 128.896 86.2208 128.656 86.2208C128.409 86.2208 128.188 86.2778 127.991 86.3917C127.795 86.5056 127.637 86.667 127.517 86.8758C127.403 87.0847 127.346 87.3378 127.346 87.6353C127.346 87.9264 127.403 88.1796 127.517 88.3947C127.637 88.6036 127.795 88.765 127.991 88.8789C128.188 88.9928 128.409 89.0498 128.656 89.0498ZM129.994 90.189V89.1447L130.023 87.6258L129.928 86.1164V83.145H131.409V90.189H129.994ZM134.958 90.2649C134.534 90.2649 134.155 90.1826 133.819 90.0181C133.49 89.8535 133.234 89.6035 133.05 89.2681C132.867 88.9264 132.775 88.4928 132.775 87.9675V85.0816H134.256V87.7492C134.256 88.1732 134.344 88.4865 134.522 88.689C134.705 88.8852 134.961 88.9833 135.291 88.9833C135.518 88.9833 135.721 88.9359 135.898 88.8409C136.075 88.7397 136.215 88.5878 136.316 88.3852C136.417 88.1764 136.468 87.9169 136.468 87.6068V85.0816H137.949V90.189H136.544V88.784L136.8 89.1922C136.629 89.5466 136.376 89.8156 136.041 89.9991C135.711 90.1763 135.351 90.2649 134.958 90.2649ZM140.223 90.189V84.7968H138.096V83.5437H143.887V84.7968H141.761V90.189H140.223ZM146.649 90.2649C146.067 90.2649 145.555 90.151 145.112 89.9232C144.675 89.6953 144.336 89.3852 144.096 88.9928C143.855 88.5941 143.735 88.1416 143.735 87.6353C143.735 87.1226 143.852 86.6701 144.086 86.2778C144.327 85.879 144.653 85.5689 145.064 85.3474C145.475 85.1196 145.941 85.0057 146.46 85.0057C146.96 85.0057 147.409 85.1132 147.808 85.3284C148.213 85.5373 148.532 85.8411 148.766 86.2398C149.001 86.6322 149.118 87.1037 149.118 87.6543C149.118 87.7112 149.115 87.7777 149.108 87.8536C149.102 87.9232 149.096 87.9897 149.089 88.053H144.941V87.1891H148.311L147.741 87.4454C147.741 87.1796 147.687 86.9486 147.58 86.7524C147.472 86.5562 147.323 86.4043 147.134 86.2967C146.944 86.1828 146.722 86.1259 146.469 86.1259C146.216 86.1259 145.991 86.1828 145.795 86.2967C145.605 86.4043 145.456 86.5594 145.349 86.7619C145.241 86.9581 145.187 87.1923 145.187 87.4644V87.6922C145.187 87.9707 145.248 88.2175 145.368 88.4327C145.494 88.6416 145.668 88.803 145.89 88.9169C146.118 89.0245 146.384 89.0783 146.687 89.0783C146.96 89.0783 147.197 89.0371 147.399 88.9548C147.608 88.8726 147.798 88.7492 147.969 88.5846L148.757 89.439C148.523 89.7048 148.228 89.9105 147.874 90.0561C147.52 90.1953 147.111 90.2649 146.649 90.2649ZM152.596 90.2649C152.045 90.2649 151.555 90.1542 151.124 89.9326C150.694 89.7048 150.355 89.3915 150.108 88.9928C149.868 88.5941 149.748 88.1416 149.748 87.6353C149.748 87.1226 149.868 86.6701 150.108 86.2778C150.355 85.879 150.694 85.5689 151.124 85.3474C151.555 85.1196 152.045 85.0057 152.596 85.0057C153.134 85.0057 153.602 85.1196 154.001 85.3474C154.399 85.5689 154.694 85.8885 154.883 86.3062L153.735 86.9233C153.602 86.6828 153.434 86.5056 153.232 86.3917C153.035 86.2778 152.82 86.2208 152.586 86.2208C152.333 86.2208 152.105 86.2778 151.903 86.3917C151.7 86.5056 151.539 86.667 151.418 86.8758C151.305 87.0847 151.248 87.3378 151.248 87.6353C151.248 87.9327 151.305 88.1859 151.418 88.3947C151.539 88.6036 151.7 88.765 151.903 88.8789C152.105 88.9928 152.333 89.0498 152.586 89.0498C152.82 89.0498 153.035 88.996 153.232 88.8884C153.434 88.7745 153.602 88.5941 153.735 88.3473L154.883 88.9738C154.694 89.3852 154.399 89.7048 154.001 89.9326C153.602 90.1542 153.134 90.2649 152.596 90.2649ZM158.836 85.0057C159.241 85.0057 159.602 85.0879 159.919 85.2525C160.241 85.4107 160.495 85.6575 160.678 85.993C160.862 86.3221 160.953 86.7461 160.953 87.265V90.189H159.472V87.4929C159.472 87.0815 159.381 86.7777 159.197 86.5815C159.02 86.3853 158.767 86.2872 158.438 86.2872C158.203 86.2872 157.991 86.3379 157.802 86.4391C157.618 86.5341 157.473 86.6828 157.365 86.8853C157.264 87.0878 157.213 87.3473 157.213 87.6638V90.189H155.732V83.145H157.213V86.4961L156.881 86.0689C157.064 85.7271 157.327 85.4645 157.669 85.281C158.01 85.0974 158.4 85.0057 158.836 85.0057Z" fill="#4A4B4C"/>
<path d="M161.551 90.189L164.512 83.5437H166.031L169.003 90.189H167.389L164.959 84.3221H165.566L163.126 90.189H161.551ZM163.031 88.765L163.44 87.5973H166.857L167.275 88.765H163.031ZM169.716 90.189V83.5437H171.254V90.189H169.716Z" fill="#19467E"/>
<path d="M186.767 82.0467C186.984 82.0471 187.201 82.0469 187.418 82.0465C190.52 82.0421 190.52 82.0421 191.343 82.6798C191.442 82.7455 191.442 82.7455 191.542 82.8125C192.055 83.2519 192.217 84.0391 192.267 84.6774C192.298 85.1881 192.292 85.701 192.292 86.2124C192.292 86.4121 192.293 86.6117 192.295 86.8113C192.301 88.9938 192.301 88.9938 191.636 89.8893C191.204 90.3111 190.695 90.6003 190.094 90.6782C189.973 90.6754 189.852 90.6694 189.731 90.6606C188.497 90.6092 187.849 90.9414 186.899 91.6688C186.546 91.9324 186.176 92.1682 185.782 92.3653C185.782 91.8086 185.782 91.2518 185.782 90.6782C185.658 90.6804 185.533 90.6825 185.405 90.6848C185.283 90.6861 185.161 90.6874 185.039 90.6885C184.913 90.6899 184.788 90.6922 184.663 90.6947C183.838 90.7009 183.254 90.5127 182.646 89.9479C182.189 89.4721 181.956 88.8549 181.952 88.198C181.951 88.0771 181.951 88.0771 181.95 87.9538C181.949 87.8668 181.949 87.7797 181.949 87.6927C181.949 87.6018 181.948 87.511 181.948 87.4201C181.947 87.2298 181.947 87.0396 181.947 86.8493C181.947 86.6083 181.945 86.3674 181.943 86.1265C181.942 85.9387 181.942 85.7509 181.942 85.563C181.941 85.4744 181.941 85.3857 181.94 85.2971C181.935 84.8117 181.969 84.3576 182.084 83.8869C182.094 83.8457 182.104 83.8045 182.115 83.7621C182.215 83.3907 182.387 83.1348 182.658 82.8672C182.696 82.8269 182.735 82.7867 182.775 82.7452C183.777 81.7819 185.49 82.0446 186.767 82.0467Z" fill="#0265FB"/>
<path d="M185.045 83.7258C185.093 83.7256 185.142 83.7253 185.192 83.7251C185.351 83.7246 185.51 83.7249 185.669 83.7253C185.78 83.7253 185.891 83.7251 186.003 83.725C186.236 83.7248 186.469 83.7251 186.702 83.7257C186.999 83.7264 187.296 83.726 187.594 83.7252C187.824 83.7248 188.054 83.7249 188.284 83.7252C188.393 83.7253 188.503 83.7252 188.612 83.7249C189.989 83.722 189.989 83.722 190.256 83.9535C190.779 84.5546 190.603 85.5955 190.602 86.3437C190.601 86.5346 190.602 86.7254 190.602 86.9162C190.602 87.0391 190.602 87.162 190.602 87.2849C190.602 87.3412 190.602 87.3975 190.602 87.4554C190.598 88.4942 190.598 88.4942 190.281 88.8659C190.075 89.0004 189.914 89.0025 189.671 88.9948C188.786 88.9843 188.18 89.0096 187.501 89.5994C187.361 89.717 187.207 89.8097 187.051 89.9048C186.736 90.103 186.429 90.3112 186.122 90.5216C185.97 90.6156 185.97 90.6156 185.845 90.6156C185.814 89.8423 185.814 89.8423 185.782 89.0534C185.664 89.0518 185.546 89.0502 185.424 89.0485C185.269 89.045 185.113 89.0414 184.958 89.0378C184.88 89.0369 184.802 89.036 184.722 89.0351C184.647 89.0331 184.572 89.0311 184.494 89.029C184.425 89.0277 184.356 89.0264 184.285 89.025C184.05 88.9829 183.949 88.9107 183.782 88.741C183.66 88.4969 183.641 88.2926 183.637 88.0214C183.636 87.9403 183.635 87.8591 183.634 87.7755C183.633 87.6874 183.633 87.5993 183.632 87.5112C183.632 87.4666 183.631 87.4219 183.631 87.3759C183.629 87.1396 183.628 86.9033 183.627 86.6669C183.627 86.4237 183.624 86.1805 183.62 85.9373C183.618 85.7494 183.617 85.5616 183.617 85.3737C183.617 85.2841 183.616 85.1944 183.614 85.1048C183.6 84.2674 183.6 84.2674 183.903 83.942C184.254 83.7386 184.649 83.7235 185.045 83.7258Z" fill="#F9FCFD"/>
<path d="M184.783 85.8042C185.129 85.833 185.454 85.9565 185.782 86.0656C186.784 86.3904 187.809 86.2898 188.778 85.9136C189.032 85.816 189.202 85.7754 189.469 85.8667C189.617 86.0145 189.549 86.3753 189.551 86.5736C189.554 86.6639 189.554 86.6639 189.557 86.756C189.561 87.1944 189.561 87.1944 189.437 87.3959C189.228 87.5246 189.018 87.6086 188.786 87.6866C188.739 87.7028 188.691 87.719 188.643 87.7356C188.235 87.8701 187.835 87.9552 187.407 87.9913C187.351 87.9971 187.295 88.003 187.237 88.0091C186.37 88.0568 185.419 87.7692 184.658 87.3664C184.654 87.1295 184.652 86.8925 184.65 86.6556C184.649 86.5881 184.648 86.5206 184.647 86.451C184.646 86.3866 184.646 86.3222 184.646 86.2558C184.645 86.1962 184.644 86.1367 184.644 86.0753C184.658 85.9292 184.658 85.9292 184.783 85.8042Z" fill="#0365FB"/>
<path d="M200.108 90.689L199.465 88.864H196.953L196.31 90.689H195.173L197.618 84.0904H198.814L201.254 90.689H200.108ZM199.187 87.9381L198.562 86.1401C198.538 86.0622 198.504 85.9528 198.459 85.812C198.414 85.6682 198.369 85.5228 198.324 85.376C198.279 85.2262 198.241 85.1003 198.211 84.9984C198.181 85.1213 198.144 85.2591 198.099 85.4119C198.057 85.5618 198.015 85.7026 197.973 85.8345C197.934 85.9663 197.904 86.0682 197.883 86.1401L197.254 87.9381H199.187ZM202.145 90.689V84.1174H203.224V90.689H202.145ZM210.196 84.94C209.882 84.94 209.6 84.9969 209.351 85.1108C209.106 85.2247 208.897 85.3895 208.727 85.6052C208.556 85.818 208.425 86.0772 208.336 86.3828C208.246 86.6855 208.201 87.0271 208.201 87.4077C208.201 87.9171 208.273 88.3561 208.416 88.7247C208.56 89.0903 208.779 89.372 209.073 89.5697C209.366 89.7645 209.738 89.8619 210.187 89.8619C210.466 89.8619 210.737 89.8349 211.001 89.781C211.265 89.7271 211.537 89.6536 211.819 89.5607V90.4777C211.552 90.5826 211.283 90.659 211.01 90.7069C210.737 90.7549 210.423 90.7789 210.066 90.7789C209.395 90.7789 208.837 90.6395 208.394 90.3608C207.953 90.0822 207.624 89.6896 207.405 89.1832C207.189 88.6767 207.081 88.0834 207.081 87.4032C207.081 86.9058 207.15 86.4503 207.288 86.0367C207.426 85.6232 207.627 85.2666 207.891 84.967C208.154 84.6643 208.479 84.4321 208.866 84.2702C209.256 84.1054 209.701 84.023 210.201 84.023C210.531 84.023 210.854 84.0605 211.172 84.1354C211.492 84.2073 211.789 84.3107 212.062 84.4455L211.684 85.3355C211.457 85.2277 211.218 85.1348 210.97 85.0569C210.721 84.9789 210.463 84.94 210.196 84.94ZM214.202 83.6949V85.4524C214.202 85.6352 214.196 85.8135 214.184 85.9873C214.175 86.1611 214.164 86.2959 214.152 86.3918H214.211C214.316 86.218 214.445 86.0757 214.597 85.9648C214.75 85.8509 214.921 85.7655 215.11 85.7086C215.302 85.6517 215.505 85.6232 215.721 85.6232C216.102 85.6232 216.425 85.6876 216.692 85.8165C216.959 85.9423 217.163 86.1386 217.303 86.4053C217.447 86.672 217.519 87.0181 217.519 87.4436V90.689H216.463V87.6414C216.463 87.2549 216.383 86.9657 216.225 86.7739C216.066 86.5791 215.82 86.4817 215.487 86.4817C215.167 86.4817 214.912 86.5492 214.723 86.684C214.538 86.8159 214.404 87.0121 214.323 87.2728C214.242 87.5305 214.202 87.8452 214.202 88.2168V90.689H213.146V83.6949H214.202ZM220.972 85.6187C221.601 85.6187 222.076 85.7581 222.397 86.0367C222.72 86.3154 222.882 86.7499 222.882 87.3403V90.689H222.131L221.929 89.9833H221.893C221.752 90.1631 221.607 90.3114 221.457 90.4283C221.307 90.5451 221.134 90.632 220.936 90.689C220.741 90.7489 220.503 90.7789 220.221 90.7789C219.924 90.7789 219.659 90.7249 219.426 90.617C219.192 90.5062 219.008 90.3384 218.873 90.1136C218.738 89.8889 218.67 89.6042 218.67 89.2596C218.67 88.7472 218.861 88.3621 219.241 88.1044C219.625 87.8467 220.203 87.7043 220.976 87.6774L221.839 87.6459V87.3852C221.839 87.0406 221.758 86.7949 221.597 86.648C221.438 86.5012 221.213 86.4278 220.922 86.4278C220.674 86.4278 220.432 86.4638 220.199 86.5357C219.965 86.6076 219.737 86.696 219.515 86.8009L219.174 86.0547C219.417 85.9259 219.692 85.821 220.001 85.7401C220.313 85.6592 220.636 85.6187 220.972 85.6187ZM221.835 88.3112L221.192 88.3336C220.665 88.3516 220.295 88.4415 220.082 88.6033C219.869 88.7651 219.763 88.9869 219.763 89.2686C219.763 89.5143 219.836 89.6941 219.983 89.808C220.13 89.9188 220.323 89.9743 220.563 89.9743C220.928 89.9743 221.231 89.8709 221.471 89.6641C221.713 89.4544 221.835 89.1472 221.835 88.7427V88.3112ZM226.236 89.9248C226.374 89.9248 226.51 89.9128 226.645 89.8889C226.78 89.8619 226.903 89.8304 227.013 89.7945V90.5946C226.897 90.6455 226.745 90.689 226.56 90.7249C226.374 90.7609 226.18 90.7789 225.98 90.7789C225.698 90.7789 225.445 90.7324 225.22 90.6395C224.995 90.5436 224.817 90.3803 224.685 90.1496C224.553 89.9188 224.487 89.5997 224.487 89.1922V86.5177H223.809V86.0457L224.537 85.6727L224.883 84.6074H225.548V85.7131H226.973V86.5177H225.548V89.1787C225.548 89.4304 225.611 89.6177 225.737 89.7405C225.863 89.8634 226.029 89.9248 226.236 89.9248ZM229.104 83.6949V85.3805C229.104 85.5753 229.098 85.767 229.086 85.9558C229.077 86.1416 229.068 86.287 229.059 86.3918H229.104C229.239 86.1761 229.426 85.9948 229.666 85.848C229.909 85.6981 230.219 85.6232 230.596 85.6232C231.187 85.6232 231.662 85.8405 232.021 86.275C232.381 86.7065 232.561 87.3463 232.561 88.1943C232.561 88.7577 232.478 89.2311 232.314 89.6147C232.149 89.9982 231.916 90.2889 231.617 90.4867C231.32 90.6815 230.971 90.7789 230.57 90.7789C230.192 90.7789 229.886 90.7099 229.653 90.5721C229.422 90.4313 229.241 90.2679 229.109 90.0822H229.032L228.839 90.689H228.048V83.6949H229.104ZM230.318 86.4817C230.018 86.4817 229.78 86.5417 229.603 86.6615C229.429 86.7814 229.303 86.9612 229.226 87.2009C229.148 87.4377 229.107 87.7388 229.104 88.1044V88.1988C229.104 88.7532 229.191 89.1772 229.365 89.4708C229.542 89.7645 229.862 89.9113 230.327 89.9113C230.695 89.9113 230.979 89.763 231.176 89.4664C231.374 89.1667 231.473 88.7382 231.473 88.1808C231.473 87.6174 231.374 87.1934 231.176 86.9088C230.982 86.6241 230.695 86.4817 230.318 86.4817ZM238.211 88.1898C238.211 88.6033 238.157 88.9704 238.05 89.291C237.942 89.6117 237.784 89.8829 237.578 90.1046C237.371 90.3234 237.122 90.4912 236.831 90.6081C236.541 90.7219 236.213 90.7789 235.847 90.7789C235.505 90.7789 235.192 90.7219 234.908 90.6081C234.623 90.4912 234.376 90.3234 234.166 90.1046C233.959 89.8829 233.799 89.6117 233.685 89.291C233.571 88.9704 233.514 88.6033 233.514 88.1898C233.514 87.6414 233.609 87.1769 233.797 86.7964C233.989 86.4128 234.262 86.1206 234.615 85.9199C234.969 85.7191 235.39 85.6187 235.879 85.6187C236.337 85.6187 236.742 85.7191 237.092 85.9199C237.443 86.1206 237.717 86.4128 237.915 86.7964C238.112 87.1799 238.211 87.6444 238.211 88.1898ZM234.602 88.1898C234.602 88.5524 234.645 88.8625 234.732 89.1202C234.822 89.378 234.96 89.5757 235.146 89.7136C235.332 89.8484 235.571 89.9158 235.865 89.9158C236.159 89.9158 236.398 89.8484 236.584 89.7136C236.77 89.5757 236.906 89.378 236.993 89.1202C237.08 88.8625 237.124 88.5524 237.124 88.1898C237.124 87.8272 237.08 87.5201 236.993 87.2683C236.906 87.0136 236.77 86.8204 236.584 86.6885C236.398 86.5537 236.157 86.4862 235.861 86.4862C235.423 86.4862 235.104 86.6331 234.903 86.9267C234.702 87.2204 234.602 87.6414 234.602 88.1898ZM241.3 89.9248C241.438 89.9248 241.574 89.9128 241.709 89.8889C241.844 89.8619 241.967 89.8304 242.078 89.7945V90.5946C241.961 90.6455 241.809 90.689 241.624 90.7249C241.438 90.7609 241.244 90.7789 241.044 90.7789C240.762 90.7789 240.509 90.7324 240.284 90.6395C240.059 90.5436 239.881 90.3803 239.749 90.1496C239.617 89.9188 239.551 89.5997 239.551 89.1922V86.5177H238.873V86.0457L239.601 85.6727L239.947 84.6074H240.612V85.7131H242.037V86.5177H240.612V89.1787C240.612 89.4304 240.675 89.6177 240.801 89.7405C240.927 89.8634 241.093 89.9248 241.3 89.9248Z" fill="black"/>
<g filter="url(#filter1_d_2881_1370)">
<path d="M279.2 74.2648C279.465 74.3729 279.632 74.6093 279.773 74.9278C279.834 75.3066 279.827 75.6752 279.822 76.0621C279.822 76.1754 279.822 76.2887 279.822 76.4054C279.822 76.779 279.818 77.1525 279.815 77.5261C279.814 77.7854 279.813 78.0448 279.813 78.3042C279.812 78.9165 279.808 79.5288 279.804 80.1411C279.799 80.8385 279.797 81.5359 279.794 82.2333C279.79 83.6673 279.782 85.1012 279.773 86.5352C279.725 86.5352 279.678 86.5352 279.629 86.5352C279.629 86.6684 279.629 86.8017 279.629 86.9389C279.437 87.0284 279.301 87.0652 279.102 87.0777C279.049 87.0827 278.996 87.0876 278.941 87.0927C278.673 87.0124 278.493 86.8405 278.333 86.5352C278.268 86.165 278.274 85.8017 278.277 85.422C278.276 85.3097 278.275 85.1974 278.274 85.0816C278.273 84.7104 278.274 84.3393 278.275 83.9681C278.275 83.71 278.275 83.4519 278.274 83.1939C278.273 82.653 278.274 82.1121 278.276 81.5712C278.279 80.9467 278.278 80.3224 278.276 79.6979C278.273 79.0962 278.274 78.4945 278.275 77.8928C278.275 77.6372 278.275 77.3816 278.274 77.126C278.273 76.7686 278.274 76.4115 278.277 76.0541C278.276 75.9485 278.275 75.8429 278.274 75.7342C278.28 75.2497 278.291 74.9228 278.534 74.5593C278.78 74.306 278.901 74.2277 279.2 74.2648Z" fill="#07E287"/>
</g>
<g filter="url(#filter2_d_2881_1370)">
<path d="M282.092 76.9414C282.356 77.0043 282.523 77.142 282.664 77.3275C282.725 77.5481 282.719 77.7628 282.713 77.9881C282.713 78.0541 282.713 78.1201 282.714 78.1881C282.713 78.4057 282.71 78.6232 282.706 78.8408C282.706 78.9918 282.705 79.1429 282.705 79.294C282.703 79.6506 282.7 80.0072 282.695 80.3638C282.691 80.77 282.688 81.1762 282.686 81.5823C282.682 82.4175 282.674 83.2527 282.664 84.0878C282.617 84.0878 282.569 84.0878 282.52 84.0878C282.52 84.1654 282.52 84.243 282.52 84.323C282.329 84.3751 282.193 84.3965 281.994 84.4038C281.941 84.4067 281.887 84.4096 281.833 84.4125C281.565 84.3658 281.384 84.2656 281.224 84.0878C281.159 83.8722 281.165 83.6606 281.168 83.4395C281.168 83.3741 281.167 83.3087 281.166 83.2413C281.164 83.025 281.165 82.8089 281.167 82.5927C281.167 82.4424 281.166 82.2921 281.166 82.1418C281.165 81.8268 281.166 81.5117 281.168 81.1967C281.17 80.833 281.17 80.4694 281.167 80.1057C281.165 79.7552 281.165 79.4048 281.166 79.0543C281.167 78.9055 281.166 78.7566 281.165 78.6078C281.164 78.3996 281.166 78.1916 281.168 77.9834C281.167 77.922 281.167 77.8605 281.166 77.7971C281.172 77.515 281.183 77.3246 281.426 77.1129C281.672 76.9653 281.793 76.9197 282.092 76.9414Z" fill="#07E287"/>
</g>
<g filter="url(#filter3_d_2881_1370)">
<path d="M284.983 75.8142C285.248 75.8962 285.415 76.0754 285.556 76.3169C285.617 76.6041 285.611 76.8836 285.605 77.177C285.605 77.2629 285.605 77.3488 285.605 77.4373C285.605 77.7206 285.601 78.0038 285.598 78.287C285.597 78.4837 285.597 78.6804 285.596 78.877C285.595 79.3414 285.591 79.8056 285.587 80.2699C285.582 80.7987 285.58 81.3275 285.578 81.8563C285.573 82.9436 285.566 84.0309 285.556 85.1181C285.508 85.1181 285.461 85.1181 285.412 85.1181C285.412 85.2192 285.412 85.3202 285.412 85.4243C285.22 85.4921 285.084 85.52 284.885 85.5295C284.832 85.5332 284.779 85.537 284.724 85.5409C284.456 85.48 284.276 85.3496 284.116 85.1181C284.051 84.8374 284.057 84.562 284.06 84.2741C284.059 84.1889 284.058 84.1037 284.058 84.016C284.056 83.7345 284.057 83.4531 284.058 83.1716C284.058 82.976 284.058 82.7803 284.057 82.5846C284.057 82.1745 284.057 81.7644 284.06 81.3542C284.062 80.8807 284.061 80.4073 284.059 79.9338C284.057 79.4776 284.057 79.0213 284.058 78.5651C284.058 78.3713 284.058 78.1775 284.057 77.9837C284.056 77.7127 284.058 77.4419 284.06 77.1709C284.059 77.0909 284.058 77.0108 284.057 76.9283C284.063 76.561 284.074 76.3132 284.317 76.0375C284.564 75.8454 284.685 75.7861 284.983 75.8142Z" fill="#07E287"/>
</g>
<g filter="url(#filter4_d_2881_1370)">
<path d="M288.023 78.5859C288.229 78.7309 288.357 78.8434 288.407 79.0971C288.418 79.2959 288.417 79.4917 288.413 79.6907C288.412 79.7633 288.412 79.8359 288.412 79.9107C288.41 80.1421 288.406 80.3735 288.402 80.6049C288.401 80.7612 288.4 80.9175 288.399 81.0738C288.397 81.3595 288.394 81.6451 288.389 81.9308C288.389 81.9882 288.388 82.0455 288.387 82.1046C288.376 82.2535 288.376 82.2535 288.305 82.4651C288.236 82.5 288.236 82.5 288.164 82.5357C288.141 82.6055 288.118 82.6753 288.094 82.7472C287.537 82.8478 287.537 82.8478 287.252 82.7384C287.043 82.5486 286.975 82.3782 286.953 82.0948C286.948 81.896 286.948 81.6977 286.949 81.4989C286.949 81.4262 286.949 81.3534 286.949 81.2785C286.949 81.1251 286.95 80.9717 286.951 80.8184C286.952 80.583 286.952 80.3475 286.952 80.1121C286.953 79.9631 286.953 79.8141 286.953 79.6651C286.954 79.5944 286.954 79.5238 286.954 79.4509C286.954 79.3857 286.955 79.3205 286.955 79.2533C286.955 79.167 286.955 79.167 286.956 79.079C286.965 78.9386 286.965 78.9386 287.036 78.7975C287.082 78.7975 287.129 78.7975 287.177 78.7975C287.177 78.751 287.177 78.7044 287.177 78.6565C287.483 78.499 287.692 78.4972 288.023 78.5859Z" fill="#0DE48B"/>
</g>
<g filter="url(#filter5_d_2881_1370)">
<path d="M290.842 79.268C291.049 79.3657 291.179 79.4414 291.229 79.6122C291.24 79.7461 291.239 79.8779 291.235 80.0119C291.235 80.0608 291.234 80.1097 291.234 80.16C291.232 80.3159 291.228 80.4716 291.224 80.6274C291.223 80.7327 291.222 80.8379 291.221 80.9432C291.219 81.1355 291.216 81.3279 291.211 81.5202C291.21 81.5588 291.21 81.5975 291.209 81.6373C291.198 81.7375 291.198 81.7375 291.126 81.88C291.056 81.9035 291.056 81.9035 290.984 81.9275C290.961 81.9745 290.937 82.0215 290.913 82.07C290.352 82.1377 290.352 82.1377 290.063 82.064C289.852 81.9362 289.784 81.8214 289.761 81.6307C289.756 81.4968 289.756 81.3633 289.758 81.2294C289.758 81.1804 289.758 81.1315 289.758 81.081C289.758 80.9777 289.758 80.8745 289.759 80.7712C289.761 80.6127 289.761 80.4542 289.761 80.2957C289.761 80.1953 289.762 80.095 289.762 79.9947C289.762 79.9471 289.762 79.8995 289.762 79.8505C289.763 79.8066 289.763 79.7626 289.764 79.7174C289.764 79.6593 289.764 79.6593 289.765 79.6001C289.774 79.5055 289.774 79.5055 289.845 79.4105C289.892 79.4105 289.939 79.4105 289.988 79.4105C289.988 79.3792 289.988 79.3478 289.988 79.3155C290.296 79.2095 290.507 79.2083 290.842 79.268Z" fill="#0DE48B"/>
</g>
<g filter="url(#filter6_d_2881_1370)">
<path d="M293.732 80.1001C293.899 80.2279 293.942 80.2903 293.974 80.496C293.992 80.8221 293.989 80.9468 293.771 81.2065C293.488 81.3663 293.355 81.4003 293.035 81.3432C292.793 81.2021 292.793 81.2021 292.612 80.9905C292.541 80.7038 292.585 80.4856 292.705 80.2191C292.961 79.906 293.391 79.9371 293.732 80.1001Z" fill="#0CE78F"/>
</g>
<path d="M296.526 80.1028C296.676 80.2174 296.676 80.2174 296.746 80.3584C296.756 80.4907 296.756 80.4907 296.755 80.6406C296.756 80.7148 296.756 80.7148 296.756 80.7904C296.746 80.9227 296.746 80.9227 296.676 81.0637C296.629 81.0637 296.583 81.0637 296.535 81.0637C296.535 81.1103 296.535 81.1568 296.535 81.2048C296.323 81.3457 296.279 81.3653 296.041 81.3635C295.969 81.364 295.969 81.364 295.896 81.3646C295.759 81.3459 295.759 81.3459 295.547 81.2048C295.547 81.1583 295.547 81.1117 295.547 81.0637C295.501 81.0637 295.454 81.0637 295.406 81.0637C295.297 80.8451 295.315 80.6703 295.336 80.429C295.618 79.9808 296.039 79.8698 296.526 80.1028Z" fill="#0EE68D"/>
<g filter="url(#filter7_d_2881_1370)">
<path d="M254.107 80.1145C254.274 80.2423 254.317 80.3047 254.349 80.5104C254.367 80.8365 254.364 80.9612 254.146 81.2209C253.863 81.3807 253.73 81.4147 253.41 81.3576C253.168 81.2165 253.168 81.2165 252.987 81.0049C252.916 80.7182 252.96 80.5 253.08 80.2335C253.336 79.9204 253.766 79.9515 254.107 80.1145Z" fill="#0CE78F"/>
</g>
<g filter="url(#filter8_d_2881_1370)">
<path d="M256.902 80.1172C257.052 80.2318 257.052 80.2318 257.122 80.3728C257.132 80.5051 257.132 80.5051 257.131 80.655C257.132 80.7292 257.132 80.7292 257.132 80.8048C257.122 80.9371 257.122 80.9371 257.052 81.0782C257.005 81.0782 256.959 81.0782 256.911 81.0782C256.911 81.1247 256.911 81.1713 256.911 81.2192C256.699 81.3602 256.655 81.3797 256.417 81.3779C256.345 81.3785 256.345 81.3785 256.272 81.379C256.135 81.3603 256.135 81.3603 255.923 81.2192C255.923 81.1727 255.923 81.1261 255.923 81.0782C255.877 81.0782 255.83 81.0782 255.782 81.0782C255.673 80.8595 255.691 80.6847 255.712 80.4434C255.994 79.9952 256.415 79.8842 256.902 80.1172Z" fill="#0EE68D"/>
</g>
<g filter="url(#filter9_d_2881_1370)">
<path d="M259.556 79.2827C259.763 79.3803 259.893 79.4561 259.943 79.6269C259.954 79.7607 259.953 79.8926 259.949 80.0266C259.948 80.0754 259.948 80.1243 259.948 80.1747C259.946 80.3305 259.942 80.4863 259.938 80.6421C259.937 80.7473 259.936 80.8526 259.935 80.9578C259.933 81.1502 259.93 81.3425 259.925 81.5349C259.924 81.5735 259.923 81.6121 259.922 81.6519C259.911 81.7522 259.911 81.7522 259.84 81.8946C259.77 81.9181 259.77 81.9181 259.698 81.9421C259.674 81.9891 259.651 82.0362 259.627 82.0846C259.065 82.1523 259.065 82.1523 258.777 82.0787C258.566 81.9508 258.498 81.8361 258.475 81.6453C258.47 81.5115 258.47 81.378 258.471 81.2441C258.472 81.1951 258.472 81.1461 258.472 81.0956C258.472 80.9924 258.472 80.8891 258.473 80.7859C258.475 80.6273 258.475 80.4688 258.475 80.3103C258.475 80.21 258.475 80.1097 258.476 80.0093C258.476 79.9617 258.476 79.9142 258.476 79.8651C258.477 79.8212 258.477 79.7773 258.478 79.7321C258.478 79.674 258.478 79.674 258.478 79.6147C258.488 79.5201 258.488 79.5201 258.559 79.4252C258.606 79.4252 258.653 79.4252 258.701 79.4252C258.701 79.3938 258.701 79.3625 258.701 79.3302C259.01 79.2242 259.221 79.223 259.556 79.2827Z" fill="#0DE48B"/>
</g>
<g filter="url(#filter10_d_2881_1370)">
<path d="M262.368 78.6003C262.574 78.7453 262.702 78.8578 262.752 79.1115C262.763 79.3103 262.762 79.5061 262.758 79.7051C262.757 79.7777 262.757 79.8503 262.757 79.9251C262.755 80.1565 262.751 80.3879 262.747 80.6193C262.746 80.7756 262.745 80.9319 262.744 81.0882C262.742 81.3739 262.739 81.6596 262.734 81.9452C262.733 82.0026 262.732 82.0599 262.731 82.119C262.721 82.2679 262.721 82.2679 262.65 82.4795C262.58 82.5144 262.58 82.5144 262.509 82.5501C262.486 82.6199 262.462 82.6897 262.438 82.7616C261.882 82.8622 261.882 82.8622 261.597 82.7528C261.388 82.563 261.32 82.3926 261.297 82.1092C261.292 81.9104 261.292 81.7122 261.294 81.5133C261.294 81.4406 261.294 81.3678 261.294 81.2929C261.294 81.1395 261.295 80.9861 261.295 80.8328C261.297 80.5974 261.297 80.362 261.297 80.1265C261.297 79.9775 261.298 79.8285 261.298 79.6795C261.298 79.6088 261.298 79.5382 261.298 79.4653C261.299 79.4001 261.299 79.3349 261.3 79.2677C261.3 79.1814 261.3 79.1814 261.301 79.0934C261.31 78.953 261.31 78.953 261.381 78.8119C261.427 78.8119 261.474 78.8119 261.522 78.8119C261.522 78.7654 261.522 78.7188 261.522 78.6709C261.827 78.5134 262.037 78.5116 262.368 78.6003Z" fill="#0DE48B"/>
</g>
<g filter="url(#filter11_d_2881_1370)">
<path d="M265.008 76.2097C265.268 76.2852 265.431 76.4504 265.569 76.673C265.629 76.9377 265.623 77.1953 265.617 77.4656C265.617 77.5448 265.617 77.6239 265.617 77.7055C265.617 77.9666 265.614 78.2275 265.611 78.4886C265.61 78.6698 265.609 78.8511 265.609 79.0323C265.607 79.4602 265.604 79.8881 265.6 80.316C265.595 80.8033 265.593 81.2906 265.591 81.7779C265.586 82.78 265.579 83.782 265.569 84.784C265.523 84.784 265.476 84.784 265.428 84.784C265.428 84.8771 265.428 84.9702 265.428 85.0661C265.241 85.1287 265.107 85.1544 264.912 85.1631C264.86 85.1666 264.808 85.17 264.755 85.1736C264.492 85.1175 264.315 84.9973 264.159 84.784C264.095 84.5253 264.101 84.2715 264.104 84.0061C264.103 83.9276 264.102 83.8492 264.102 83.7683C264.1 83.5089 264.101 83.2496 264.102 82.9902C264.102 82.8098 264.102 82.6295 264.101 82.4492C264.101 82.0712 264.101 81.6932 264.103 81.3152C264.106 80.8789 264.105 80.4426 264.103 80.0062C264.101 79.5858 264.101 79.1653 264.102 78.7449C264.102 78.5663 264.102 78.3877 264.101 78.2091C264.1 77.9593 264.101 77.7097 264.104 77.46C264.103 77.3862 264.102 77.3125 264.101 77.2365C264.107 76.8979 264.118 76.6695 264.356 76.4155C264.597 76.2385 264.716 76.1838 265.008 76.2097Z" fill="#07E287"/>
</g>
<g filter="url(#filter12_d_2881_1370)">
<path d="M267.669 77.494C267.72 77.4916 267.771 77.4893 267.823 77.4868C268.089 77.5678 268.254 77.7386 268.414 77.9612C268.455 78.1681 268.469 78.3154 268.462 78.5208C268.463 78.5752 268.463 78.6296 268.463 78.6856C268.462 78.8643 268.459 79.0428 268.456 79.2214C268.455 79.3457 268.454 79.4701 268.454 79.5944C268.452 79.9207 268.448 80.2469 268.444 80.5732C268.439 80.9065 268.437 81.2399 268.435 81.5732C268.431 82.2266 268.423 82.8799 268.414 83.5332C268.345 83.5332 268.275 83.5332 268.203 83.5332C268.193 83.5783 268.182 83.6234 268.172 83.6698C268.132 83.8153 268.132 83.8153 268.062 83.8858C267.931 83.8909 267.8 83.8917 267.669 83.8902C267.562 83.8893 267.562 83.8893 267.453 83.8883C267.398 83.8875 267.343 83.8867 267.286 83.8858C267.286 83.8393 267.286 83.7927 267.286 83.7448C267.193 83.6982 267.1 83.6517 267.004 83.6037C266.996 82.8545 266.989 82.1053 266.986 81.3561C266.984 81.0082 266.981 80.6603 266.977 80.3125C266.973 79.9768 266.971 79.6411 266.97 79.3055C266.97 79.1773 266.968 79.0492 266.967 78.9211C266.964 78.7417 266.964 78.5625 266.964 78.3831C266.963 78.3301 266.961 78.277 266.96 78.2223C266.963 77.9522 266.981 77.8434 267.173 77.6466C267.357 77.5377 267.458 77.4962 267.669 77.494Z" fill="#01E380"/>
</g>
<g filter="url(#filter13_d_2881_1370)">
<path d="M270.747 74.2748C270.974 74.3705 271.108 74.491 271.241 74.698C271.317 75.0799 271.308 75.4601 271.304 75.8476C271.304 75.9659 271.305 76.0842 271.306 76.2025C271.308 76.5233 271.307 76.844 271.305 77.1647C271.303 77.5005 271.304 77.8363 271.305 78.1721C271.306 78.7359 271.304 79.2997 271.301 79.8635C271.298 80.5152 271.299 81.167 271.301 81.8188C271.303 82.4459 271.302 83.0731 271.3 83.7003C271.3 83.9671 271.3 84.2339 271.301 84.5008C271.302 84.815 271.301 85.1291 271.298 85.4433C271.297 85.5586 271.297 85.6739 271.298 85.7892C271.299 85.9467 271.297 86.1039 271.295 86.2613C271.295 86.3934 271.295 86.3934 271.294 86.5282C271.219 86.8549 271.096 86.9293 270.818 87.1114C270.543 87.1399 270.306 87.1252 270.042 87.0409C270.042 86.9943 270.042 86.9478 270.042 86.8998C269.995 86.8998 269.949 86.8998 269.901 86.8998C269.799 86.6953 269.821 86.5175 269.82 86.289C269.82 86.2401 269.82 86.1913 269.82 86.141C269.819 85.9765 269.819 85.8121 269.819 85.6477C269.819 85.5301 269.818 85.4125 269.818 85.2949C269.817 84.9749 269.817 84.6549 269.816 84.3349C269.816 84.1351 269.816 83.9352 269.815 83.7354C269.814 83.1104 269.814 82.4855 269.814 81.8605C269.813 81.1386 269.812 80.4167 269.81 79.6947C269.808 79.1371 269.808 78.5794 269.808 78.0217C269.808 77.6885 269.807 77.3553 269.806 77.022C269.805 76.7086 269.805 76.3951 269.805 76.0816C269.805 75.9665 269.805 75.8515 269.804 75.7364C269.803 75.5793 269.804 75.4223 269.804 75.2652C269.804 75.1773 269.804 75.0894 269.804 74.9988C269.833 74.7466 269.889 74.6165 270.042 74.4159C270.31 74.237 270.429 74.2324 270.747 74.2748Z" fill="#07E179"/>
</g>
<g filter="url(#filter14_d_2881_1370)">
<path d="M275.92 72.8602C275.92 72.9067 275.92 72.9533 275.92 73.0013C275.967 73.0013 276.013 73.0013 276.061 73.0013C276.061 73.0478 276.061 73.0944 276.061 73.1423C276.129 73.1707 276.129 73.1707 276.198 73.1996C276.344 73.2834 276.344 73.2834 276.414 73.495C276.461 73.495 276.507 73.495 276.555 73.495C276.555 73.5415 276.555 73.5881 276.555 73.636C276.602 73.636 276.648 73.636 276.696 73.636C276.869 74.042 276.939 74.3624 276.935 74.8013C276.935 74.888 276.935 74.888 276.936 74.9765C276.936 75.1689 276.936 75.3613 276.935 75.5536C276.935 75.6921 276.936 75.8306 276.936 75.9691C276.937 76.3442 276.937 76.7192 276.936 77.0943C276.936 77.4871 276.936 77.8798 276.936 78.2725C276.937 78.9318 276.936 79.591 276.935 80.2503C276.934 81.0125 276.935 81.7748 276.936 82.5371C276.937 83.1918 276.937 83.8465 276.936 84.5012C276.936 84.8921 276.936 85.283 276.937 85.674C276.937 86.0413 276.937 86.4086 276.936 86.7759C276.935 86.9108 276.935 87.0457 276.936 87.1805C276.936 87.3645 276.936 87.5483 276.935 87.7323C276.935 87.8125 276.935 87.8125 276.936 87.8943C276.933 88.2079 276.89 88.4096 276.696 88.6591C276.456 88.7707 276.181 88.7393 275.92 88.7296C275.874 88.7063 275.827 88.6831 275.779 88.6591C275.779 88.6125 275.779 88.566 275.779 88.518C275.733 88.518 275.686 88.518 275.638 88.518C275.465 88.2586 275.477 88.0639 275.478 87.7639C275.478 87.6802 275.478 87.6802 275.478 87.5948C275.477 87.4072 275.477 87.2196 275.477 87.0319C275.476 86.8977 275.476 86.7634 275.475 86.6292C275.474 86.3397 275.474 86.0503 275.473 85.7608C275.473 85.3032 275.471 84.8457 275.47 84.3881C275.466 83.4167 275.464 82.4452 275.462 81.4738C275.46 80.4256 275.457 79.3774 275.453 78.3292C275.451 77.8742 275.451 77.4193 275.45 76.9643C275.45 76.6813 275.449 76.3983 275.448 76.1154C275.447 75.984 275.447 75.8527 275.447 75.7214C275.447 75.5422 275.446 75.3631 275.445 75.1839C275.446 75.1058 275.446 75.1058 275.446 75.0261C275.443 74.7446 275.419 74.5208 275.286 74.2708C275.143 74.176 275.143 74.176 275.003 74.1297C275.003 74.0832 275.003 74.0366 275.003 73.9887C274.841 73.9887 274.678 73.9887 274.51 73.9887C274.51 74.0352 274.51 74.0818 274.51 74.1297C274.44 74.1297 274.37 74.1297 274.298 74.1297C274.298 74.1763 274.298 74.2228 274.298 74.2708C274.252 74.2708 274.205 74.2708 274.157 74.2708C274.071 74.5287 274.076 74.7659 274.076 75.0344C274.076 75.0912 274.075 75.148 274.075 75.2066C274.074 75.3976 274.074 75.5886 274.073 75.7797C274.073 75.9164 274.072 76.053 274.071 76.1897C274.07 76.4844 274.069 76.779 274.068 77.0737C274.067 77.5392 274.065 78.0047 274.063 78.4702C274.058 79.5423 274.054 80.6144 274.05 81.6864C274.047 82.669 274.043 83.6516 274.039 84.6342C274.037 85.0974 274.035 85.5605 274.034 86.0237C274.033 86.3113 274.032 86.5989 274.03 86.8865C274.03 87.0203 274.029 87.1541 274.029 87.2879C274.029 87.4699 274.028 87.6519 274.027 87.8339C274.027 87.8874 274.027 87.9409 274.027 87.9961C274.024 88.3609 274.024 88.3609 273.945 88.518C273.899 88.518 273.852 88.518 273.804 88.518C273.804 88.5646 273.804 88.6111 273.804 88.6591C273.583 88.7699 273.342 88.746 273.099 88.7296C272.888 88.6591 272.888 88.6591 272.77 88.4794C272.661 88.1974 272.647 87.9522 272.65 87.6545C272.649 87.5971 272.649 87.5397 272.649 87.4805C272.648 87.2887 272.649 87.0969 272.65 86.905C272.649 86.7673 272.649 86.6295 272.649 86.4917C272.648 86.1179 272.649 85.7442 272.65 85.3704C272.651 84.9793 272.65 84.5881 272.65 84.197C272.65 83.5402 272.651 82.8834 272.652 82.2267C272.654 81.4672 272.654 80.7078 272.654 79.9483C272.653 79.2178 272.654 78.4873 272.654 77.7568C272.655 77.4458 272.655 77.1349 272.655 76.824C272.654 76.4579 272.655 76.0919 272.656 75.7258C272.656 75.5914 272.656 75.457 272.656 75.3226C272.656 75.1393 272.657 74.956 272.658 74.7727C272.657 74.7194 272.657 74.6661 272.657 74.6112C272.661 74.1474 272.793 73.859 273.051 73.4817C273.091 73.4211 273.132 73.3605 273.173 73.298C273.326 73.1247 273.445 73.0686 273.663 73.0013C273.663 72.9547 273.663 72.9082 273.663 72.8602C274.428 72.5491 275.151 72.5683 275.92 72.8602Z" fill="#02E27E"/>
</g>
<path d="M258.936 92.1721L256.702 98.7437H255.183L252.953 92.1721H254.36L255.596 96.0827C255.617 96.1486 255.652 96.273 255.7 96.4557C255.747 96.6355 255.795 96.8273 255.843 97.0311C255.894 97.2319 255.929 97.3982 255.947 97.53C255.965 97.3982 255.996 97.2319 256.041 97.0311C256.089 96.8303 256.136 96.64 256.18 96.4602C256.228 96.2774 256.263 96.1516 256.284 96.0827L257.529 92.1721H258.936ZM264.226 96.222C264.226 96.6415 264.169 97.0131 264.056 97.3367C263.945 97.6604 263.781 97.9346 263.566 98.1593C263.353 98.3811 263.095 98.5489 262.792 98.6627C262.493 98.7766 262.154 98.8336 261.777 98.8336C261.423 98.8336 261.098 98.7766 260.801 98.6627C260.508 98.5489 260.251 98.3811 260.033 98.1593C259.817 97.9346 259.649 97.6604 259.529 97.3367C259.412 97.0131 259.354 96.6415 259.354 96.222C259.354 95.6646 259.453 95.1927 259.651 94.8061C259.848 94.4196 260.13 94.1259 260.496 93.9251C260.861 93.7243 261.297 93.624 261.804 93.624C262.274 93.624 262.691 93.7243 263.053 93.9251C263.419 94.1259 263.705 94.4196 263.912 94.8061C264.121 95.1927 264.226 95.6646 264.226 96.222ZM260.752 96.222C260.752 96.5516 260.788 96.8288 260.86 97.0536C260.932 97.2783 261.044 97.4476 261.197 97.5615C261.35 97.6754 261.549 97.7323 261.795 97.7323C262.037 97.7323 262.234 97.6754 262.383 97.5615C262.536 97.4476 262.647 97.2783 262.716 97.0536C262.788 96.8288 262.824 96.5516 262.824 96.222C262.824 95.8894 262.788 95.6137 262.716 95.3949C262.647 95.1732 262.536 95.0069 262.383 94.896C262.231 94.7851 262.031 94.7297 261.786 94.7297C261.423 94.7297 261.159 94.8541 260.995 95.1028C260.833 95.3515 260.752 95.7246 260.752 96.222ZM266.73 93.7183V98.7437H265.359V93.7183H266.73ZM266.047 91.7496C266.251 91.7496 266.426 91.7975 266.573 91.8934C266.72 91.9863 266.793 92.1616 266.793 92.4193C266.793 92.674 266.72 92.8508 266.573 92.9497C266.426 93.0456 266.251 93.0936 266.047 93.0936C265.84 93.0936 265.663 93.0456 265.516 92.9497C265.373 92.8508 265.301 92.674 265.301 92.4193C265.301 92.1616 265.373 91.9863 265.516 91.8934C265.663 91.7975 265.84 91.7496 266.047 91.7496ZM270.214 98.8336C269.716 98.8336 269.292 98.7437 268.941 98.5639C268.591 98.3811 268.324 98.0994 268.141 97.7188C267.959 97.3382 267.867 96.8513 267.867 96.258C267.867 95.6437 267.971 95.1432 268.177 94.7567C268.387 94.3671 268.676 94.0809 269.045 93.8981C269.416 93.7154 269.846 93.624 270.335 93.624C270.683 93.624 270.982 93.6584 271.234 93.7273C271.489 93.7933 271.71 93.8727 271.899 93.9656L271.495 95.0264C271.279 94.9395 271.078 94.869 270.892 94.8151C270.706 94.7582 270.521 94.7297 270.335 94.7297C270.095 94.7297 269.896 94.7866 269.737 94.9005C269.578 95.0114 269.46 95.1792 269.382 95.4039C269.304 95.6287 269.265 95.9104 269.265 96.249C269.265 96.5816 269.307 96.8573 269.391 97.076C269.475 97.2948 269.596 97.4581 269.755 97.566C269.914 97.6709 270.107 97.7233 270.335 97.7233C270.62 97.7233 270.873 97.6859 271.095 97.6109C271.316 97.533 271.532 97.4251 271.742 97.2873V98.4605C271.532 98.5923 271.312 98.6867 271.081 98.7437C270.853 98.8036 270.564 98.8336 270.214 98.8336ZM274.983 93.624C275.447 93.624 275.847 93.7139 276.183 93.8937C276.518 94.0705 276.778 94.3282 276.96 94.6668C277.143 95.0054 277.235 95.4189 277.235 95.9074V96.5726H273.994C274.009 96.9592 274.124 97.2633 274.34 97.4851C274.559 97.7038 274.861 97.8132 275.248 97.8132C275.568 97.8132 275.862 97.7802 276.129 97.7143C276.396 97.6484 276.67 97.5495 276.951 97.4177V98.4785C276.703 98.6013 276.442 98.6912 276.169 98.7481C275.9 98.8051 275.571 98.8336 275.185 98.8336C274.681 98.8336 274.235 98.7407 273.845 98.5549C273.459 98.3691 273.155 98.0859 272.933 97.7053C272.714 97.3248 272.605 96.8453 272.605 96.267C272.605 95.6796 272.704 95.1912 272.902 94.8016C273.102 94.4091 273.381 94.1154 273.738 93.9206C274.094 93.7228 274.509 93.624 274.983 93.624ZM274.992 94.5994C274.725 94.5994 274.503 94.6848 274.326 94.8556C274.153 95.0264 274.052 95.2946 274.025 95.6601H275.949C275.946 95.4564 275.909 95.2751 275.837 95.1163C275.768 94.9574 275.663 94.8316 275.522 94.7387C275.384 94.6458 275.207 94.5994 274.992 94.5994ZM283.73 95.3006H286.027V98.4874C285.682 98.6043 285.327 98.6912 284.961 98.7481C284.599 98.8051 284.193 98.8336 283.743 98.8336C283.06 98.8336 282.483 98.6972 282.013 98.4245C281.545 98.1518 281.19 97.7638 280.947 97.2603C280.705 96.7539 280.583 96.1531 280.583 95.4579C280.583 94.7776 280.717 94.1843 280.983 93.6779C281.253 93.1715 281.641 92.7789 282.148 92.5002C282.657 92.2185 283.268 92.0777 283.981 92.0777C284.347 92.0777 284.693 92.1122 285.02 92.1811C285.349 92.247 285.655 92.3414 285.937 92.4643L285.645 93.1295C285.402 93.0246 285.134 92.9347 284.84 92.8598C284.549 92.7849 284.248 92.7475 283.936 92.7475C283.4 92.7475 282.94 92.8583 282.557 93.0801C282.176 93.3018 281.884 93.615 281.68 94.0195C281.479 94.424 281.379 94.9035 281.379 95.4579C281.379 96.0063 281.467 96.4842 281.644 96.8918C281.821 97.2963 282.097 97.6109 282.471 97.8357C282.846 98.0604 283.328 98.1728 283.919 98.1728C284.215 98.1728 284.47 98.1563 284.683 98.1234C284.895 98.0874 285.089 98.0454 285.262 97.9975V95.9838H283.73V95.3006ZM289.744 93.7273C289.843 93.7273 289.946 93.7333 290.054 93.7453C290.162 93.7543 290.258 93.7678 290.342 93.7858L290.247 94.478C290.166 94.457 290.077 94.4405 289.978 94.4285C289.879 94.4166 289.786 94.4106 289.699 94.4106C289.501 94.4106 289.314 94.451 289.137 94.5319C288.963 94.6098 288.81 94.7237 288.679 94.8735C288.547 95.0204 288.443 95.1987 288.368 95.4084C288.294 95.6152 288.256 95.8459 288.256 96.1006V98.7437H287.505V93.8172H288.126L288.207 94.7252H288.238C288.34 94.5424 288.463 94.3761 288.607 94.2263C288.751 94.0734 288.917 93.9521 289.106 93.8622C289.297 93.7723 289.51 93.7273 289.744 93.7273ZM292.018 93.8172V98.7437H291.272V93.8172H292.018ZM291.654 91.9743C291.777 91.9743 291.882 92.0148 291.969 92.0957C292.059 92.1736 292.104 92.2965 292.104 92.4643C292.104 92.6291 292.059 92.7519 291.969 92.8329C291.882 92.9138 291.777 92.9542 291.654 92.9542C291.525 92.9542 291.418 92.9138 291.331 92.8329C291.247 92.7519 291.205 92.6291 291.205 92.4643C291.205 92.2965 291.247 92.1736 291.331 92.0957C291.418 92.0148 291.525 91.9743 291.654 91.9743ZM295.354 98.8336C294.73 98.8336 294.236 98.6208 293.87 98.1953C293.508 97.7698 293.326 97.1375 293.326 96.2984C293.326 95.4504 293.512 94.8106 293.884 94.3791C294.255 93.9446 294.75 93.7273 295.367 93.7273C295.628 93.7273 295.855 93.7618 296.05 93.8307C296.245 93.8996 296.413 93.9925 296.554 94.1094C296.695 94.2233 296.813 94.3536 296.909 94.5005H296.963C296.951 94.4076 296.939 94.2802 296.927 94.1184C296.915 93.9566 296.909 93.8247 296.909 93.7228V91.7496H297.655V98.7437H297.053L296.94 98.0424H296.909C296.816 98.1893 296.698 98.3226 296.554 98.4425C296.413 98.5624 296.244 98.6582 296.046 98.7302C295.851 98.7991 295.62 98.8336 295.354 98.8336ZM295.47 98.2133C295.998 98.2133 296.371 98.0634 296.59 97.7638C296.808 97.4641 296.918 97.0191 296.918 96.4288V96.2939C296.918 95.6676 296.813 95.1867 296.603 94.8511C296.396 94.5154 296.019 94.3476 295.47 94.3476C295.012 94.3476 294.669 94.5244 294.441 94.878C294.213 95.2286 294.099 95.7081 294.099 96.3164C294.099 96.9217 294.212 97.3892 294.437 97.7188C294.664 98.0484 295.009 98.2133 295.47 98.2133Z" fill="black"/>
<path d="M144.773 123.752C146.709 123.752 148.121 124.149 149.011 124.942C149.9 125.735 150.344 126.847 150.344 128.276C150.344 128.926 150.242 129.545 150.037 130.133C149.838 130.715 149.51 131.231 149.052 131.682C148.593 132.127 147.988 132.479 147.236 132.739C146.49 132.999 145.57 133.129 144.476 133.129H142.875V138.751H140.413V123.752H144.773ZM144.609 125.794H142.875V131.077H144.219C144.992 131.077 145.649 130.988 146.189 130.81C146.73 130.626 147.14 130.335 147.42 129.938C147.701 129.542 147.841 129.018 147.841 128.369C147.841 127.5 147.578 126.854 147.051 126.43C146.531 126.006 145.717 125.794 144.609 125.794ZM157.578 127.179C159.014 127.179 160.098 127.497 160.83 128.133C161.569 128.769 161.938 129.761 161.938 131.108V138.751H160.225L159.763 137.14H159.681C159.36 137.551 159.028 137.889 158.686 138.156C158.344 138.423 157.947 138.621 157.496 138.751C157.051 138.888 156.508 138.956 155.865 138.956C155.187 138.956 154.582 138.833 154.049 138.587C153.515 138.334 153.095 137.951 152.787 137.438C152.479 136.925 152.325 136.275 152.325 135.489C152.325 134.319 152.759 133.44 153.628 132.852C154.504 132.264 155.824 131.939 157.588 131.877L159.558 131.806V131.211C159.558 130.424 159.373 129.863 159.004 129.528C158.641 129.193 158.129 129.025 157.465 129.025C156.897 129.025 156.347 129.107 155.813 129.272C155.28 129.436 154.76 129.637 154.254 129.877L153.474 128.174C154.028 127.88 154.657 127.64 155.362 127.456C156.073 127.271 156.812 127.179 157.578 127.179ZM159.548 133.324L158.081 133.375C156.877 133.416 156.032 133.622 155.547 133.991C155.061 134.36 154.818 134.866 154.818 135.509C154.818 136.07 154.986 136.48 155.321 136.74C155.656 136.993 156.097 137.12 156.644 137.12C157.479 137.12 158.17 136.884 158.717 136.412C159.271 135.933 159.548 135.232 159.548 134.309V133.324ZM171.265 127.179C172.544 127.179 173.539 127.51 174.25 128.174C174.968 128.83 175.327 129.887 175.327 131.344V138.751H172.916V131.795C172.916 130.913 172.735 130.253 172.373 129.815C172.01 129.371 171.449 129.148 170.69 129.148C169.589 129.148 168.823 129.487 168.392 130.164C167.968 130.841 167.756 131.823 167.756 133.109V138.751H165.345V127.394H167.223L167.561 128.933H167.694C167.941 128.536 168.245 128.211 168.608 127.958C168.977 127.698 169.387 127.503 169.839 127.374C170.297 127.244 170.772 127.179 171.265 127.179ZM184.654 127.179C185.933 127.179 186.928 127.51 187.64 128.174C188.358 128.83 188.717 129.887 188.717 131.344V138.751H186.306V131.795C186.306 130.913 186.125 130.253 185.762 129.815C185.4 129.371 184.839 129.148 184.079 129.148C182.978 129.148 182.212 129.487 181.781 130.164C181.357 130.841 181.145 131.823 181.145 133.109V138.751H178.734V127.394H180.612L180.95 128.933H181.084C181.33 128.536 181.634 128.211 181.997 127.958C182.366 127.698 182.777 127.503 183.228 127.374C183.686 127.244 184.162 127.179 184.654 127.179ZM196.576 127.179C198.013 127.179 199.097 127.497 199.828 128.133C200.567 128.769 200.936 129.761 200.936 131.108V138.751H199.223L198.761 137.14H198.679C198.358 137.551 198.026 137.889 197.684 138.156C197.342 138.423 196.946 138.621 196.494 138.751C196.05 138.888 195.506 138.956 194.863 138.956C194.186 138.956 193.58 138.833 193.047 138.587C192.513 138.334 192.093 137.951 191.785 137.438C191.477 136.925 191.323 136.275 191.323 135.489C191.323 134.319 191.758 133.44 192.626 132.852C193.502 132.264 194.822 131.939 196.586 131.877L198.556 131.806V131.211C198.556 130.424 198.372 129.863 198.002 129.528C197.64 129.193 197.127 129.025 196.463 129.025C195.896 129.025 195.345 129.107 194.812 129.272C194.278 129.436 193.758 129.637 193.252 129.877L192.472 128.174C193.026 127.88 193.656 127.64 194.36 127.456C195.071 127.271 195.81 127.179 196.576 127.179ZM198.546 133.324L197.079 133.375C195.875 133.416 195.03 133.622 194.545 133.991C194.059 134.36 193.816 134.866 193.816 135.509C193.816 136.07 193.984 136.48 194.319 136.74C194.654 136.993 195.095 137.12 195.643 137.12C196.477 137.12 197.168 136.884 197.715 136.412C198.269 135.933 198.546 135.232 198.546 134.309V133.324ZM206.765 138.751H204.343V122.788H206.765V138.751ZM214.696 127.179C216.132 127.179 217.216 127.497 217.948 128.133C218.687 128.769 219.056 129.761 219.056 131.108V138.751H217.343L216.881 137.14H216.799C216.478 137.551 216.146 137.889 215.804 138.156C215.462 138.423 215.065 138.621 214.614 138.751C214.169 138.888 213.625 138.956 212.983 138.956C212.305 138.956 211.7 138.833 211.167 138.587C210.633 138.334 210.212 137.951 209.905 137.438C209.597 136.925 209.443 136.275 209.443 135.489C209.443 134.319 209.877 133.44 210.746 132.852C211.621 132.264 212.941 131.939 214.706 131.877L216.676 131.806V131.211C216.676 130.424 216.491 129.863 216.122 129.528C215.759 129.193 215.246 129.025 214.583 129.025C214.015 129.025 213.465 129.107 212.931 129.272C212.398 129.436 211.878 129.637 211.372 129.877L210.592 128.174C211.146 127.88 211.775 127.64 212.48 127.456C213.191 127.271 213.93 127.179 214.696 127.179ZM216.666 133.324L215.199 133.375C213.995 133.416 213.15 133.622 212.664 133.991C212.179 134.36 211.936 134.866 211.936 135.509C211.936 136.07 212.104 136.48 212.439 136.74C212.774 136.993 213.215 137.12 213.762 137.12C214.597 137.12 215.287 136.884 215.835 136.412C216.389 135.933 216.666 135.232 216.666 134.309V133.324ZM224.874 122.788V126.635C224.874 127.079 224.86 127.517 224.833 127.948C224.812 128.372 224.792 128.704 224.771 128.943H224.874C225.182 128.451 225.609 128.037 226.156 127.702C226.71 127.36 227.418 127.189 228.28 127.189C229.627 127.189 230.712 127.685 231.532 128.676C232.353 129.661 232.763 131.122 232.763 133.057C232.763 134.343 232.575 135.424 232.199 136.299C231.823 137.175 231.293 137.838 230.609 138.29C229.932 138.734 229.135 138.956 228.218 138.956C227.357 138.956 226.659 138.799 226.126 138.484C225.599 138.163 225.185 137.79 224.884 137.366H224.71L224.269 138.751H222.463V122.788H224.874ZM227.644 129.148C226.96 129.148 226.416 129.285 226.013 129.559C225.616 129.832 225.329 130.243 225.151 130.79C224.973 131.33 224.881 132.018 224.874 132.852V133.068C224.874 134.333 225.072 135.301 225.469 135.971C225.872 136.641 226.604 136.976 227.664 136.976C228.506 136.976 229.152 136.638 229.604 135.961C230.055 135.277 230.281 134.299 230.281 133.026C230.281 131.741 230.055 130.773 229.604 130.123C229.159 129.473 228.506 129.148 227.644 129.148ZM243.219 135.509C243.219 136.255 243.037 136.884 242.675 137.397C242.312 137.91 241.782 138.3 241.085 138.567C240.394 138.826 239.546 138.956 238.54 138.956C237.747 138.956 237.063 138.898 236.488 138.782C235.921 138.673 235.384 138.502 234.878 138.269V136.186C235.418 136.439 236.023 136.658 236.694 136.843C237.371 137.028 238.01 137.12 238.612 137.12C239.405 137.12 239.977 136.997 240.325 136.751C240.674 136.498 240.849 136.162 240.849 135.745C240.849 135.499 240.777 135.28 240.633 135.089C240.496 134.89 240.236 134.688 239.853 134.483C239.477 134.271 238.923 134.018 238.191 133.724C237.473 133.437 236.868 133.15 236.375 132.862C235.883 132.575 235.51 132.23 235.257 131.826C235.004 131.416 234.878 130.893 234.878 130.256C234.878 129.251 235.274 128.488 236.068 127.969C236.868 127.442 237.925 127.179 239.238 127.179C239.935 127.179 240.592 127.25 241.208 127.394C241.83 127.531 242.439 127.733 243.034 127.999L242.275 129.815C241.762 129.59 241.245 129.405 240.725 129.261C240.212 129.111 239.689 129.036 239.156 129.036C238.533 129.036 238.058 129.131 237.73 129.323C237.408 129.514 237.248 129.788 237.248 130.144C237.248 130.41 237.326 130.636 237.483 130.821C237.641 131.005 237.911 131.19 238.294 131.375C238.684 131.559 239.224 131.788 239.915 132.062C240.592 132.322 241.177 132.596 241.669 132.883C242.169 133.163 242.552 133.509 242.818 133.919C243.085 134.329 243.219 134.859 243.219 135.509Z" fill="black"/>
</g>
<path d="M174 34.125V5.6875" stroke="black" stroke-width="3.25" stroke-linecap="round" stroke-linejoin="round"/>
<path d="M185.375 16.25L174 4.875L162.625 16.25" stroke="black" stroke-width="3.25" stroke-linecap="round" stroke-linejoin="round"/>
<path d="M206.511 4.875V33.3125" stroke="black" stroke-width="3.25" stroke-linecap="round" stroke-linejoin="round"/>
<path d="M195.137 22.75L206.512 34.125L217.887 22.75" stroke="black" stroke-width="3.25" stroke-linecap="round" stroke-linejoin="round"/>
<path d="M174 212.125V183.688" stroke="black" stroke-width="3.25" stroke-linecap="round" stroke-linejoin="round"/>
<path d="M185.375 194.25L174 182.875L162.625 194.25" stroke="black" stroke-width="3.25" stroke-linecap="round" stroke-linejoin="round"/>
<path d="M206.511 182.875V211.312" stroke="black" stroke-width="3.25" stroke-linecap="round" stroke-linejoin="round"/>
<path d="M195.137 200.75L206.512 212.125L217.887 200.75" stroke="black" stroke-width="3.25" stroke-linecap="round" stroke-linejoin="round"/>
<path d="M347.631 86.2439H376.068" stroke="black" stroke-width="3.25" stroke-linecap="round" stroke-linejoin="round"/>
<path d="M365.506 97.6184L376.881 86.2434L365.506 74.8684" stroke="black" stroke-width="3.25" stroke-linecap="round" stroke-linejoin="round"/>
<path d="M376.881 118.756L348.443 118.756" stroke="black" stroke-width="3.25" stroke-linecap="round" stroke-linejoin="round"/>
<path d="M359.006 107.381L347.631 118.756L359.006 130.131" stroke="black" stroke-width="3.25" stroke-linecap="round" stroke-linejoin="round"/>
<path d="M5.63086 87.2441H34.0684" stroke="black" stroke-width="3.25" stroke-linecap="round" stroke-linejoin="round"/>
<path d="M23.5059 98.6187L34.8809 87.2437L23.5059 75.8687" stroke="black" stroke-width="3.25" stroke-linecap="round" stroke-linejoin="round"/>
<path d="M34.8809 119.756L6.44336 119.756" stroke="black" stroke-width="3.25" stroke-linecap="round" stroke-linejoin="round"/>
<path d="M17.0059 108.382L5.63086 119.757L17.0059 131.132" stroke="black" stroke-width="3.25" stroke-linecap="round" stroke-linejoin="round"/>
<defs>
<filter id="filter0_dddd_2881_1370" x="44.5" y="52" width="293.887" height="178.385" filterUnits="userSpaceOnUse" color-interpolation-filters="sRGB">
<feFlood flood-opacity="0" result="BackgroundImageFix"/>
<feColorMatrix in="SourceAlpha" type="matrix" values="0 0 0 0 0 0 0 0 0 0 0 0 0 0 0 0 0 0 127 0" result="hardAlpha"/>
<feOffset dy="3"/>
<feGaussianBlur stdDeviation="3.5"/>
<feColorMatrix type="matrix" values="0 0 0 0 0 0 0 0 0 0 0 0 0 0 0 0 0 0 0.1 0"/>
<feBlend mode="normal" in2="BackgroundImageFix" result="effect1_dropShadow_2881_1370"/>
<feColorMatrix in="SourceAlpha" type="matrix" values="0 0 0 0 0 0 0 0 0 0 0 0 0 0 0 0 0 0 127 0" result="hardAlpha"/>
<feOffset dy="12"/>
<feGaussianBlur stdDeviation="6"/>
<feColorMatrix type="matrix" values="0 0 0 0 0 0 0 0 0 0 0 0 0 0 0 0 0 0 0.09 0"/>
<feBlend mode="normal" in2="effect1_dropShadow_2881_1370" result="effect2_dropShadow_2881_1370"/>
<feColorMatrix in="SourceAlpha" type="matrix" values="0 0 0 0 0 0 0 0 0 0 0 0 0 0 0 0 0 0 127 0" result="hardAlpha"/>
<feOffset dy="28"/>
<feGaussianBlur stdDeviation="8.5"/>
<feColorMatrix type="matrix" values="0 0 0 0 0 0 0 0 0 0 0 0 0 0 0 0 0 0 0.05 0"/>
<feBlend mode="normal" in2="effect2_dropShadow_2881_1370" result="effect3_dropShadow_2881_1370"/>
<feColorMatrix in="SourceAlpha" type="matrix" values="0 0 0 0 0 0 0 0 0 0 0 0 0 0 0 0 0 0 127 0" result="hardAlpha"/>
<feOffset dy="49"/>
<feGaussianBlur stdDeviation="10"/>
<feColorMatrix type="matrix" values="0 0 0 0 0 0 0 0 0 0 0 0 0 0 0 0 0 0 0.01 0"/>
<feBlend mode="normal" in2="effect3_dropShadow_2881_1370" result="effect4_dropShadow_2881_1370"/>
<feBlend mode="normal" in="SourceGraphic" in2="effect4_dropShadow_2881_1370" result="shape"/>
</filter>
<filter id="filter1_d_2881_1370" x="277.991" y="74.2561" width="2.116" height="13.4009" filterUnits="userSpaceOnUse" color-interpolation-filters="sRGB">
<feFlood flood-opacity="0" result="BackgroundImageFix"/>
<feColorMatrix in="SourceAlpha" type="matrix" values="0 0 0 0 0 0 0 0 0 0 0 0 0 0 0 0 0 0 127 0" result="hardAlpha"/>
<feOffset dy="0.282122"/>
<feGaussianBlur stdDeviation="0.141061"/>
<feComposite in2="hardAlpha" operator="out"/>
<feColorMatrix type="matrix" values="0 0 0 0 0 0 0 0 0 0 0 0 0 0 0 0 0 0 0.25 0"/>
<feBlend mode="normal" in2="BackgroundImageFix" result="effect1_dropShadow_2881_1370"/>
<feBlend mode="normal" in="SourceGraphic" in2="effect1_dropShadow_2881_1370" result="shape"/>
</filter>
<filter id="filter2_d_2881_1370" x="280.883" y="76.9363" width="2.116" height="8.04056" filterUnits="userSpaceOnUse" color-interpolation-filters="sRGB">
<feFlood flood-opacity="0" result="BackgroundImageFix"/>
<feColorMatrix in="SourceAlpha" type="matrix" values="0 0 0 0 0 0 0 0 0 0 0 0 0 0 0 0 0 0 127 0" result="hardAlpha"/>
<feOffset dy="0.282122"/>
<feGaussianBlur stdDeviation="0.141061"/>
<feComposite in2="hardAlpha" operator="out"/>
<feColorMatrix type="matrix" values="0 0 0 0 0 0 0 0 0 0 0 0 0 0 0 0 0 0 0.25 0"/>
<feBlend mode="normal" in2="BackgroundImageFix" result="effect1_dropShadow_2881_1370"/>
<feBlend mode="normal" in="SourceGraphic" in2="effect1_dropShadow_2881_1370" result="shape"/>
</filter>
<filter id="filter3_d_2881_1370" x="283.775" y="75.8076" width="2.116" height="10.2974" filterUnits="userSpaceOnUse" color-interpolation-filters="sRGB">
<feFlood flood-opacity="0" result="BackgroundImageFix"/>
<feColorMatrix in="SourceAlpha" type="matrix" values="0 0 0 0 0 0 0 0 0 0 0 0 0 0 0 0 0 0 127 0" result="hardAlpha"/>
<feOffset dy="0.282122"/>
<feGaussianBlur stdDeviation="0.141061"/>
<feComposite in2="hardAlpha" operator="out"/>
<feColorMatrix type="matrix" values="0 0 0 0 0 0 0 0 0 0 0 0 0 0 0 0 0 0 0.25 0"/>
<feBlend mode="normal" in2="BackgroundImageFix" result="effect1_dropShadow_2881_1370"/>
<feBlend mode="normal" in="SourceGraphic" in2="effect1_dropShadow_2881_1370" result="shape"/>
</filter>
<filter id="filter4_d_2881_1370" x="286.666" y="78.5269" width="2.03202" height="4.85892" filterUnits="userSpaceOnUse" color-interpolation-filters="sRGB">
<feFlood flood-opacity="0" result="BackgroundImageFix"/>
<feColorMatrix in="SourceAlpha" type="matrix" values="0 0 0 0 0 0 0 0 0 0 0 0 0 0 0 0 0 0 127 0" result="hardAlpha"/>
<feOffset dy="0.282122"/>
<feGaussianBlur stdDeviation="0.141061"/>
<feComposite in2="hardAlpha" operator="out"/>
<feColorMatrix type="matrix" values="0 0 0 0 0 0 0 0 0 0 0 0 0 0 0 0 0 0 0.25 0"/>
<feBlend mode="normal" in2="BackgroundImageFix" result="effect1_dropShadow_2881_1370"/>
<feBlend mode="normal" in="SourceGraphic" in2="effect1_dropShadow_2881_1370" result="shape"/>
</filter>
<filter id="filter5_d_2881_1370" x="289.475" y="79.2283" width="2.04569" height="3.45609" filterUnits="userSpaceOnUse" color-interpolation-filters="sRGB">
<feFlood flood-opacity="0" result="BackgroundImageFix"/>
<feColorMatrix in="SourceAlpha" type="matrix" values="0 0 0 0 0 0 0 0 0 0 0 0 0 0 0 0 0 0 127 0" result="hardAlpha"/>
<feOffset dy="0.282122"/>
<feGaussianBlur stdDeviation="0.141061"/>
<feComposite in2="hardAlpha" operator="out"/>
<feColorMatrix type="matrix" values="0 0 0 0 0 0 0 0 0 0 0 0 0 0 0 0 0 0 0.25 0"/>
<feBlend mode="normal" in2="BackgroundImageFix" result="effect1_dropShadow_2881_1370"/>
<feBlend mode="normal" in="SourceGraphic" in2="effect1_dropShadow_2881_1370" result="shape"/>
</filter>
<filter id="filter6_d_2881_1370" x="292.296" y="79.9795" width="1.96659" height="1.95389" filterUnits="userSpaceOnUse" color-interpolation-filters="sRGB">
<feFlood flood-opacity="0" result="BackgroundImageFix"/>
<feColorMatrix in="SourceAlpha" type="matrix" values="0 0 0 0 0 0 0 0 0 0 0 0 0 0 0 0 0 0 127 0" result="hardAlpha"/>
<feOffset dy="0.282122"/>
<feGaussianBlur stdDeviation="0.141061"/>
<feComposite in2="hardAlpha" operator="out"/>
<feColorMatrix type="matrix" values="0 0 0 0 0 0 0 0 0 0 0 0 0 0 0 0 0 0 0.25 0"/>
<feBlend mode="normal" in2="BackgroundImageFix" result="effect1_dropShadow_2881_1370"/>
<feBlend mode="normal" in="SourceGraphic" in2="effect1_dropShadow_2881_1370" result="shape"/>
</filter>
<filter id="filter7_d_2881_1370" x="252.671" y="79.9939" width="1.96659" height="1.95389" filterUnits="userSpaceOnUse" color-interpolation-filters="sRGB">
<feFlood flood-opacity="0" result="BackgroundImageFix"/>
<feColorMatrix in="SourceAlpha" type="matrix" values="0 0 0 0 0 0 0 0 0 0 0 0 0 0 0 0 0 0 127 0" result="hardAlpha"/>
<feOffset dy="0.282122"/>
<feGaussianBlur stdDeviation="0.141061"/>
<feComposite in2="hardAlpha" operator="out"/>
<feColorMatrix type="matrix" values="0 0 0 0 0 0 0 0 0 0 0 0 0 0 0 0 0 0 0.25 0"/>
<feBlend mode="normal" in2="BackgroundImageFix" result="effect1_dropShadow_2881_1370"/>
<feBlend mode="normal" in="SourceGraphic" in2="effect1_dropShadow_2881_1370" result="shape"/>
</filter>
<filter id="filter8_d_2881_1370" x="255.414" y="79.9985" width="1.99979" height="1.94462" filterUnits="userSpaceOnUse" color-interpolation-filters="sRGB">
<feFlood flood-opacity="0" result="BackgroundImageFix"/>
<feColorMatrix in="SourceAlpha" type="matrix" values="0 0 0 0 0 0 0 0 0 0 0 0 0 0 0 0 0 0 127 0" result="hardAlpha"/>
<feOffset dy="0.282122"/>
<feGaussianBlur stdDeviation="0.141061"/>
<feComposite in2="hardAlpha" operator="out"/>
<feColorMatrix type="matrix" values="0 0 0 0 0 0 0 0 0 0 0 0 0 0 0 0 0 0 0.25 0"/>
<feBlend mode="normal" in2="BackgroundImageFix" result="effect1_dropShadow_2881_1370"/>
<feBlend mode="normal" in="SourceGraphic" in2="effect1_dropShadow_2881_1370" result="shape"/>
</filter>
<filter id="filter9_d_2881_1370" x="258.189" y="79.2429" width="2.04569" height="3.45609" filterUnits="userSpaceOnUse" color-interpolation-filters="sRGB">
<feFlood flood-opacity="0" result="BackgroundImageFix"/>
<feColorMatrix in="SourceAlpha" type="matrix" values="0 0 0 0 0 0 0 0 0 0 0 0 0 0 0 0 0 0 127 0" result="hardAlpha"/>
<feOffset dy="0.282122"/>
<feGaussianBlur stdDeviation="0.141061"/>
<feComposite in2="hardAlpha" operator="out"/>
<feColorMatrix type="matrix" values="0 0 0 0 0 0 0 0 0 0 0 0 0 0 0 0 0 0 0.25 0"/>
<feBlend mode="normal" in2="BackgroundImageFix" result="effect1_dropShadow_2881_1370"/>
<feBlend mode="normal" in="SourceGraphic" in2="effect1_dropShadow_2881_1370" result="shape"/>
</filter>
<filter id="filter10_d_2881_1370" x="261.011" y="78.5413" width="2.03202" height="4.85892" filterUnits="userSpaceOnUse" color-interpolation-filters="sRGB">
<feFlood flood-opacity="0" result="BackgroundImageFix"/>
<feColorMatrix in="SourceAlpha" type="matrix" values="0 0 0 0 0 0 0 0 0 0 0 0 0 0 0 0 0 0 127 0" result="hardAlpha"/>
<feOffset dy="0.282122"/>
<feGaussianBlur stdDeviation="0.141061"/>
<feComposite in2="hardAlpha" operator="out"/>
<feColorMatrix type="matrix" values="0 0 0 0 0 0 0 0 0 0 0 0 0 0 0 0 0 0 0.25 0"/>
<feBlend mode="normal" in2="BackgroundImageFix" result="effect1_dropShadow_2881_1370"/>
<feBlend mode="normal" in="SourceGraphic" in2="effect1_dropShadow_2881_1370" result="shape"/>
</filter>
<filter id="filter11_d_2881_1370" x="263.818" y="76.2036" width="2.08378" height="9.53422" filterUnits="userSpaceOnUse" color-interpolation-filters="sRGB">
<feFlood flood-opacity="0" result="BackgroundImageFix"/>
<feColorMatrix in="SourceAlpha" type="matrix" values="0 0 0 0 0 0 0 0 0 0 0 0 0 0 0 0 0 0 127 0" result="hardAlpha"/>
<feOffset dy="0.282122"/>
<feGaussianBlur stdDeviation="0.141061"/>
<feComposite in2="hardAlpha" operator="out"/>
<feColorMatrix type="matrix" values="0 0 0 0 0 0 0 0 0 0 0 0 0 0 0 0 0 0 0.25 0"/>
<feBlend mode="normal" in2="BackgroundImageFix" result="effect1_dropShadow_2881_1370"/>
<feBlend mode="normal" in="SourceGraphic" in2="effect1_dropShadow_2881_1370" result="shape"/>
</filter>
<filter id="filter12_d_2881_1370" x="266.678" y="77.4868" width="2.06815" height="6.9683" filterUnits="userSpaceOnUse" color-interpolation-filters="sRGB">
<feFlood flood-opacity="0" result="BackgroundImageFix"/>
<feColorMatrix in="SourceAlpha" type="matrix" values="0 0 0 0 0 0 0 0 0 0 0 0 0 0 0 0 0 0 127 0" result="hardAlpha"/>
<feOffset dy="0.282122"/>
<feGaussianBlur stdDeviation="0.141061"/>
<feComposite in2="hardAlpha" operator="out"/>
<feColorMatrix type="matrix" values="0 0 0 0 0 0 0 0 0 0 0 0 0 0 0 0 0 0 0.25 0"/>
<feBlend mode="normal" in2="BackgroundImageFix" result="effect1_dropShadow_2881_1370"/>
<feBlend mode="normal" in="SourceGraphic" in2="effect1_dropShadow_2881_1370" result="shape"/>
</filter>
<filter id="filter13_d_2881_1370" x="269.522" y="74.2527" width="2.06717" height="13.4363" filterUnits="userSpaceOnUse" color-interpolation-filters="sRGB">
<feFlood flood-opacity="0" result="BackgroundImageFix"/>
<feColorMatrix in="SourceAlpha" type="matrix" values="0 0 0 0 0 0 0 0 0 0 0 0 0 0 0 0 0 0 127 0" result="hardAlpha"/>
<feOffset dy="0.282122"/>
<feGaussianBlur stdDeviation="0.141061"/>
<feComposite in2="hardAlpha" operator="out"/>
<feColorMatrix type="matrix" values="0 0 0 0 0 0 0 0 0 0 0 0 0 0 0 0 0 0 0.25 0"/>
<feBlend mode="normal" in2="BackgroundImageFix" result="effect1_dropShadow_2881_1370"/>
<feBlend mode="normal" in="SourceGraphic" in2="effect1_dropShadow_2881_1370" result="shape"/>
</filter>
<filter id="filter14_d_2881_1370" x="272.366" y="72.634" width="4.85233" height="16.6739" filterUnits="userSpaceOnUse" color-interpolation-filters="sRGB">
<feFlood flood-opacity="0" result="BackgroundImageFix"/>
<feColorMatrix in="SourceAlpha" type="matrix" values="0 0 0 0 0 0 0 0 0 0 0 0 0 0 0 0 0 0 127 0" result="hardAlpha"/>
<feOffset dy="0.282122"/>
<feGaussianBlur stdDeviation="0.141061"/>
<feComposite in2="hardAlpha" operator="out"/>
<feColorMatrix type="matrix" values="0 0 0 0 0 0 0 0 0 0 0 0 0 0 0 0 0 0 0.25 0"/>
<feBlend mode="normal" in2="BackgroundImageFix" result="effect1_dropShadow_2881_1370"/>
<feBlend mode="normal" in="SourceGraphic" in2="effect1_dropShadow_2881_1370" result="shape"/>
</filter>
<clipPath id="clip0_2881_1370">
<rect width="28.2438" height="28.5528" fill="white" transform="translate(81.1338 72.9126)"/>
</clipPath>
</defs>
</svg>
