<svg width="41" height="41" viewBox="0 0 41 41" fill="none" xmlns="http://www.w3.org/2000/svg">
<g id="Frame">
<path id="Vector" d="M1.5791 13.7627H39.0791V26.2627H1.5791V13.7627Z" fill="#102F9B"/>
<path id="Vector_2" d="M6.5791 5.0127H34.0791C36.8391 5.0127 39.0791 7.2527 39.0791 10.0127V15.0127H1.5791V10.0127C1.5791 7.2527 3.8191 5.0127 6.5791 5.0127Z" fill="#C82A20"/>
<path id="Vector_3" d="M34.0791 35.0127L6.5791 35.0127C3.8191 35.0127 1.5791 32.7727 1.5791 30.0127V25.0127L39.0791 25.0127V30.0127C39.0791 32.7727 36.8391 35.0127 34.0791 35.0127Z" fill="#E8AD3B"/>
<path id="Vector_4" opacity="0.15" d="M34.0791 5.0127H6.5791C3.81785 5.0127 1.5791 7.25145 1.5791 10.0127V30.0127C1.5791 32.7739 3.81785 35.0127 6.5791 35.0127H34.0791C36.8404 35.0127 39.0791 32.7739 39.0791 30.0127V10.0127C39.0791 7.25145 36.8404 5.0127 34.0791 5.0127ZM37.8291 30.0127C37.8291 32.0802 36.1466 33.7627 34.0791 33.7627H6.5791C4.5116 33.7627 2.8291 32.0802 2.8291 30.0127V10.0127C2.8291 7.9452 4.5116 6.2627 6.5791 6.2627H34.0791C36.1466 6.2627 37.8291 7.9452 37.8291 10.0127V30.0127Z" fill="black"/>
<path id="Vector_5" opacity="0.2" d="M34.0791 6.2627H6.5791C4.50785 6.2627 2.8291 7.94145 2.8291 10.0127V11.2627C2.8291 9.19145 4.50785 7.5127 6.5791 7.5127H34.0791C36.1504 7.5127 37.8291 9.19145 37.8291 11.2627V10.0127C37.8291 7.94145 36.1504 6.2627 34.0791 6.2627Z" fill="white"/>
</g>
</svg>
