<svg width="25" height="25" viewBox="0 0 25 25" fill="none" xmlns="http://www.w3.org/2000/svg">
<g id="icon play">
<path id="Vector" d="M10 16.3354V9.16738C10.0001 9.0777 10.0244 8.9897 10.0703 8.91262C10.1161 8.83554 10.1818 8.77221 10.2606 8.72926C10.3393 8.68632 10.4281 8.66534 10.5178 8.66853C10.6074 8.67172 10.6945 8.69895 10.77 8.74738L16.346 12.3304C16.4166 12.3756 16.4747 12.4379 16.5149 12.5115C16.5552 12.585 16.5763 12.6675 16.5763 12.7514C16.5763 12.8352 16.5552 12.9177 16.5149 12.9913C16.4747 13.0649 16.4166 13.1271 16.346 13.1724L10.77 16.7564C10.6945 16.8048 10.6074 16.832 10.5178 16.8352C10.4281 16.8384 10.3393 16.8174 10.2606 16.7745C10.1818 16.7316 10.1161 16.6682 10.0703 16.5911C10.0244 16.5141 10.0001 16.4261 10 16.3364V16.3354Z" fill="white"/>
<path id="Vector_2" d="M1.5 12.7513C1.5 6.67634 6.425 1.75134 12.5 1.75134C18.575 1.75134 23.5 6.67634 23.5 12.7513C23.5 18.8263 18.575 23.7513 12.5 23.7513C6.425 23.7513 1.5 18.8263 1.5 12.7513ZM12.5 3.25134C9.98044 3.25134 7.56408 4.25223 5.78249 6.03383C4.00089 7.81542 3 10.2318 3 12.7513C3 15.2709 4.00089 17.6873 5.78249 19.4689C7.56408 21.2505 9.98044 22.2513 12.5 22.2513C15.0196 22.2513 17.4359 21.2505 19.2175 19.4689C20.9991 17.6873 22 15.2709 22 12.7513C22 10.2318 20.9991 7.81542 19.2175 6.03383C17.4359 4.25223 15.0196 3.25134 12.5 3.25134Z" fill="white"/>
</g>
</svg>
