<svg width="73" height="72" viewBox="0 0 73 72" fill="none" xmlns="http://www.w3.org/2000/svg">
<g id="MCQ geneartor logo">
<path id="Vector" d="M15.8115 43.3835V38.8955H20.2995V43.3835H15.8115Z" fill="#1B3139"/>
<path id="Vector_2" fill-rule="evenodd" clip-rule="evenodd" d="M48.7234 65.8232H12.8199C9.51503 65.8232 6.83594 63.144 6.83594 59.8392V11.9678C6.83594 8.66298 9.51503 5.98389 12.8199 5.98389H48.7234C52.0282 5.98389 54.7073 8.66298 54.7073 11.9678V59.8392C54.7073 63.144 52.0282 65.8232 48.7234 65.8232ZM27.7797 19.4477C27.7797 18.6215 28.4494 17.9517 29.2757 17.9517H47.2274C48.0537 17.9517 48.7234 18.6215 48.7234 19.4477C48.7234 20.274 48.0537 20.9437 47.2274 20.9437H29.2757C28.4494 20.9437 27.7797 20.274 27.7797 19.4477ZM29.2757 23.9357C28.4494 23.9357 27.7797 24.6054 27.7797 25.4316C27.7797 26.2579 28.4494 26.9276 29.2757 26.9276H47.2274C48.0537 26.9276 48.7234 26.2579 48.7234 25.4316C48.7234 24.6054 48.0537 23.9357 47.2274 23.9357H29.2757ZM24.3495 18.3899C24.9337 18.9741 24.9337 19.9213 24.3495 20.5055L17.3078 27.5473L13.258 23.4975C12.6738 22.9133 12.6738 21.9661 13.258 21.3819C13.8422 20.7977 14.7894 20.7977 15.3737 21.3819L17.3078 23.316L22.2339 18.3899C22.8181 17.8057 23.7654 17.8057 24.3495 18.3899ZM29.2757 35.9035C28.4494 35.9035 27.7797 36.5733 27.7797 37.3995C27.7797 38.2257 28.4494 38.8955 29.2757 38.8955H47.2274C48.0537 38.8955 48.7234 38.2257 48.7234 37.3995C48.7234 36.5733 48.0537 35.9035 47.2274 35.9035H29.2757ZM27.7797 43.3834C27.7797 42.5572 28.4494 41.8874 29.2757 41.8874H47.2274C48.0537 41.8874 48.7234 42.5572 48.7234 43.3834C48.7234 44.2097 48.0537 44.8794 47.2274 44.8794H29.2757C28.4494 44.8794 27.7797 44.2097 27.7797 43.3834ZM21.7958 35.9035H14.3158C13.4896 35.9035 12.8199 36.5733 12.8199 37.3995V44.8794C12.8199 45.7056 13.4896 46.3754 14.3158 46.3754H21.7958C22.622 46.3754 23.2917 45.7056 23.2917 44.8794V37.3995C23.2917 36.5733 22.622 35.9035 21.7958 35.9035Z" fill="#1B3139"/>
<path id="Vector_3" fill-rule="evenodd" clip-rule="evenodd" d="M66.6751 59.8393L62.1872 65.8232L57.6992 59.8393V32.9116H66.6751V59.8393Z" fill="#1B3139"/>
<path id="Vector_4" fill-rule="evenodd" clip-rule="evenodd" d="M60.6912 22.4397H63.6831C65.3356 22.4397 66.6751 23.7792 66.6751 25.4317V31.4156H57.6992V25.4317C57.6992 23.7792 59.0387 22.4397 60.6912 22.4397Z" fill="#1B3139"/>
</g>
</svg>
