<svg width="126" height="30" viewBox="0 0 126 30" fill="none" xmlns="http://www.w3.org/2000/svg">
<g id="neuro LOGO 1">
<path id="Vector" d="M28.4191 5.69141C31.2733 6.44168 33.072 7.5408 34.7356 10.0132C35.385 11.3056 35.4631 12.3586 35.4836 13.7948C35.571 15.3422 35.6995 16.2087 36.7718 17.3478C37.0508 17.5902 37.0508 17.5902 37.3354 17.8374C37.7276 18.3244 37.7276 18.3244 37.6627 19.0191C37.3127 19.8499 36.7778 20.1172 36.0654 20.6515C35.6983 21.5998 35.7329 22.2628 35.7329 23.3111C35.6294 24.0878 35.5196 24.8637 35.4005 25.6382C33.9424 25.8715 32.5554 26.0067 31.0787 25.9707C30.969 26.5192 30.8593 27.0677 30.7462 27.6329C29.7457 27.9664 29.0712 28.0082 28.0256 28.0095C27.6899 28.0099 27.3541 28.0104 27.0082 28.0108C26.6578 28.0095 26.3075 28.0082 25.9465 28.0069C25.5975 28.0082 25.2484 28.0095 24.8888 28.0108C24.5526 28.0104 24.2164 28.0099 23.87 28.0095C23.563 28.0091 23.256 28.0087 22.9397 28.0084C22.1686 27.9687 21.5111 27.8506 20.7728 27.6329C20.8825 26.8649 20.9922 26.097 21.1053 25.3058C20.6965 25.3116 20.6965 25.3116 20.2794 25.3175C19.742 25.322 19.742 25.322 19.1937 25.3265C18.6615 25.3323 18.6615 25.3323 18.1185 25.3382C17.2709 25.3108 16.5909 25.2214 15.7861 24.9733C15.7861 24.7539 15.7861 24.5345 15.7861 24.3084C16.0797 24.2836 16.3732 24.2587 16.6757 24.2331C20.5087 23.8132 23.4899 22.64 26.1621 19.7918C28.62 16.4753 29.2979 13.0397 29.084 9.01587C28.916 7.89257 28.6922 6.79363 28.4191 5.69141Z" fill="black"/>
<path id="Vector_2" d="M25.4272 2.03467C25.6466 2.03467 25.866 2.03467 26.0921 2.03467C26.3081 2.6645 26.5225 3.29487 26.7362 3.92546C26.9156 4.45193 26.9156 4.45193 27.0985 4.98903C28.3567 9.01629 28.3056 13.8509 26.4246 17.6597C25.1183 19.941 23.6113 21.1462 21.1054 21.9815C19.1259 22.1755 17.7107 21.8104 16.1187 20.6517C15.3321 19.8372 14.6247 19.0122 14.124 17.9921C14.2337 17.663 14.3434 17.3339 14.4565 16.9948C14.6759 17.2142 14.8953 17.4336 15.1214 17.6597C15.8609 17.7182 16.6029 17.7486 17.3446 17.7636C19.4866 17.878 20.5407 18.2039 22.1027 19.6543C22.8012 18.2573 22.5997 16.6161 22.2079 15.1429C21.4197 13.004 20.4166 11.0937 18.3874 9.93158C17.0061 9.29779 15.5764 8.79803 14.124 8.35116C14.124 8.13174 14.124 7.91233 14.124 7.68626C14.4879 7.75826 14.4879 7.75826 14.859 7.83171C17.1371 8.2367 19.3343 8.42307 21.6456 8.43427C22.0354 8.43877 22.0354 8.43877 22.4331 8.44336C23.7149 8.43663 24.3369 8.41312 25.4272 7.68626C26.046 5.82993 25.8054 3.9258 25.4272 2.03467ZM19.1107 20.3192C19.1107 20.4289 19.1107 20.5387 19.1107 20.6517C19.769 20.6517 20.4272 20.6517 21.1054 20.6517C21.1054 20.542 21.1054 20.4323 21.1054 20.3192C20.4472 20.3192 19.7889 20.3192 19.1107 20.3192Z" fill="#2391BF"/>
<path id="Vector_3" d="M28.4191 5.69141C29.009 5.88871 29.5975 6.09042 30.1852 6.29397C30.5131 6.40582 30.8409 6.51767 31.1787 6.63291C32.0612 7.01477 32.5162 7.24503 33.0734 8.01853C34.0046 11.0775 33.7866 15.4437 32.4085 18.3244C30.2777 21.9144 27.101 23.8686 23.1623 25.0772C20.8731 25.5817 18.0366 25.6696 15.7861 24.9733C15.7861 24.7539 15.7861 24.5345 15.7861 24.3084C16.0797 24.2836 16.3732 24.2587 16.6757 24.2331C20.5087 23.8132 23.4899 22.6399 26.1621 19.7918C28.62 16.4753 29.2979 13.0397 29.084 9.01587C28.916 7.89257 28.6922 6.79363 28.4191 5.69141Z" fill="#0D0D0C"/>
<path id="Vector_4" d="M89.4855 9.59767C89.8478 9.59081 90.2102 9.58396 90.5835 9.57689C92.4857 9.56763 93.9486 9.5621 95.5734 10.6781C96.3011 11.5639 96.2376 12.028 96.1968 13.1923C95.9059 14.335 95.9059 14.335 95.3423 14.8908C93.9639 15.6851 92.485 15.5716 90.9192 15.6648C93.0585 16.6522 93.0585 16.6522 95.241 17.6595C95.1313 18.0983 95.0216 18.5372 94.9085 18.9893C93.124 18.683 91.6349 17.9868 90.0049 17.2232C89.714 17.0931 89.423 16.963 89.1232 16.829C88.8468 16.6998 88.5704 16.5706 88.2856 16.4375C88.0333 16.3212 87.781 16.205 87.521 16.0852C86.9298 15.6648 86.9298 15.6648 86.6581 14.9724C86.638 14.7621 86.618 14.5517 86.5974 14.335C87.1352 13.7972 87.7464 13.9285 88.4895 13.8974C88.9603 13.8765 88.9603 13.8765 89.4407 13.8552C89.7709 13.8421 90.1011 13.8291 90.4413 13.8156C90.9385 13.7941 90.9385 13.7941 91.4458 13.7721C92.2675 13.7367 93.0893 13.7028 93.9112 13.6701C93.9112 13.0119 93.9112 12.3537 93.9112 11.6755C91.1685 11.5658 88.4258 11.456 85.6 11.343C85.4903 10.9042 85.3806 10.4654 85.2676 10.0132C86.1042 9.17658 88.3621 9.60289 89.4855 9.59767Z" fill="black"/>
<path id="Vector_5" d="M71.6368 9.68091C72.1853 9.79062 72.7339 9.90032 73.299 10.0134C73.4087 12.3172 73.5184 14.6211 73.6315 16.9947C74.7701 17.2794 75.5939 17.372 76.7482 17.3687C77.0524 17.3696 77.3567 17.3705 77.6702 17.3713C78.7988 17.3375 78.7988 17.3375 80.6129 16.9947C80.6129 14.6909 80.6129 12.387 80.6129 10.0134C81.0517 9.90365 81.4905 9.79394 81.9427 9.68091C82.7487 10.4869 82.3688 12.5263 82.379 13.6079C82.3886 13.9441 82.3983 14.2803 82.4082 14.6267C82.4294 17.0972 82.4294 17.0972 81.6868 18.2038C80.1689 19.1315 78.5686 19.0606 76.8313 19.0725C76.5844 19.0794 76.3376 19.0862 76.0833 19.0933C74.4732 19.1047 73.3465 18.9158 71.9692 17.9921C71.3447 17.0052 71.2219 16.2469 71.2277 15.0897C71.2284 14.7955 71.229 14.5013 71.2297 14.1982C71.2338 13.8937 71.2378 13.5892 71.242 13.2755C71.2422 12.9672 71.2424 12.6588 71.2427 12.3411C71.2577 10.06 71.2577 10.06 71.6368 9.68091Z" fill="black"/>
<path id="Vector_6" d="M25.4272 2.03467C25.6466 2.03467 25.866 2.03467 26.0921 2.03467C27.2494 4.87971 27.6862 7.91785 26.6531 10.8861C25.9113 12.3697 25.9113 12.3697 25.0948 13.0054C24.3779 13.1145 24.3779 13.1145 23.5988 13.0885C23.3416 13.0834 23.0845 13.0782 22.8196 13.0729C21.9135 12.9876 21.2879 12.8836 20.6769 12.1782C20.5303 11.9781 20.3837 11.7779 20.2327 11.5717C18.6654 9.66913 16.4199 9.05757 14.124 8.35116C14.124 8.13174 14.124 7.91233 14.124 7.68626C14.4879 7.75826 14.4879 7.75826 14.859 7.83171C17.1371 8.2367 19.3343 8.42307 21.6456 8.43427C22.0354 8.43877 22.0354 8.43877 22.4331 8.44336C23.7149 8.43663 24.3369 8.41312 25.4272 7.68626C26.046 5.82993 25.8054 3.9258 25.4272 2.03467Z" fill="#1B99CB"/>
<path id="Vector_7" d="M48.4907 9.59786C48.7375 9.591 48.9843 9.58414 49.2387 9.57708C50.8545 9.56566 51.9522 9.78514 53.3527 10.6783C53.7691 11.5111 53.723 12.0774 53.7176 13.008C53.7165 13.3359 53.7155 13.6637 53.7144 14.0015C53.7102 14.5164 53.7102 14.5164 53.7059 15.0417C53.7044 15.3875 53.7029 15.7333 53.7014 16.0897C53.6974 16.9455 53.692 17.8012 53.6851 18.657C53.041 18.844 53.041 18.844 52.3554 18.9895C51.8175 18.4516 51.9489 17.8404 51.9177 17.0974C51.9038 16.7835 51.8899 16.4696 51.8755 16.1461C51.8624 15.816 51.8494 15.4858 51.8359 15.1456C51.8215 14.8141 51.8072 14.4826 51.7924 14.1411C51.757 13.3193 51.7231 12.4975 51.6905 11.6756C50.5541 11.3687 49.5465 11.2987 48.366 11.3016C48.0232 11.3008 47.6803 11.2999 47.3271 11.299C46.2978 11.3151 46.2978 11.3151 45.0415 11.6756C44.9318 13.9795 44.8221 16.2834 44.7091 18.657C44.2702 18.7667 43.8314 18.8764 43.3793 18.9895C42.5732 18.1834 42.9532 16.1441 42.943 15.0624C42.9333 14.7263 42.9237 14.3901 42.9137 14.0437C42.8925 11.5732 42.8925 11.5732 43.6351 10.4666C45.153 9.53886 46.7533 9.6098 48.4907 9.59786Z" fill="black"/>
<path id="Vector_8" d="M62.0586 9.66015C62.3582 9.66315 62.6577 9.66615 62.9664 9.66924C63.1948 9.6731 63.4232 9.67695 63.6585 9.68093C63.7682 10.1198 63.8779 10.5586 63.991 11.0107C62.7763 11.618 61.338 11.5557 60.0016 11.6756C60.0016 13.4309 60.0016 15.1862 60.0016 16.9948C60.9508 17.3111 61.6337 17.3904 62.6235 17.4324C62.9353 17.4463 63.247 17.4602 63.5683 17.4746C63.8929 17.4877 64.2175 17.5007 64.552 17.5142C64.8804 17.5286 65.2089 17.5429 65.5474 17.5577C66.3583 17.593 67.1693 17.6269 67.9803 17.6597C67.8706 18.0985 67.7609 18.5373 67.6479 18.9894C66.4082 19.0185 65.1686 19.0362 63.9286 19.0518C63.4025 19.0643 63.4025 19.0643 62.8657 19.0771C62.3563 19.0819 62.3563 19.0819 61.8366 19.0868C61.5249 19.0921 61.2133 19.0973 60.8922 19.1027C59.7305 18.955 58.8398 18.4925 58.0069 17.6597C57.9054 16.6308 57.9144 15.5969 57.903 14.5637C57.8934 14.2751 57.8837 13.9865 57.8738 13.6891C57.8525 11.5574 57.8525 11.5574 58.616 10.4978C59.7792 9.71601 60.6935 9.64242 62.0586 9.66015Z" fill="black"/>
<path id="Vector_9" d="M110.201 10.6782C110.735 11.7469 110.553 12.8179 110.534 14.0027C109.711 13.8381 109.711 13.8381 108.871 13.6702C108.762 13.012 108.652 12.3537 108.539 11.6755C106.454 11.6755 104.37 11.6755 102.222 11.6755C102.003 12.4435 101.784 13.2114 101.558 14.0027C101.009 13.893 100.46 13.7833 99.8953 13.6702C99.7914 12.7768 99.7914 12.7768 99.8953 11.6755C102.162 8.84175 107.215 8.82954 110.201 10.6782Z" fill="black"/>
<path id="Vector_10" d="M100.228 14.6675C100.667 14.6675 101.106 14.6675 101.558 14.6675C101.668 15.5451 101.777 16.4228 101.89 17.3271C102.812 17.336 103.733 17.3426 104.654 17.3478C105.046 17.352 105.046 17.352 105.445 17.3563C105.823 17.3579 105.823 17.3579 106.208 17.3595C106.556 17.3621 106.556 17.3621 106.91 17.3648C107.617 17.35 107.617 17.35 108.539 16.9946C108.948 15.8271 108.948 15.8271 109.204 14.6675C109.643 14.6675 110.082 14.6675 110.534 14.6675C110.61 15.6759 110.65 16.6533 110.534 17.6595C109.714 18.5646 108.8 18.9393 107.571 19.0429C106.799 19.058 106.028 19.0675 105.256 19.0724C104.99 19.0793 104.723 19.0861 104.447 19.0932C102.876 19.1035 101.829 19.0237 100.561 17.9919C99.798 16.848 99.8084 16.3402 99.8958 14.9999C100.005 14.8902 100.115 14.7805 100.228 14.6675Z" fill="black"/>
<path id="Vector_11" d="M24.0976 3.69666C24.8175 4.77654 24.9459 5.10323 24.7625 6.35624C24.2431 7.12502 24.2431 7.12502 23.4327 7.68602C22.2817 7.82738 21.493 7.89847 20.4615 7.3328C19.9041 6.31642 19.9868 5.49499 20.1083 4.36156C21.2181 2.77603 22.4627 3.00094 24.0976 3.69666Z" fill="#1B99CB"/>
<path id="Vector_12" d="M18.113 12.6729C18.6615 12.6729 19.2101 12.6729 19.7752 12.6729C19.8849 13.1117 19.9946 13.5505 20.1077 14.0026C20.4368 14.0026 20.7659 14.0026 21.105 14.0026C21.105 14.6609 21.105 15.3191 21.105 15.9973C20.7759 15.9973 20.4468 15.9973 20.1077 15.9973C20.1077 16.3264 20.1077 16.6556 20.1077 16.9947C19.4494 16.9947 18.7912 16.9947 18.113 16.9947C18.113 16.6655 18.113 16.3364 18.113 15.9973C17.6742 15.8876 17.2353 15.7779 16.7832 15.6649C16.7832 15.1163 16.7832 14.5678 16.7832 14.0026C17.222 14.0026 17.6609 14.0026 18.113 14.0026C18.113 13.5638 18.113 13.125 18.113 12.6729Z" fill="black"/>
<path id="Vector_13" d="M60.002 13.6702C62.5252 13.6702 65.0485 13.6702 67.6482 13.6702C67.7579 14.109 67.8676 14.5478 67.9807 15C65.3477 15 62.7147 15 60.002 15C60.002 14.5611 60.002 14.1223 60.002 13.6702Z" fill="black"/>
<path id="Vector_14" d="M54.018 21.6489C54.6413 22.0437 54.6413 22.0437 55.0153 22.6463C54.9738 23.4982 54.9738 23.4982 54.6829 24.3085C53.6855 24.9734 53.6855 24.9734 52.8336 24.9111C52.0233 24.641 52.0233 24.641 51.3584 23.6436C51.4415 22.771 51.4415 22.771 51.6908 21.9814C52.5381 21.5577 53.0785 21.5573 54.018 21.6489ZM53.0206 22.3138C52.6915 22.8075 52.6915 22.8075 52.3557 23.3112C52.8494 23.6403 52.8494 23.6403 53.3531 23.9761C53.4628 23.5372 53.5725 23.0984 53.6855 22.6463C53.4661 22.5366 53.2467 22.4269 53.0206 22.3138Z" fill="#1C9DCF"/>
<path id="Vector_15" d="M76.624 21.6489C76.9531 21.6489 77.2823 21.6489 77.6214 21.6489C77.8408 21.8683 78.0602 22.0878 78.2863 22.3138C78.2863 22.0944 78.2863 21.875 78.2863 21.6489C78.7251 21.6489 79.1639 21.6489 79.616 21.6489C79.616 22.746 79.616 23.8431 79.616 24.9734C79.0675 24.6443 78.519 24.3151 77.9538 23.9761C77.8441 24.1955 77.7344 24.4149 77.6214 24.6409C77.2922 24.6409 76.9631 24.6409 76.624 24.6409C76.624 23.6536 76.624 22.6662 76.624 21.6489Z" fill="#1C9DCF"/>
<path id="Vector_16" d="M103.885 21.6489C105.215 21.9814 105.215 21.9814 105.547 22.3138C105.657 22.0944 105.766 21.875 105.879 21.6489C106.209 21.6489 106.538 21.6489 106.877 21.6489C106.877 22.746 106.877 23.8431 106.877 24.9734C105.547 24.3085 105.547 24.3085 105.215 23.6436C105.105 23.9727 104.995 24.3019 104.882 24.6409C104.553 24.6409 104.224 24.6409 103.885 24.6409C103.885 23.6536 103.885 22.6662 103.885 21.6489Z" fill="#1C9DCF"/>
<path id="Vector_17" d="M88.5918 21.6489C89.9216 21.9814 89.9216 21.9814 90.254 22.3138C90.3637 22.0944 90.4734 21.875 90.5865 21.6489C90.9156 21.6489 91.2447 21.6489 91.5838 21.6489C91.5838 22.746 91.5838 23.8431 91.5838 24.9734C90.5865 24.6409 90.5865 24.6409 89.9216 23.6436C89.8119 23.9727 89.7022 24.3019 89.5891 24.6409C89.26 24.6409 88.9309 24.6409 88.5918 24.6409C88.5918 23.6536 88.5918 22.6662 88.5918 21.6489Z" fill="#1C9DCF"/>
<path id="Vector_18" d="M69.6426 21.6489C70.9724 21.9814 70.9724 21.9814 71.3048 22.3138C71.4145 22.0944 71.5242 21.875 71.6373 21.6489C71.9664 21.6489 72.2955 21.6489 72.6346 21.6489C72.6346 22.746 72.6346 23.8431 72.6346 24.9734C72.0861 24.5346 71.5375 24.0957 70.9724 23.6436C70.8627 23.9727 70.753 24.3019 70.6399 24.6409C70.3108 24.6409 69.9817 24.6409 69.6426 24.6409C69.6426 23.6536 69.6426 22.6662 69.6426 21.6489Z" fill="#1C9DCF"/>
<path id="Vector_19" d="M67.6475 21.5659C68.6448 21.649 68.6448 21.649 69.3097 22.3139C69.4344 23.1243 69.4344 23.1243 69.3097 23.9762C68.7487 24.6203 68.7487 24.6203 67.9799 24.9735C67.1845 24.7515 66.5767 24.5676 65.9852 23.9762C65.9229 23.1658 65.9229 23.1658 65.9852 22.3139C66.6501 21.649 66.6501 21.649 67.6475 21.5659ZM67.315 22.3139C67.2053 22.7528 67.0956 23.1916 66.9826 23.6437C67.4214 23.6437 67.8602 23.6437 68.3124 23.6437C68.0929 23.2049 67.8735 22.7661 67.6475 22.3139C67.5378 22.3139 67.428 22.3139 67.315 22.3139Z" fill="#1C9DCF"/>
<path id="Vector_20" d="M100.56 21.649C101.557 21.5451 101.557 21.5451 102.555 21.649C103.22 22.3139 103.22 22.3139 103.344 23.1242C103.22 23.9761 103.22 23.9761 102.659 24.6202C101.89 24.9734 101.89 24.9734 100.996 24.8072C100.228 24.3085 100.228 24.3085 99.9159 23.4982C99.8952 22.6463 99.8952 22.6463 100.56 21.649ZM100.892 22.6463C101.002 23.0851 101.112 23.524 101.225 23.9761C101.554 23.8664 101.883 23.7567 102.222 23.6436C102.113 23.2048 102.003 22.766 101.89 22.3139C101.483 22.2891 101.483 22.2891 100.892 22.6463Z" fill="#1C9DCF"/>
<path id="Vector_21" d="M85.6006 21.6489C86.2588 21.6489 86.9171 21.6489 87.5953 21.6489C87.8909 22.7471 88.0816 23.8507 88.2602 24.9734C88.0682 24.8568 87.8762 24.7403 87.6784 24.6202C86.8505 24.1879 86.8505 24.1879 85.6006 24.6409C85.6006 23.6536 85.6006 22.6662 85.6006 21.6489Z" fill="#1C9DCF"/>
<path id="Vector_22" d="M58.007 21.6489C58.3361 21.6489 58.6652 21.6489 59.0043 21.6489C59.0043 22.4169 59.0043 23.1848 59.0043 23.9761C59.2238 23.9761 59.4432 23.9761 59.6692 23.9761C59.6692 23.2081 59.6692 22.4401 59.6692 21.6489C59.9984 21.6489 60.3275 21.6489 60.6666 21.6489C60.6666 22.5266 60.6666 23.4042 60.6666 24.3085C59.8978 24.6825 59.8978 24.6825 59.0043 24.9734C58.6752 24.754 58.3461 24.5346 58.007 24.3085C57.8712 23.4069 57.9627 22.5652 58.007 21.6489Z" fill="#1C9DCF"/>
<path id="Vector_23" d="M43.0469 21.6489C43.5954 21.6489 44.1439 21.6489 44.7091 21.6489C45.0623 22.2515 45.0623 22.2515 45.374 22.9787C45.2643 23.3078 45.1546 23.637 45.0416 23.9761C45.261 23.9761 45.4804 23.9761 45.7064 23.9761C45.5967 24.3052 45.487 24.6343 45.374 24.9734C44.6061 24.8637 43.8381 24.754 43.0469 24.6409C43.0469 23.6536 43.0469 22.6662 43.0469 21.6489Z" fill="#1C9DCF"/>
<path id="Vector_24" d="M16.5136 10.4496C16.7125 10.525 16.9113 10.6004 17.1162 10.6781C17.1162 10.8975 17.1162 11.1169 17.1162 11.343C17.3356 11.343 17.555 11.343 17.7811 11.343C17.6129 12.064 17.4487 12.6727 17.1162 13.3377C16.6774 13.3377 16.2385 13.3377 15.7864 13.3377C15.7864 13.1183 15.7864 12.8989 15.7864 12.6728C15.4573 12.5631 15.1282 12.4534 14.7891 12.3404C14.7891 11.343 14.7891 11.343 15.2046 10.7612C15.7864 10.3457 15.7864 10.3457 16.5136 10.4496Z" fill="black"/>
<path id="Vector_25" d="M108.206 21.6489C108.535 21.6489 108.865 21.6489 109.204 21.6489C109.533 22.6363 109.862 23.6237 110.201 24.6409C109.738 24.6307 109.738 24.6307 109.266 24.6202C108.199 24.5885 108.199 24.5885 107.209 24.9734C107.412 23.7906 107.734 22.7517 108.206 21.6489Z" fill="#1C9DCF"/>
<path id="Vector_26" d="M82.9404 21.6489C83.5987 21.6489 84.2569 21.6489 84.9351 21.6489C84.9283 21.9575 84.9214 22.266 84.9143 22.5839C84.8827 23.6512 84.8827 23.6512 85.2676 24.6409C84.4996 24.6409 83.7317 24.6409 82.9404 24.6409C82.9404 23.6536 82.9404 22.6662 82.9404 21.6489Z" fill="#1C9DCF"/>
<path id="Vector_27" d="M92.9143 21.6489C93.2435 21.6489 93.5726 21.6489 93.9117 21.6489C94.2408 22.6363 94.5699 23.6237 94.909 24.6409C94.4462 24.6307 94.4462 24.6307 93.974 24.6202C92.9067 24.5885 92.9067 24.5885 91.917 24.9734C92.1198 23.7906 92.4417 22.7517 92.9143 21.6489Z" fill="#1C9DCF"/>
<path id="Vector_28" d="M51.0258 21.3164C51.3582 21.9813 51.3582 21.9813 51.1725 22.628C51.0761 22.8671 50.9797 23.1063 50.8803 23.3526C50.7848 23.5935 50.6892 23.8343 50.5907 24.0825C50.5149 24.2667 50.439 24.451 50.3609 24.6409C49.722 24.524 49.722 24.524 49.0311 24.3084C48.5252 23.3473 48.3662 22.7399 48.3662 21.6489C48.6953 21.6489 49.0245 21.6489 49.3636 21.6489C49.4733 21.8683 49.583 22.0877 49.696 22.3137C49.8057 22.0943 49.9154 21.8749 50.0284 21.6489C50.3576 21.5391 50.6867 21.4294 51.0258 21.3164Z" fill="#1C9DCF"/>
<path id="Vector_29" d="M46.0391 21.6489C46.6973 21.6489 47.3556 21.6489 48.0337 21.6489C47.972 21.9575 47.9103 22.266 47.8467 22.5839C47.6211 23.6481 47.6211 23.6481 48.0337 24.6409C47.3755 24.6409 46.7173 24.6409 46.0391 24.6409C46.0391 23.6536 46.0391 22.6662 46.0391 21.6489Z" fill="#1C9DCF"/>
<path id="Vector_30" d="M95.2412 21.6489C96.1189 21.6489 96.9965 21.6489 97.9008 21.6489C97.9008 21.8683 97.9008 22.0878 97.9008 22.3138C97.6814 22.3138 97.462 22.3138 97.2359 22.3138C97.2359 23.0818 97.2359 23.8497 97.2359 24.6409C96.7971 24.6409 96.3582 24.6409 95.9061 24.6409C95.9061 23.9827 95.9061 23.3245 95.9061 22.6463C95.6867 22.5366 95.4673 22.4269 95.2412 22.3138C95.2412 22.0944 95.2412 21.875 95.2412 21.6489Z" fill="#1C9DCF"/>
<path id="Vector_31" d="M110.533 21.6489C110.972 21.6489 111.411 21.6489 111.863 21.6489C111.863 22.4169 111.863 23.1848 111.863 23.9761C112.082 23.9761 112.302 23.9761 112.528 23.9761C112.528 24.1955 112.528 24.4149 112.528 24.6409C111.87 24.6409 111.211 24.6409 110.533 24.6409C110.533 23.6536 110.533 22.6662 110.533 21.6489Z" fill="#1C9DCF"/>
<path id="Vector_32" d="M60.999 21.6489C61.9864 21.6489 62.9738 21.6489 63.991 21.6489C63.991 21.8683 63.991 22.0878 63.991 22.3138C63.6619 22.3138 63.3328 22.3138 62.9937 22.3138C62.9937 23.0818 62.9937 23.8497 62.9937 24.6409C62.6646 24.6409 62.3355 24.6409 61.9964 24.6409C61.9964 23.873 61.9964 23.105 61.9964 22.3138C61.6672 22.3138 61.3381 22.3138 60.999 22.3138C60.999 22.0944 60.999 21.875 60.999 21.6489Z" fill="#1C9DCF"/>
<path id="Vector_33" d="M79.9482 21.6489C80.8259 21.6489 81.7036 21.6489 82.6078 21.6489C82.6078 21.8683 82.6078 22.0878 82.6078 22.3138C82.2787 22.3138 81.9496 22.3138 81.6105 22.3138C81.6105 23.0818 81.6105 23.8497 81.6105 24.6409C81.2814 24.6409 80.9522 24.6409 80.6131 24.6409C80.6131 23.873 80.6131 23.105 80.6131 22.3138C80.3937 22.3138 80.1743 22.3138 79.9482 22.3138C79.9482 22.0944 79.9482 21.875 79.9482 21.6489Z" fill="#1C9DCF"/>
<path id="Vector_34" d="M98.2334 21.6489C98.6722 21.6489 99.1111 21.6489 99.5632 21.6489C99.5632 22.6363 99.5632 23.6237 99.5632 24.6409C99.1244 24.6409 98.6855 24.6409 98.2334 24.6409C98.2334 23.6536 98.2334 22.6662 98.2334 21.6489Z" fill="#1C9DCF"/>
<path id="Vector_35" d="M74.6299 21.6489C75.0687 21.6489 75.5075 21.6489 75.9597 21.6489C75.9597 22.6363 75.9597 23.6237 75.9597 24.6409C75.5208 24.6409 75.082 24.6409 74.6299 24.6409C74.6299 23.6536 74.6299 22.6662 74.6299 21.6489Z" fill="#1C9DCF"/>
<path id="Vector_36" d="M55.3477 21.6489C55.6768 21.6489 56.0059 21.6489 56.345 21.6489C56.345 22.4169 56.345 23.1848 56.345 23.9761C56.7838 23.9761 57.2227 23.9761 57.6748 23.9761C57.6748 24.1955 57.6748 24.4149 57.6748 24.6409C56.9068 24.6409 56.1389 24.6409 55.3477 24.6409C55.3477 23.6536 55.3477 22.6662 55.3477 21.6489Z" fill="#1C9DCF"/>
<path id="Vector_37" d="M64.3232 21.6489C64.6524 21.6489 64.9815 21.6489 65.3206 21.6489C65.3206 22.6363 65.3206 23.6237 65.3206 24.6409C64.9915 24.6409 64.6623 24.6409 64.3232 24.6409C64.3232 23.6536 64.3232 22.6662 64.3232 21.6489Z" fill="#1C9DCF"/>
</g>
</svg>
