<svg width="141" height="40" viewBox="0 0 141 40" fill="none" xmlns="http://www.w3.org/2000/svg">
<g id="neurotech-international-logo-inverse 1" clip-path="url(#clip0_2881_1516)">
<g id="Group">
<path id="logoMark_PathItem__00000134936828222764256170000018012311260749661098_" d="M21.9834 19.9999C21.9834 23.5247 20.7919 30.7233 12.6501 38.9644C12.5011 39.1134 12.3522 39.2127 12.1536 39.2623V25.5105C14.338 24.2694 16.026 22.2836 16.9196 19.9502C18.26 19.9006 19.3025 18.7588 19.2529 17.4183C19.2033 16.0779 18.0614 15.0353 16.721 15.085C15.3806 15.1346 14.338 16.2765 14.3877 17.6169C14.4373 18.4609 14.8841 19.2552 15.6288 19.6524C14.9338 21.4396 13.6926 22.929 12.1536 24.0212V13.1488C13.4444 12.8013 14.1891 11.4609 13.8416 10.1701C13.494 8.87932 12.1536 8.13464 10.8628 8.48216C9.57205 8.82967 8.82737 10.1701 9.17489 11.4609C9.42311 12.3049 10.0685 12.9502 10.8628 13.1488V30.624C9.37347 29.5318 8.18198 28.0424 7.53659 26.3545C8.67843 25.6595 9.0756 24.1701 8.38056 23.0283C7.68553 21.8864 6.19616 21.4892 5.05432 22.1843C3.91248 22.8793 3.51531 24.3687 4.21035 25.5105C4.65716 26.2552 5.45148 26.702 6.29545 26.702C7.13943 28.9857 8.77772 30.9219 10.9125 32.163V39.3119C10.7139 39.2623 10.565 39.1134 10.416 39.0141C2.17489 30.7233 0.983398 23.5744 0.983398 19.9999C0.983398 16.4254 2.17489 9.32613 10.3167 1.08499C10.9621 0.489247 11.955 0.489247 12.6004 1.08499C20.7423 9.32613 21.9834 16.4751 21.9834 19.9999Z" fill="url(#paint0_linear_2881_1516)"/>
<path id="logoMark_PathItem_2_00000019652216769903812690000000359861105703947700_" d="M7.3872 24.2197C7.3872 24.8651 6.89075 25.3616 6.24536 25.3616C5.59997 25.3616 5.10352 24.8651 5.10352 24.2197C5.10352 23.5743 5.59997 23.0779 6.24536 23.0779C6.29501 23.0779 6.34465 23.0779 6.3943 23.0779C6.99004 23.1772 7.3872 23.6736 7.3872 24.2197Z" fill="#252525"/>
<path id="logoMark_PathItem_3_00000066507095572066170070000014262381441963758497_" d="M12.6001 10.8154C12.6001 11.4608 12.1036 11.9573 11.4583 11.9573C10.8129 11.9573 10.3164 11.4608 10.3164 10.8154C10.3164 10.17 10.8129 9.67358 11.4583 9.67358C12.1036 9.67358 12.6001 10.17 12.6001 10.8154Z" fill="#252525"/>
<path id="logoMark_PathItem_4_00000178893873885544234540000009219297084761239981_" d="M17.9624 17.5176C17.9624 17.9147 17.7638 18.3119 17.4163 18.5105C17.2674 18.6098 17.0191 18.6594 16.8206 18.6594C16.1752 18.6594 15.6787 18.163 15.6787 17.5176C15.6787 16.8722 16.1752 16.3757 16.8206 16.3757C17.4163 16.3757 17.9624 16.8722 17.9624 17.5176Z" fill="#252525"/>
<path id="fullLogo_00000049930260340219810520000009126712100861863308_" d="M44.5219 7.43954C44.2736 7.43954 44.0254 7.53883 43.8765 7.68777C43.6779 7.83671 43.5786 8.08493 43.6282 8.33316V20.7942L33.7488 7.78706C33.4509 7.3899 32.9048 7.29061 32.5077 7.58848C32.2594 7.78706 32.1602 8.03529 32.1602 8.33316V23.1275C32.1602 23.3757 32.2594 23.6239 32.4084 23.7729C32.5573 23.9715 32.8055 24.0707 33.0538 24.0211C33.5502 24.0211 33.9474 23.6239 33.9474 23.1275V10.7161L43.8268 23.7729C43.9261 23.8722 44.0254 23.9715 44.1247 24.0211C44.224 24.0707 44.3729 24.0707 44.5219 24.1204C45.0183 24.1204 45.4155 23.7232 45.4155 23.2268V8.33316C45.4155 8.08493 45.3162 7.83671 45.1672 7.68777C45.0183 7.53883 44.7701 7.43954 44.5219 7.43954Z" fill="#252525"/>
<path id="fullLogo-2_00000137835140883250265190000008407064232575781265_" d="M56.7843 13.0496C55.9403 12.5532 54.9474 12.3049 53.9545 12.3049C52.9119 12.3049 51.919 12.5532 51.0254 13.0496C50.1814 13.5461 49.4864 14.2907 49.0396 15.1347C48.5431 16.078 48.2949 17.1205 48.2949 18.2127C48.2949 19.3049 48.5431 20.3475 49.0396 21.2907C49.5361 22.1844 50.2807 22.8794 51.1247 23.3759C52.7134 24.2198 54.5999 24.3688 56.2878 23.773C56.9332 23.5744 57.529 23.2269 58.0751 22.7801C58.2736 22.6312 58.3233 22.4326 58.3233 22.234C58.3233 21.9858 58.1744 21.7872 58.0254 21.6383C57.8765 21.4893 57.6779 21.4397 57.4793 21.4397C57.2807 21.4397 57.0822 21.539 56.8836 21.6879C56.5361 21.9858 56.1389 22.1844 55.6921 22.3333C55.1956 22.4822 54.6992 22.5815 54.2027 22.5815C53.4084 22.5815 52.6637 22.3829 51.9687 22.0354C51.3233 21.6879 50.8268 21.1418 50.4297 20.4964C50.1318 20 49.9829 19.4539 49.9332 18.8581H58.3729C58.5715 18.8581 58.8197 18.8085 58.9687 18.6099C59.1176 18.461 59.2169 18.2624 59.2169 18.0142C59.2169 16.9716 59.0183 15.9787 58.5715 15.0354C58.224 14.2411 57.5786 13.5461 56.7843 13.0496ZM51.8694 14.4893C52.5148 14.0922 53.2098 13.8936 53.9545 13.9432C55.3446 13.8936 56.6353 14.6879 57.1814 15.929C57.38 16.3759 57.529 16.8723 57.5786 17.4184H50.0822C50.1318 16.922 50.2807 16.4751 50.529 16.078C50.7772 15.3829 51.2736 14.8368 51.8694 14.4893Z" fill="#252525"/>
<path id="fullLogo-3_00000169533671368741853710000008815508251845991071_" d="M71.2315 12.4041C70.9833 12.4041 70.7351 12.5033 70.5861 12.6523C70.4372 12.8012 70.3379 13.0494 70.3379 13.2977V19.5033C70.3379 20.0494 70.189 20.5955 69.8911 21.0423C69.5932 21.4892 69.1464 21.8863 68.65 22.0849C68.1039 22.3331 67.4585 22.4821 66.8627 22.4821C66.2173 22.4821 65.572 22.3331 64.9762 22.0849C64.4301 21.8367 63.9833 21.3899 63.6854 20.8438C63.3379 20.1984 63.189 19.4537 63.189 18.7587V13.2977C63.189 13.0494 63.0897 12.8509 62.9408 12.6523C62.7422 12.5033 62.5436 12.4041 62.2954 12.4041C61.7989 12.4041 61.4017 12.7516 61.4017 13.248V13.2977V18.709C61.3521 19.7516 61.6003 20.7941 62.0968 21.6877C62.5436 22.4821 63.189 23.1275 63.9337 23.5246C64.7776 23.9714 65.6712 24.17 66.6145 24.17C67.5081 24.17 68.3521 23.9714 69.1464 23.5743C69.5932 23.326 70.04 22.9785 70.3876 22.5814V23.1275C70.3876 23.6239 70.7847 24.0707 71.2812 24.0707C71.7776 24.0707 72.2244 23.6736 72.2244 23.1771V23.1275V13.2977C72.2244 13.0494 72.1251 12.8012 71.9762 12.6523C71.6783 12.5033 71.4798 12.4041 71.2315 12.4041Z" fill="#252525"/>
<path id="fullLogo-4_00000089549947941266039500000014708389176683695506_" d="M82.5008 12.6028C82.0044 12.3545 81.4086 12.2552 80.8625 12.3049C80.0682 12.3049 79.2739 12.5035 78.5788 12.9006C78.0824 13.1985 77.5859 13.5957 77.2384 14.0921V13.3474C77.2384 12.851 76.8412 12.4538 76.3448 12.4538C75.8483 12.4538 75.4512 12.851 75.4512 13.3474V23.2269C75.4512 23.7233 75.8483 24.1205 76.3448 24.1205C76.8412 24.1205 77.2384 23.7233 77.2384 23.2269V16.8723C77.2384 16.2765 77.437 15.6808 77.8342 15.1843C78.2313 14.6879 78.7774 14.3404 79.3732 14.1914C80.0682 13.9928 80.8625 13.9432 81.6072 14.0425C81.8554 14.0425 82.054 14.0425 82.2029 14.0425C82.3519 14.0425 82.5505 13.9928 82.6498 13.9432C82.7987 13.8439 82.898 13.695 82.898 13.4964C82.9973 13.1489 82.7987 12.7517 82.5008 12.6028Z" fill="#252525"/>
<path id="fullLogo-5_00000059999232390392389170000013370990522348476834_" d="M92.2812 13.099C91.3379 12.5529 90.2954 12.3047 89.2528 12.3544C88.2103 12.3544 87.1181 12.6026 86.2244 13.099C85.3308 13.5955 84.6358 14.3402 84.1393 15.1841C83.0968 17.0707 83.0968 19.404 84.1393 21.2905C84.6358 22.1841 85.3805 22.8792 86.2244 23.3756C88.111 24.4182 90.3947 24.4182 92.2812 23.3756C93.1748 22.8792 93.8698 22.1345 94.3663 21.2905C94.8627 20.3473 95.1606 19.3047 95.111 18.2622C95.111 17.17 94.8627 16.1274 94.3166 15.1841C93.8698 14.3402 93.1748 13.5955 92.2812 13.099ZM92.8769 20.4466C92.5294 21.0919 92.033 21.5884 91.4372 21.9856C90.0968 22.7302 88.5081 22.7302 87.1677 21.9856C86.572 21.638 86.0259 21.0919 85.6783 20.4466C85.3308 19.7515 85.1322 19.0068 85.1322 18.2622C85.1322 17.4678 85.3308 16.7231 85.6783 16.0281C86.0259 15.3827 86.5223 14.8863 87.1677 14.4891C88.5081 13.7444 90.0968 13.7444 91.4372 14.4891C92.033 14.8366 92.5791 15.3827 92.8769 16.0281C93.2244 16.7231 93.423 17.4678 93.3734 18.2622C93.3734 19.0068 93.2244 19.8012 92.8769 20.4466Z" fill="#252525"/>
<path id="fullLogo-6_00000148622782587215555180000018110683607637223307_" d="M102.856 22.2837H102.26C101.714 22.2837 101.168 22.0354 100.771 21.6383C100.374 21.1915 100.175 20.5957 100.175 20V14.39H102.409C102.608 14.39 102.856 14.3404 103.005 14.1915C103.154 14.0425 103.253 13.8439 103.253 13.6454C103.253 13.4468 103.154 13.2482 103.005 13.0993C102.856 12.9503 102.608 12.851 102.409 12.851H100.175V9.62409C100.175 9.37586 100.076 9.12763 99.9268 8.9787C99.7779 8.82976 99.5297 8.73047 99.2815 8.73047C99.0332 8.73047 98.785 8.82976 98.6361 8.9787C98.4871 9.17728 98.3878 9.37586 98.3878 9.62409V12.851H97.1467C96.9481 12.851 96.6999 12.9007 96.551 13.0993C96.402 13.2482 96.3027 13.4468 96.3027 13.6454C96.3027 13.8439 96.402 14.0425 96.551 14.1915C96.6999 14.3404 96.9481 14.39 97.1467 14.39H98.3878V19.9503C98.3878 20.695 98.5368 21.39 98.8843 22.0354C99.5297 23.2766 100.82 24.0709 102.211 24.0212H102.657C102.906 24.0212 103.203 23.922 103.402 23.773C103.601 23.6241 103.7 23.3759 103.7 23.1276C103.7 22.8794 103.65 22.6312 103.452 22.4822C103.303 22.3333 103.104 22.2837 102.856 22.2837Z" fill="#252525"/>
<path id="fullLogo-7_00000103255116092235633050000015662190162085547921_" d="M113.679 13.0496C112.835 12.5532 111.842 12.3049 110.849 12.3049C109.806 12.3049 108.814 12.5532 107.92 13.0496C107.076 13.5461 106.381 14.2907 105.934 15.1347C105.438 16.078 105.189 17.1205 105.189 18.2127C105.189 19.3049 105.438 20.3475 105.934 21.2907C106.431 22.1844 107.175 22.8794 108.019 23.3759C109.608 24.2198 111.494 24.3688 113.182 23.773C113.828 23.5744 114.424 23.2269 114.97 22.7801C115.168 22.6312 115.218 22.4326 115.218 22.234C115.218 21.9858 115.069 21.7872 114.92 21.6383C114.771 21.4893 114.572 21.4397 114.374 21.4397C114.175 21.4397 113.977 21.539 113.778 21.6879C113.431 21.9858 113.033 22.1844 112.587 22.3333C112.09 22.4822 111.594 22.5815 111.097 22.5815C110.303 22.5815 109.558 22.3829 108.863 22.0354C108.218 21.6879 107.721 21.1418 107.324 20.4964C107.026 20 106.877 19.4539 106.828 18.8581H115.267C115.466 18.8581 115.714 18.8085 115.863 18.6099C116.012 18.461 116.111 18.2624 116.111 18.0142C116.111 16.9716 115.913 15.9787 115.466 15.0354C115.119 14.2411 114.473 13.5461 113.679 13.0496ZM108.764 14.4893C109.409 14.0922 110.104 13.8936 110.849 13.9432C112.239 13.8936 113.53 14.6879 114.076 15.929C114.275 16.3759 114.424 16.8723 114.473 17.4184H106.927C106.977 16.922 107.126 16.4751 107.374 16.078C107.672 15.3829 108.168 14.8368 108.764 14.4893Z" fill="#252525"/>
<path id="fullLogo-8_00000138533713718593990980000007126717313062131625_" d="M125.395 12.8014C124.65 12.4539 123.856 12.3049 123.012 12.3049C121.97 12.3049 120.977 12.5532 120.083 13.0993C119.239 13.5957 118.544 14.3404 118.097 15.234C117.601 16.1773 117.353 17.2198 117.353 18.2624C117.353 19.3049 117.601 20.3475 118.097 21.2907C118.594 22.1844 119.289 22.8794 120.182 23.4255C121.076 23.9716 122.119 24.2198 123.161 24.2198C124.601 24.2695 125.991 23.773 127.033 22.7801C127.182 22.6312 127.282 22.4326 127.232 22.1844C127.182 21.9361 127.083 21.7376 126.934 21.5886C126.785 21.4397 126.587 21.39 126.388 21.39C126.189 21.4397 125.991 21.4893 125.792 21.6383C125.445 21.9361 125.048 22.1347 124.65 22.2837C124.204 22.4326 123.707 22.4822 123.211 22.4822C122.466 22.4822 121.721 22.2837 121.076 21.9361C120.48 21.5886 119.984 21.0425 119.636 20.3971C119.289 19.7021 119.09 18.9574 119.14 18.2127C119.14 17.4184 119.289 16.6737 119.636 15.9787C120.629 14.0922 123.012 13.3475 124.899 14.39C125.296 14.5886 125.643 14.8865 125.991 15.234C126.14 15.4326 126.338 15.5319 126.537 15.5815C126.736 15.6312 126.934 15.5815 127.133 15.4326C127.331 15.2837 127.48 15.1347 127.53 14.8865C127.579 14.6879 127.53 14.4397 127.331 14.2907C126.785 13.695 126.09 13.1489 125.395 12.8014Z" fill="#252525"/>
<path id="fullLogo-9_00000037679188153023868580000018296383356376546199_" d="M140.289 14.7871C139.842 13.9927 139.197 13.3473 138.452 12.9502C137.608 12.5034 136.714 12.3048 135.771 12.3048C134.877 12.3048 134.033 12.5034 133.239 12.9005C132.743 13.1488 132.346 13.4963 131.948 13.8934V8.33315C131.948 8.08493 131.849 7.8367 131.7 7.63812C131.551 7.48918 131.303 7.38989 131.055 7.38989C130.807 7.38989 130.558 7.48918 130.409 7.63812C130.211 7.8367 130.161 8.03528 130.161 8.33315V23.1771C130.161 23.4254 130.26 23.6736 130.409 23.8225C130.608 23.9715 130.807 24.0707 131.055 24.0707C131.502 24.1204 131.899 23.7729 131.948 23.2764C131.948 23.2268 131.948 23.2268 131.948 23.1771V16.9715C131.948 16.4254 132.097 15.8793 132.395 15.4324C132.743 14.9856 133.14 14.5885 133.686 14.3899C134.232 14.1417 134.877 13.9927 135.473 13.9927C136.119 13.9927 136.764 14.1417 137.36 14.3899C137.906 14.6381 138.353 15.0849 138.65 15.631C138.998 16.2764 139.147 17.0211 139.147 17.7658V23.1771C139.147 23.4254 139.246 23.6239 139.395 23.8225C139.594 23.9715 139.792 24.0707 140.041 24.0707C140.537 24.0707 140.934 23.7232 140.934 23.2268V23.1771V17.7658C141.033 16.7232 140.785 15.6807 140.289 14.7871Z" fill="#252525"/>
<path id="fullLogo-10_00000134938108921182215000000005852562387036300442_" d="M32.9548 35.2906C32.7562 35.2906 32.6073 35.1417 32.5576 34.9431V28.8863C32.5576 28.787 32.6073 28.6878 32.6569 28.6381C32.7066 28.5885 32.8058 28.5388 32.9051 28.5388C33.0044 28.5388 33.1037 28.5885 33.203 28.6381C33.2527 28.6878 33.3023 28.787 33.3023 28.8863V34.8934C33.3023 34.9927 33.2527 35.092 33.203 35.1417C33.1534 35.2409 33.0541 35.2906 32.9548 35.2906Z" fill="#252525"/>
<path id="fullLogo-11_00000069356335605174784890000010325482334784478633_" d="M35.785 35.2906C35.6857 35.2906 35.5864 35.241 35.5368 35.1913C35.4871 35.1417 35.4375 35.0424 35.4375 34.9431V30.9218C35.4375 30.8225 35.4871 30.7232 35.5368 30.6239C35.5864 30.5743 35.6857 30.5247 35.785 30.5247C35.8843 30.5247 35.9836 30.5743 36.0332 30.6239C36.0829 30.6736 36.1325 30.7729 36.1325 30.9218V34.8935C36.1822 35.092 36.0332 35.2906 35.785 35.2906ZM39.4588 35.2906C39.3595 35.2906 39.2602 35.241 39.2105 35.1913C39.1609 35.1417 39.1113 35.0424 39.1113 34.9431V32.7091C39.1113 32.4112 39.0616 32.1133 38.9127 31.8651C38.7637 31.6665 38.6148 31.4679 38.3666 31.3686C38.1184 31.2693 37.8701 31.2197 37.6219 31.2197C37.3737 31.2197 37.1254 31.2693 36.8772 31.3686C36.6786 31.4679 36.4801 31.6169 36.3808 31.8154C36.2318 32.014 36.1822 32.2126 36.1822 32.4608H35.6857C35.6857 32.1133 35.785 31.7658 35.9836 31.4679C36.1822 31.17 36.4304 30.9218 36.7283 30.7729C37.0262 30.6239 37.3737 30.5247 37.7708 30.5247C38.168 30.5247 38.5155 30.6239 38.863 30.7729C39.1609 30.9218 39.4588 31.2197 39.6077 31.5176C39.8063 31.9147 39.9056 32.3119 39.9056 32.7587V34.8935C39.8559 35.092 39.707 35.2906 39.4588 35.2906Z" fill="#252525"/>
<path id="fullLogo-12_00000158732569402069003130000009177855627883343004_" d="M41.494 31.319C41.3947 31.319 41.2954 31.2694 41.2458 31.2197C41.1961 31.1701 41.1465 31.0708 41.1465 30.9715C41.1465 30.8722 41.1961 30.8225 41.2458 30.7233C41.2954 30.6736 41.3947 30.624 41.494 30.624H43.6288C43.728 30.624 43.8273 30.6736 43.877 30.7233C43.9266 30.7729 43.9763 30.8722 43.9763 30.9715C43.9763 31.0708 43.9266 31.1204 43.877 31.2197C43.8273 31.2694 43.728 31.319 43.6288 31.319H41.494ZM43.5791 35.2906C42.9834 35.2906 42.4869 34.9928 42.189 34.4963C42.0401 34.2481 41.9905 33.9502 41.9905 33.6523V29.4325C41.9905 29.3332 42.0401 29.2339 42.0897 29.1843C42.1394 29.1346 42.2387 29.085 42.338 29.085C42.4373 29.085 42.5366 29.1346 42.5862 29.1843C42.6358 29.2339 42.6855 29.3332 42.6855 29.4325V33.6523C42.6855 33.9006 42.7848 34.1488 42.9337 34.3474C43.0827 34.546 43.3309 34.5956 43.5295 34.5956H43.7777C43.877 34.5956 43.9763 34.6452 44.0259 34.6949C44.0756 34.7445 44.1252 34.8438 44.1252 34.9431C44.1252 35.0424 44.0756 35.1417 44.0259 35.1913C43.9266 35.241 43.8273 35.2906 43.728 35.2906H43.5791Z" fill="#252525"/>
<path id="fullLogo-13_00000080198424903757522860000009191299395153303479_" d="M47.8488 35.3404C47.402 35.3404 46.9552 35.2411 46.6077 35.0426C46.2601 34.844 45.9623 34.5461 45.7637 34.1986C45.5651 33.8014 45.4658 33.4042 45.4658 32.9574C45.4658 32.5106 45.5651 32.0638 45.7637 31.7163C45.9623 31.3688 46.2105 31.0709 46.558 30.8723C46.9055 30.6738 47.3523 30.5745 47.7495 30.5745C48.1467 30.5745 48.5438 30.6738 48.8914 30.8723C49.2389 31.0709 49.4871 31.3688 49.636 31.7163C49.8346 32.1135 49.8843 32.5106 49.8843 32.9078C49.8843 33.0071 49.8346 33.1064 49.785 33.156C49.7353 33.2057 49.636 33.2553 49.5367 33.2553H45.9126V32.6596H49.5864L49.2389 32.9078C49.2389 32.6099 49.1892 32.3121 49.0403 32.0638C48.7921 31.5674 48.2956 31.2199 47.6999 31.2695C47.402 31.2695 47.1041 31.3191 46.8559 31.5177C46.6077 31.6667 46.4091 31.8652 46.3098 32.1631C46.1609 32.461 46.1112 32.7589 46.1112 33.0567C46.1112 33.3546 46.1609 33.7021 46.3594 33.9503C46.5084 34.1986 46.707 34.4468 46.9552 34.5957C47.2531 34.7447 47.5509 34.844 47.8488 34.844C48.0474 34.844 48.246 34.7943 48.4445 34.7447C48.6431 34.695 48.7921 34.5957 48.941 34.4964C48.9906 34.4468 49.0899 34.3972 49.1892 34.3972C49.2885 34.3972 49.3382 34.3972 49.4375 34.4468C49.4871 34.4964 49.5367 34.5957 49.5864 34.695C49.5864 34.7943 49.5367 34.8936 49.4871 34.9433C49.2885 35.1418 49.0403 35.2411 48.7424 35.3404C48.4445 35.2908 48.1467 35.3404 47.8488 35.3404Z" fill="#252525"/>
<path id="fullLogo-14_00000041990768150116062260000012277408165648670139_" d="M51.8202 35.2907C51.6216 35.2907 51.4727 35.1914 51.4727 34.9928V34.9432V30.9219C51.4727 30.7233 51.6216 30.5247 51.8202 30.5247C52.0188 30.5247 52.2173 30.6737 52.2173 30.8723V30.9219V34.8935C52.2173 35.0921 52.118 35.2411 51.9195 35.2411C51.8698 35.2907 51.8202 35.2907 51.8202 35.2907ZM51.7705 32.312C51.7705 31.9645 51.8698 31.6666 52.0684 31.3687C52.2173 31.0708 52.4656 30.8723 52.7634 30.7233C53.0613 30.5744 53.3592 30.4751 53.7067 30.4751C53.9549 30.4751 54.1535 30.5247 54.4017 30.624C54.5507 30.6737 54.6003 30.8226 54.5507 30.9716C54.5507 31.0212 54.501 31.1205 54.4514 31.1701C54.4017 31.2198 54.3024 31.2198 54.2528 31.2198C54.2032 31.2198 54.1039 31.2198 54.0046 31.2198C53.7067 31.1701 53.4088 31.1701 53.111 31.2694C52.8627 31.3191 52.6641 31.468 52.4656 31.6666C52.3166 31.8652 52.2173 32.1134 52.2173 32.3616L51.7705 32.312Z" fill="#252525"/>
<path id="fullLogo-15_00000165192184103110251850000009100067263409529988_" d="M56.3378 35.2906C56.2385 35.2906 56.1392 35.241 56.0895 35.1913C56.0399 35.1417 55.9902 35.0424 55.9902 34.9431V30.9218C55.9902 30.8225 56.0399 30.7232 56.0895 30.6239C56.1392 30.5743 56.2385 30.5247 56.3378 30.5247C56.437 30.5247 56.5363 30.5743 56.586 30.6239C56.6356 30.6736 56.6853 30.7729 56.6853 30.9218V34.8935C56.6853 35.092 56.5363 35.2906 56.3378 35.2906ZM60.0115 35.2906C59.9122 35.2906 59.8129 35.241 59.7633 35.1913C59.7136 35.1417 59.664 35.0424 59.664 34.9431V32.7091C59.664 32.4112 59.6143 32.1133 59.4654 31.8651C59.3165 31.6665 59.1675 31.4679 58.9193 31.3686C58.6711 31.2693 58.4229 31.2197 58.1746 31.2197C57.9264 31.2197 57.6782 31.2693 57.4299 31.3686C57.2314 31.4679 57.0328 31.6169 56.9335 31.8154C56.7846 32.014 56.7349 32.2126 56.7349 32.4608H56.2385C56.2385 32.1133 56.3378 31.7658 56.5363 31.4679C56.7349 31.17 56.9831 30.9218 57.281 30.7729C57.5789 30.6239 57.9264 30.5247 58.3236 30.5247C58.7207 30.5247 59.0682 30.6239 59.4158 30.7729C59.7136 30.9218 60.0115 31.2197 60.1604 31.5176C60.359 31.9147 60.4583 32.3119 60.4583 32.7587V34.8935C60.359 35.092 60.2101 35.2906 60.0115 35.2906Z" fill="#252525"/>
<path id="fullLogo-16_00000091731468199558859050000001384472132090108836_" d="M64.3304 35.3403C63.9332 35.3403 63.4864 35.241 63.1389 35.0424C62.7914 34.8438 62.4935 34.5459 62.2949 34.1984C62.0964 33.8013 61.9971 33.4041 61.9971 32.9573C61.9971 32.5105 62.0964 32.1133 62.2949 31.7162C62.4935 31.3686 62.7914 31.0708 63.1389 30.8722C63.5361 30.6736 63.9332 30.5247 64.38 30.5743C64.8269 30.5743 65.224 30.6736 65.6212 30.8722C65.9687 31.0708 66.2666 31.3686 66.4652 31.7162C66.6637 32.1133 66.8127 32.5105 66.8127 32.9573L66.5148 33.1062C66.5148 33.5034 66.4155 33.9006 66.2169 34.2481C66.0183 34.5956 65.7701 34.8438 65.4226 35.0424C65.1247 35.241 64.7276 35.3403 64.3304 35.3403ZM64.4297 34.6452C64.7276 34.6452 65.0254 34.5956 65.2737 34.397C65.5219 34.2481 65.7205 34.0495 65.8694 33.7516C66.1673 33.2055 66.1673 32.5105 65.8694 31.9644C65.4226 31.1701 64.38 30.8722 63.5857 31.319C63.3375 31.4679 63.0893 31.7162 62.9403 31.9644C62.6425 32.5105 62.6425 33.2055 62.9403 33.7516C63.2382 34.3474 63.834 34.6452 64.4297 34.6452ZM66.4652 35.2906C66.3659 35.2906 66.2666 35.241 66.2169 35.1913C66.1673 35.1417 66.1176 35.0424 66.1176 34.9431V33.5034L66.2666 32.7587L66.8623 32.9573V34.9431C66.8623 35.0424 66.8127 35.1417 66.763 35.1913C66.6637 35.241 66.5644 35.2906 66.4652 35.2906Z" fill="#252525"/>
<path id="fullLogo-17_00000052105040037011456860000000931815327632820364_" d="M68.3026 31.319C68.2033 31.319 68.104 31.2694 68.0544 31.2197C68.0047 31.1701 67.9551 31.0708 67.9551 30.9715C67.9551 30.8722 68.0047 30.8225 68.0544 30.7233C68.104 30.6736 68.2033 30.624 68.3026 30.624H70.4373C70.5366 30.624 70.6359 30.6736 70.6856 30.7233C70.7352 30.7729 70.7849 30.8722 70.7849 30.9715C70.7849 31.0708 70.7352 31.1204 70.6856 31.2197C70.6359 31.2694 70.5366 31.319 70.4373 31.319H68.3026ZM70.3877 35.2906C69.792 35.2906 69.2955 34.9928 68.9976 34.4963C68.8487 34.2481 68.7991 33.9502 68.7991 33.6523V29.4325C68.7991 29.3332 68.8487 29.2339 68.8983 29.1843C68.948 29.1346 69.0473 29.085 69.1466 29.085C69.2459 29.085 69.3452 29.1346 69.3948 29.1843C69.4444 29.2339 69.4941 29.3332 69.4941 29.4325V33.6523C69.4941 33.9006 69.5934 34.1488 69.7423 34.3474C69.8913 34.546 70.1395 34.5956 70.3381 34.5956H70.5863C70.6856 34.5956 70.7849 34.6452 70.8345 34.6949C70.8842 34.7445 70.9338 34.8438 70.9338 34.9431C70.9338 35.0424 70.8842 35.1417 70.8345 35.1913C70.7352 35.241 70.6359 35.2906 70.5366 35.2906H70.3877Z" fill="#252525"/>
<path id="fullLogo-18_00000037657367450255344090000016220718061966619264_" d="M72.9691 29.6807C72.8202 29.6807 72.7209 29.631 72.6216 29.5317C72.5223 29.4324 72.4727 29.2835 72.4727 29.1842C72.4727 29.0353 72.5223 28.936 72.6216 28.8367C72.7209 28.7374 72.8698 28.6877 72.9691 28.6877C73.118 28.6877 73.2173 28.7374 73.3166 28.8367C73.4159 28.936 73.4656 29.0849 73.4656 29.1842C73.4656 29.3331 73.4159 29.4324 73.3166 29.5317C73.267 29.631 73.118 29.6807 72.9691 29.6807ZM72.9691 35.2906C72.7705 35.2906 72.6216 35.1416 72.5719 34.9431C72.5719 34.9431 72.5719 34.9431 72.5719 34.8934V30.9218C72.5719 30.8225 72.6216 30.7232 72.6712 30.6239C72.7209 30.5743 72.8202 30.5246 72.9195 30.5246C73.0188 30.5246 73.118 30.5743 73.1677 30.6239C73.2173 30.6736 73.267 30.7729 73.267 30.9218V34.8934C73.267 34.9927 73.2173 35.092 73.1677 35.1416C73.1677 35.2409 73.0684 35.2906 72.9691 35.2906Z" fill="#252525"/>
<path id="fullLogo-19_00000003103176156340914470000008241602461690186628_" d="M77.6359 35.3404C77.1891 35.3404 76.7919 35.2411 76.3948 35.0426C76.0473 34.844 75.7494 34.5461 75.5508 34.1986C75.1536 33.4042 75.1536 32.461 75.5508 31.7163C75.7494 31.3688 76.0473 31.0709 76.3948 30.8723C76.7919 30.6738 77.1891 30.5745 77.6359 30.5745C78.0827 30.5745 78.4799 30.6738 78.877 30.8723C79.2246 31.0709 79.5224 31.3688 79.721 31.7163C79.9196 32.1135 80.0685 32.5106 80.0189 32.9574C80.0189 33.4042 79.9196 33.8014 79.721 34.1986C79.5224 34.5461 79.2246 34.844 78.877 35.0426C78.4799 35.2411 78.0827 35.3404 77.6359 35.3404ZM77.6359 34.6454C77.9338 34.6454 78.2317 34.5957 78.4799 34.3972C78.7281 34.2482 78.9267 34.0496 79.0756 33.7518C79.2246 33.4539 79.2742 33.156 79.2742 32.8582C79.2742 32.5603 79.2246 32.2128 79.0756 31.9645C78.9267 31.7163 78.7281 31.4681 78.4799 31.3191C77.9338 31.0213 77.2884 31.0213 76.7423 31.3191C76.4941 31.4681 76.2955 31.6667 76.1465 31.9645C75.9976 32.2624 75.8983 32.5603 75.948 32.8582C75.948 33.156 75.9976 33.5035 76.1465 33.7518C76.2955 34 76.4941 34.2482 76.7423 34.3972C77.0402 34.5957 77.338 34.6454 77.6359 34.6454Z" fill="#252525"/>
<path id="fullLogo-20_00000067214779590368605750000011804798210065440697_" d="M82.1532 35.2906C82.0539 35.2906 81.9546 35.241 81.905 35.1913C81.8553 35.1417 81.8057 35.0424 81.8057 34.9431V30.9218C81.8057 30.8225 81.8553 30.7232 81.905 30.6239C81.9546 30.5743 82.0539 30.5247 82.1532 30.5247C82.2525 30.5247 82.3518 30.5743 82.4014 30.6239C82.4511 30.6736 82.5007 30.7729 82.5007 30.9218V34.8935C82.5503 35.092 82.4014 35.2906 82.1532 35.2906ZM85.8269 35.2906C85.7276 35.2906 85.6284 35.241 85.5787 35.1913C85.5291 35.1417 85.4794 35.0424 85.4794 34.9431V32.7091C85.4794 32.4112 85.4298 32.1133 85.2808 31.8651C85.1319 31.6665 84.983 31.4679 84.7347 31.3686C84.4865 31.2693 84.2383 31.2197 83.9901 31.2197C83.7418 31.2197 83.4936 31.2693 83.2454 31.3686C83.0468 31.4679 82.8482 31.6169 82.7489 31.8154C82.6 32.014 82.5503 32.2126 82.5503 32.4608H82.0539C82.0539 32.1133 82.1532 31.7658 82.3518 31.4679C82.5503 31.17 82.7986 30.9218 83.0964 30.7729C83.3943 30.6239 83.7418 30.5247 84.139 30.5247C84.5362 30.5247 84.8837 30.6239 85.2312 30.7729C85.5291 30.9218 85.8269 31.2197 85.9759 31.5176C86.1745 31.9147 86.2737 32.3119 86.2737 32.7587V34.8935C86.2241 35.092 86.0255 35.2906 85.8269 35.2906Z" fill="#252525"/>
<path id="fullLogo-21_00000085959103288786248710000015677084030567402147_" d="M90.1468 35.3403C89.7497 35.3403 89.3028 35.241 88.9553 35.0424C88.6078 34.8438 88.3099 34.5459 88.1114 34.1984C87.9128 33.8013 87.8135 33.4041 87.8135 32.9573C87.8135 32.5105 87.9128 32.1133 88.1114 31.7162C88.3099 31.3686 88.6078 31.0708 88.9553 30.8722C89.3525 30.6736 89.7496 30.5247 90.1965 30.5743C90.6433 30.5743 91.0404 30.6736 91.4376 30.8722C91.7851 31.0708 92.083 31.3686 92.2816 31.7162C92.4801 32.1133 92.6291 32.5105 92.6291 32.9573L92.3312 33.1062C92.3312 33.5034 92.2319 33.9006 92.0333 34.2481C91.8348 34.5956 91.5865 34.8438 91.239 35.0424C90.9411 35.241 90.544 35.3403 90.1468 35.3403ZM90.2461 34.6452C90.544 34.6452 90.8418 34.5956 91.0901 34.397C91.3383 34.2481 91.5369 34.0495 91.6858 33.7516C91.9837 33.2055 91.9837 32.5105 91.6858 31.9644C91.239 31.1701 90.1965 30.8722 89.4021 31.319C89.1539 31.4679 88.9057 31.7162 88.7567 31.9644C88.4589 32.5105 88.4589 33.2055 88.7567 33.7516C89.1043 34.3474 89.6504 34.6452 90.2461 34.6452ZM92.2816 35.2906C92.1823 35.2906 92.083 35.241 92.0333 35.1913C91.9837 35.1417 91.934 35.0424 91.934 34.9431V33.5034L92.083 32.7587L92.6787 32.9573V34.9431C92.6787 35.0424 92.6291 35.1417 92.5794 35.1913C92.4801 35.241 92.3809 35.2906 92.2816 35.2906Z" fill="#252525"/>
<path id="fullLogo-22_00000118372528604052264430000014431140837675662757_" d="M95.4589 35.2907C95.2107 35.2907 95.0121 35.241 94.8135 35.0921C94.6149 34.9432 94.466 34.7446 94.3667 34.546C94.2674 34.2978 94.2178 33.9999 94.2178 33.7517V28.8864C94.2178 28.6878 94.3667 28.5389 94.5653 28.4893C94.7639 28.4893 94.9128 28.6382 94.9625 28.8368C94.9625 28.8368 94.9625 28.8368 94.9625 28.8864V33.7517C94.9625 33.9503 95.0121 34.1488 95.1114 34.3474C95.161 34.4964 95.31 34.546 95.4589 34.5956H95.6575C95.7568 34.5956 95.8561 34.6453 95.9057 34.6949C95.9554 34.7942 96.005 34.8439 96.005 34.9432C96.005 35.0424 95.9554 35.1417 95.8561 35.1914C95.7568 35.241 95.6575 35.2907 95.5085 35.2907H95.4589Z" fill="#252525"/>
</g>
</g>
<defs>
<linearGradient id="paint0_linear_2881_1516" x1="1.43553" y1="9.98473" x2="25.3551" y2="17.0659" gradientUnits="userSpaceOnUse">
<stop stop-color="#0099FF" stop-opacity="0.988"/>
<stop offset="1" stop-color="#00F0CC"/>
</linearGradient>
<clipPath id="clip0_2881_1516">
<rect width="140" height="38.7234" fill="white" transform="translate(0.983398 0.638184)"/>
</clipPath>
</defs>
</svg>
