<svg width="55" height="55" viewBox="0 0 55 55" fill="none" xmlns="http://www.w3.org/2000/svg">
<g id="Frame 1023">
<path id="Vector" d="M15.146 20.3225C15.3596 20.3231 15.3596 20.3231 15.5776 20.3238C17.1992 20.3358 18.8378 20.359 20.4304 20.6803C22.9286 21.036 25.4394 21.0497 27.9571 21.0487C28.1126 21.0488 28.2681 21.0489 28.4283 21.0491C28.8755 21.049 29.3226 21.0475 29.7697 21.0454C29.905 21.0452 30.0403 21.045 30.1797 21.0448C30.7783 21.0397 31.3065 20.9963 31.8836 20.8487C32.3157 20.8184 32.7459 20.7942 33.1784 20.775C34.173 20.7257 35.15 20.6353 36.1365 20.5014C37.2594 20.3567 38.3731 20.302 39.5051 20.2909C39.6556 20.288 39.8061 20.285 39.9612 20.282C41.0764 20.2829 41.6139 20.5233 42.4631 21.2591C42.9763 21.907 42.9384 22.6041 42.902 23.4009C42.7686 24.308 42.3635 24.7282 41.6631 25.2795C40.9348 25.6807 40.2467 25.7494 39.4261 25.8103C39.2568 25.8232 39.0874 25.8361 38.913 25.8494C38.7332 25.8628 38.5534 25.8761 38.3682 25.8899C37.9907 25.9193 37.6133 25.9489 37.2359 25.9787C37.0459 25.9936 36.8559 26.0086 36.6601 26.024C35.801 26.092 34.9422 26.1618 34.0837 26.2372C33.9344 26.2491 33.785 26.261 33.6311 26.2733C32.8454 26.3146 32.8454 26.3146 32.2205 26.7423C31.6852 29.3875 32.6337 31.7787 33.6521 34.162C33.7874 34.4904 33.922 34.8189 34.0561 35.1477C34.3203 35.7931 34.5874 36.4371 34.8575 37.08C35.2514 38.0194 35.6358 38.9624 36.0154 39.9077C36.0721 40.0478 36.1288 40.1879 36.1872 40.3322C36.2392 40.462 36.2911 40.5918 36.3447 40.7256C36.3901 40.8386 36.4355 40.9516 36.4822 41.068C36.8389 42.0531 36.9327 42.9683 36.5049 43.9497C36.1241 44.6305 35.6672 45.0392 34.9154 45.2653C34.1172 45.4117 33.4384 45.5053 32.7288 45.052C31.8002 44.3146 31.3939 43.5592 31.0099 42.4552C30.8975 42.1542 30.785 41.8531 30.6724 41.5521C30.62 41.4081 30.5677 41.264 30.5137 41.1156C30.3313 40.6195 30.1313 40.1321 29.9256 39.6452C29.8609 39.4911 29.7962 39.337 29.7296 39.1782C29.4945 38.6247 29.2576 38.0719 29.0203 37.5193C28.9365 37.3237 28.8527 37.1282 28.7664 36.9267C28.5995 36.5374 28.4319 36.1485 28.2637 35.7598C28.1484 35.4898 28.1484 35.4898 28.0308 35.2145C27.9618 35.0541 27.8927 34.8937 27.8216 34.7284C27.6729 34.3199 27.6729 34.3199 27.6729 33.8147C27.5617 33.8147 27.4506 33.8147 27.336 33.8147C27.3052 33.9951 27.3052 33.9951 27.2737 34.1791C27.1647 34.6696 27.0083 35.0975 26.8169 35.5618C26.7079 35.8281 26.7079 35.8281 26.5966 36.0998C26.5176 36.2904 26.4385 36.481 26.357 36.6774C26.2321 36.98 26.1071 37.2827 25.9822 37.5853C25.8949 37.7966 25.8076 38.0078 25.7201 38.2189C25.4448 38.8844 25.1742 39.5517 24.9074 40.2207C24.7298 40.6655 24.5504 41.1097 24.3709 41.5538C24.285 41.7673 24.1999 41.9811 24.1155 42.1953C23.9966 42.4963 23.8748 42.7961 23.753 43.0959C23.6845 43.2672 23.616 43.4384 23.5455 43.6148C23.1542 44.348 22.6321 44.8082 21.9463 45.2653C21.0066 45.3818 20.1812 45.391 19.3251 44.9706C18.508 44.2165 18.2659 43.7324 18.2093 42.6289C18.2131 41.8762 18.41 41.2827 18.6935 40.5924C18.7346 40.4869 18.7758 40.3814 18.8182 40.2728C19.3258 38.9827 19.8703 37.7063 20.4135 36.4309C20.7179 35.7146 21.0147 34.9954 21.3085 34.2746C21.4312 33.9768 21.5561 33.6799 21.6833 33.384C22.561 31.3369 23.3615 28.9972 22.7884 26.7423C22.2915 26.4111 22.1471 26.3575 21.585 26.3108C21.4449 26.2985 21.3049 26.2861 21.1606 26.2734C21.0095 26.2614 20.8584 26.2495 20.7028 26.2372C20.5464 26.2235 20.3899 26.2098 20.2287 26.1957C19.7276 26.1521 19.2264 26.1103 18.7251 26.0688C18.2274 26.0272 17.7298 25.9851 17.2322 25.9418C16.9228 25.915 16.6133 25.889 16.3037 25.8642C13.5632 25.6275 13.5632 25.6275 12.5142 24.5533C11.9992 23.7273 12.0158 22.796 12.1774 21.859C12.9547 20.5462 13.6835 20.3144 15.146 20.3225Z" fill="#050505"/>
<path id="Vector_2" d="M45.2953 7.10692C46.3475 8.02675 47.3428 8.98156 48.2206 10.0717C48.3461 10.2225 48.4715 10.3734 48.6008 10.5288C53.3483 16.4283 55.1065 23.7716 54.3172 31.2402C54.079 33.0455 53.5048 34.7848 52.9366 36.5089C52.8985 36.6249 52.8605 36.7409 52.8213 36.8604C51.7928 39.9209 49.9815 42.6687 47.8837 45.0968C47.7415 45.2618 47.5993 45.4267 47.4528 45.5967C43.6822 49.8842 38.5696 52.5414 33.0619 53.8531C32.9097 53.8893 32.7575 53.9256 32.6007 53.9629C25.8531 55.4369 18.6237 53.7832 12.8504 50.1485C6.47263 45.8099 2.30329 39.4928 0.814885 31.9262C-0.217505 24.7309 1.25551 17.4743 5.60789 11.5872C6.09671 10.9548 6.60298 10.3411 7.12375 9.73489C7.30874 9.51869 7.30874 9.51869 7.49746 9.29813C17.2045 -1.77347 34.3057 -2.27298 45.2953 7.10692ZM21.1034 2.99929C20.9615 3.03904 20.8196 3.07879 20.6734 3.11975C17.4588 4.03808 14.6558 5.5199 12.0082 7.54582C11.8493 7.66325 11.6904 7.78069 11.5266 7.90168C10.9943 8.29503 10.9943 8.29503 10.4923 8.72455C10.4923 8.83569 10.4923 8.94683 10.4923 9.06133C10.399 9.09867 10.3056 9.136 10.2094 9.17447C6.51298 11.2898 4.05224 17.3538 3.00332 21.1853C2.97352 21.2965 2.94372 21.4077 2.91302 21.5222C2.85874 21.7221 2.80446 21.922 2.74853 22.128C1.9406 25.778 2.10807 30.0567 3.08145 33.6463C3.11209 33.7644 3.14273 33.8825 3.1743 34.0042C4.1496 37.691 5.95298 41.0587 8.47119 43.9181C8.6045 44.0737 8.73781 44.2293 8.87516 44.3897C9.8326 45.4813 10.8554 46.4052 12.0082 47.2859C12.1515 47.3981 12.2948 47.5103 12.4424 47.6259C15.0161 49.5788 17.9809 51.0121 21.1034 51.8324C21.2129 51.8633 21.3223 51.8942 21.4351 51.926C25.2861 52.9855 29.9 52.9163 33.7356 51.8324C33.9564 51.7701 33.9564 51.7701 34.1817 51.7065C37.8388 50.6399 41.1062 48.9188 44.0098 46.4439C44.1414 46.333 44.273 46.2221 44.4085 46.1078C45.2524 45.3791 46.0022 44.6148 46.7047 43.7497C46.8347 43.5904 46.9648 43.431 47.0988 43.2669C49.5767 40.1726 51.0935 36.7944 52.0944 32.9727C52.1522 32.7585 52.2099 32.5442 52.2694 32.3235C53.0573 28.7717 52.9441 24.4979 51.926 21.017C51.8862 20.8752 51.8465 20.7333 51.8055 20.5872C50.887 17.3733 49.4048 14.5709 47.3784 11.924C47.2022 11.6856 47.2022 11.6856 47.0225 11.4425C46.629 10.9103 46.629 10.9103 46.1994 10.4085C46.0882 10.4085 45.9771 10.4085 45.8625 10.4085C45.8246 10.3147 45.7866 10.2209 45.7474 10.1243C43.7309 6.58279 38.1536 4.26932 34.4409 3.13611C34.0386 3.02987 33.6349 2.92824 33.2303 2.8309C33.0256 2.78032 32.8209 2.72975 32.6099 2.67764C28.9867 1.88568 24.6567 1.96055 21.1034 2.99929Z" fill="#060606"/>
<path id="Vector_3" d="M42.084 9.09285C46.5726 12.9326 49.6153 17.665 50.5792 23.5428C50.6137 23.7306 50.6482 23.9184 50.6838 24.1118C51.6603 29.9226 50.027 36.0617 46.7053 40.887C46.2294 41.5292 45.7116 42.1345 45.1894 42.7393C44.9644 43.0196 44.7398 43.3002 44.5157 43.5812C44.242 43.8865 44.242 43.8865 44.0104 44.0864C43.8993 44.0864 43.7881 44.0864 43.6736 44.0864C43.6736 44.1976 43.6736 44.3087 43.6736 44.4232C40.9785 46.9773 37.7466 48.6892 34.2415 49.8117C34.0798 49.8653 33.918 49.9189 33.7514 49.9741C28.1 51.7739 21.8203 50.8061 16.6044 48.1771C14.9929 47.3327 13.5777 46.2518 12.1772 45.0968C12.0224 44.9795 11.8676 44.8623 11.7081 44.7416C11.5235 44.584 11.5235 44.584 11.3351 44.4232C11.3351 44.3121 11.3351 44.2009 11.3351 44.0864C11.2239 44.0864 11.1128 44.0864 10.9982 44.0864C10.5692 43.6717 10.2017 43.1967 9.81923 42.7393C9.70004 42.603 9.58084 42.4667 9.45803 42.3262C5.48822 37.6831 3.71492 31.5212 4.12125 25.4744C4.53956 20.5261 6.50478 16.0685 9.6508 12.2607C9.72465 12.1713 9.7985 12.0819 9.87458 11.9898C12.4613 8.90819 16.2273 6.37012 20.0934 5.18831C20.2702 5.13082 20.2702 5.13082 20.4505 5.07217C27.8864 2.72053 35.9716 4.29267 42.084 9.09285ZM22.4514 6.36704C22.339 6.39773 22.2265 6.42842 22.1106 6.46003C20.6535 6.86519 19.251 7.35755 17.9039 8.05094C17.8032 8.10211 17.7025 8.15329 17.5987 8.20601C16.0803 8.9866 14.7579 9.86115 13.4859 11.0011C13.0194 11.4187 13.0194 11.4187 12.5371 11.7891C12.4184 11.8891 12.2996 11.9892 12.1772 12.0923C12.1772 12.2034 12.1772 12.3146 12.1772 12.4291C12.0661 12.4291 11.9549 12.4291 11.8404 12.4291C10.8317 13.5094 9.9542 14.73 9.14552 15.9653C9.04868 16.1131 8.95185 16.2609 8.85208 16.4132C5.9491 21.102 5.12717 27.0908 6.38238 32.4335C6.83359 34.1497 7.51936 35.7626 8.30337 37.3508C8.38776 37.5224 8.38776 37.5224 8.47385 37.6974C9.17221 39.0835 10.0526 40.2639 11.0798 41.4191C11.3476 41.7213 11.6084 42.0299 11.8588 42.3466C14.459 45.5531 18.9841 47.7823 22.9567 48.6329C23.1094 48.6672 23.262 48.7015 23.4193 48.7369C29.0874 49.8128 35.0753 48.3713 39.8405 45.2158C40.7846 44.5577 41.6127 43.7816 42.4271 42.9719C42.6393 42.7627 42.8574 42.5595 43.0762 42.3571C45.639 39.9427 47.1744 36.7896 48.2212 33.4778C48.2748 33.3135 48.3284 33.1492 48.3837 32.9799C49.8806 28.0135 49.2002 22.4068 46.8737 17.8176C46.7977 17.6658 46.7217 17.5141 46.6435 17.3578C45.5028 15.1726 43.9401 13.2822 42.1577 11.5871C42.0487 11.479 41.9397 11.3709 41.8274 11.2596C37.6552 7.28233 31.9243 5.68126 26.2898 5.80793C24.9603 5.85859 23.7359 6.01362 22.4514 6.36704Z" fill="#060606"/>
<path id="Vector_4" d="M15.2343 22.009C15.4037 22.0174 15.573 22.0259 15.7475 22.0346C15.9243 22.0461 16.101 22.0576 16.2831 22.0695C16.5462 22.0828 16.5462 22.0828 16.8147 22.0965C18.0996 22.1671 18.0996 22.1671 18.6242 22.2734C21.3036 22.803 24.0931 22.7589 26.811 22.7541C27.4373 22.7536 28.0634 22.7575 28.6896 22.7618C31.2997 22.7685 33.839 22.5861 36.427 22.256C40.3287 21.7949 40.3287 21.7949 40.9429 22.2504C41.1475 22.5326 41.1475 22.5326 41.1264 23.0483C40.9791 23.5429 40.9791 23.5429 40.4738 23.8797C39.9879 23.959 39.9879 23.959 39.3948 24.0112C39.177 24.0312 38.9592 24.0512 38.7348 24.0718C38.6198 24.0816 38.5049 24.0915 38.3865 24.1017C38.0303 24.1324 37.6744 24.1649 37.3184 24.1981C36.4481 24.2787 35.5776 24.3566 34.7069 24.4322C34.264 24.4709 33.8213 24.5118 33.3787 24.5533C33.2535 24.5631 33.1283 24.573 32.9994 24.5832C32.0343 24.6752 31.4692 24.9318 30.8312 25.6583C29.9714 26.8555 30.2595 28.6963 30.368 30.1101C30.5176 30.8676 30.7583 31.5489 31.0559 32.2604C31.2385 32.7051 31.4073 33.154 31.576 33.6042C32.5304 36.141 33.5508 38.6502 34.5847 41.1554C34.8792 41.89 34.9589 42.4507 34.9156 43.2445C34.5787 43.5813 34.5787 43.5813 34.1787 43.655C33.7366 43.5813 33.7366 43.5813 33.4074 43.2383C33.0042 42.6544 32.7539 42.0769 32.4977 41.4186C32.4466 41.2909 32.3956 41.1632 32.343 41.0317C32.2343 40.7595 32.1262 40.4871 32.0187 40.2145C31.7955 39.6485 31.5688 39.0839 31.3422 38.5192C31.2299 38.2393 31.1178 37.9593 31.0058 37.6792C30.5675 36.5834 30.1226 35.491 29.6627 34.4041C29.6059 34.2668 29.5491 34.1295 29.4905 33.988C29.1921 33.2881 28.9023 32.6683 28.3468 32.1308C27.9378 31.999 27.9378 31.999 27.5047 32.0256C27.3623 32.0234 27.2198 32.0212 27.0731 32.019C26.4887 32.1782 26.3361 32.4832 25.9888 32.9728C25.815 33.3273 25.654 33.6883 25.5039 34.0535C25.4613 34.156 25.4188 34.2585 25.3749 34.3641C25.2858 34.5789 25.1973 34.7939 25.1095 35.0091C24.9021 35.5166 24.6899 36.0221 24.4789 36.528C24.3119 36.9321 24.145 37.3362 23.9782 37.7403C23.8896 37.9542 23.8011 38.168 23.7124 38.3819C23.3313 39.3023 22.9517 40.2231 22.5821 41.1482C22.5019 41.3475 22.5019 41.3475 22.4202 41.5509C22.3254 41.7875 22.2315 42.0245 22.139 42.262C21.9249 42.7947 21.7429 43.2344 21.2728 43.5813C20.8412 43.6339 20.8412 43.6339 20.4307 43.5813C20.0938 43.2445 20.0938 43.2445 20.0247 42.7604C20.0562 41.7945 20.4976 40.9249 20.8623 40.0451C20.9865 39.7374 21.1108 39.4296 21.2346 39.1217C21.3241 38.8991 21.4138 38.6766 21.5038 38.4543C22.0661 37.0619 22.6052 35.6605 23.1441 34.2589C23.3134 33.8188 23.4835 33.379 23.6536 32.9392C23.7587 32.6662 23.8639 32.3933 23.969 32.1203C24.0175 31.9951 24.066 31.8698 24.116 31.7408C24.5788 30.5348 24.6815 29.5631 24.694 28.2789C24.6989 28.1137 24.7038 27.9485 24.7088 27.7783C24.7176 26.7789 24.6506 26.1801 23.9677 25.3952C23.8926 25.2949 23.8174 25.1946 23.74 25.0913C23.3163 24.7841 22.9031 24.7653 22.3887 24.7006C21.2876 24.5564 21.2876 24.5564 20.8741 24.4698C20.4241 24.3836 19.9859 24.3369 19.5293 24.3007C19.358 24.2868 19.1867 24.2729 19.0102 24.2586C18.8328 24.2447 18.6554 24.2308 18.4727 24.2165C17.9497 24.1746 17.4268 24.1325 16.904 24.0889C16.5592 24.0616 16.2141 24.0379 15.8688 24.0178C15.6238 24.0015 15.6238 24.0015 15.3738 23.9849C15.2285 23.9767 15.0832 23.9684 14.9334 23.9599C14.4582 23.8641 14.213 23.7053 13.8619 23.3745C13.7882 22.9535 13.7882 22.9535 13.8619 22.5326C14.2649 21.9814 14.5735 21.972 15.2343 22.009Z" fill="#F1F1F1"/>
<path id="Vector_5" d="M30.4493 9.304C31.695 10.2046 32.6245 11.3974 32.8942 12.9343C33.0236 14.6438 32.7055 16.0653 31.7152 17.4808C30.7074 18.614 29.3071 19.2336 27.8124 19.3653C26.2438 19.4408 24.9701 18.901 23.7569 17.9228C22.592 16.8414 22.1016 15.5288 22.041 13.9551C22.0873 12.3723 22.7279 11.0565 23.799 9.90323C25.6099 8.23206 28.3408 8.08093 30.4493 9.304Z" fill="#050505"/>
<path id="Vector_6" d="M29.1041 10.6084C29.5848 10.9568 29.9737 11.3103 30.3673 11.7556C30.4958 11.8945 30.6244 12.0334 30.7568 12.1765C31.2672 13.235 31.2154 14.4412 30.841 15.5443C30.1967 16.4328 29.4891 16.9937 28.5146 17.4808C27.2014 17.6296 26.1809 17.5965 25.1137 16.7724C24.6552 16.318 24.4058 15.8776 24.1354 15.2918C24.0798 15.1806 24.0242 15.0695 23.967 14.955C23.8196 13.6551 23.8385 12.6162 24.6716 11.5668C25.9158 10.2801 27.3891 10.0267 29.1041 10.6084Z" fill="#F3F3F3"/>
</g>
</svg>
