<svg width="79" height="46" viewBox="0 0 79 46" fill="none" xmlns="http://www.w3.org/2000/svg">
<g id="pranic healing Logo 1">
<path id="Vector" d="M33.2527 0.86593C33.9571 0.869145 34.6615 0.87236 35.3873 0.875672C41.6743 0.958397 41.6743 0.958397 43.7828 2.21683C44.5321 3.95769 44.385 4.83317 43.8246 6.64096C43.5572 7.23924 43.2898 7.83753 43.0142 8.45394C42.5765 9.43823 42.5765 9.43823 42.1299 10.4424C41.8969 10.9503 41.8969 10.9503 41.6591 11.4684C41.1873 12.4993 40.7291 13.5354 40.2724 14.5731C37.2505 21.2781 37.2505 21.2781 34.3611 22.7229C32.8568 22.8517 31.3648 22.9551 29.8581 23.0346C27.6977 23.1546 27.6977 23.1546 25.4936 23.2771C23.4818 27.8494 21.47 32.4217 19.3972 37.1325C16.6539 37.1325 13.9105 37.1325 11.084 37.1325C12.1986 33.621 13.5015 30.293 15.0328 26.9444C15.2479 26.4686 15.463 25.9928 15.6847 25.5026C16.3657 23.9977 17.05 22.4943 17.7346 20.9909C18.4184 19.4833 19.1016 17.9754 19.7845 16.4674C20.2076 15.5337 20.6313 14.6004 21.0558 13.6674C22.1969 11.1562 23.3086 8.6359 24.3852 6.09635C23.4707 6.09635 22.5563 6.09635 21.6141 6.09635C23.9604 0.33729 27.6048 0.719864 33.2527 0.86593ZM32.6984 6.09635C32.0712 7.3994 31.4485 8.70427 30.828 10.0105C30.5643 10.5565 30.5643 10.5565 30.2954 11.1135C29.1802 13.4718 28.3611 15.7621 27.7105 18.2891C28.625 18.2891 29.5394 18.2891 30.4816 18.2891C31.1065 17.0544 31.7297 15.8188 32.3521 14.5828C32.5278 14.2359 32.7036 13.8891 32.8846 13.5317C34.7934 9.97725 34.7934 9.97725 35.4695 6.09635C34.5551 6.09635 33.6406 6.09635 32.6984 6.09635Z" fill="#159BAD"/>
<path id="Vector_2" d="M48.771 1.1084C51.3315 1.1084 53.892 1.1084 56.53 1.1084C55.9065 4.84936 55.9065 4.84936 55.0731 6.69819C54.8998 7.08755 54.7266 7.47691 54.5481 7.87807C54.3677 8.27315 54.1873 8.66822 54.0014 9.07527C53.8189 9.4832 53.6364 9.89113 53.4483 10.3114C53.0011 11.3096 52.5492 12.3056 52.0963 13.3012C52.8279 13.3012 53.5594 13.3012 54.3132 13.3012C54.679 12.7525 55.0447 12.2038 55.4216 11.6385C57.2009 12.4044 58.22 13.2592 59.4397 14.756C59.8726 15.2811 59.8726 15.2811 60.3143 15.8168C60.6358 16.2176 60.6358 16.2176 60.9638 16.6265C59.6028 17.3682 58.2402 18.1067 56.8764 18.8433C56.4892 19.0548 56.102 19.2663 55.703 19.4842C52.7761 21.0602 52.7761 21.0602 51.5421 21.0602C51.725 20.1457 51.9079 19.2313 52.0963 18.2891C51.1818 18.2891 50.2674 18.2891 49.3252 18.2891C49.1159 18.9628 48.9066 19.6365 48.6909 20.3306C47.5262 23.8246 46.0127 27.1573 44.5105 30.5165C44.2272 31.1549 43.9439 31.7932 43.6521 32.4509C42.9588 34.0123 42.2628 35.5725 41.5662 37.1325C38.8228 37.1325 36.0794 37.1325 33.2529 37.1325C34.5094 33.0042 36.2115 29.1299 38.0099 25.2147C38.8785 23.3234 39.7391 21.4285 40.6006 19.5339C40.7745 19.1522 40.9483 18.7705 41.1275 18.3772C42.852 14.5858 44.535 10.7768 46.2077 6.96231C46.4682 6.36863 46.7286 5.77495 46.9969 5.16327C47.589 3.81196 48.1801 2.46023 48.771 1.1084Z" fill="#58B188"/>
<path id="Vector_3" d="M62.0726 1.1084C64.6331 1.1084 67.1936 1.1084 69.8317 1.1084C69.4187 3.5861 69.1288 5.02143 68.1322 7.18314C67.909 7.67251 67.6857 8.16189 67.4557 8.6661C67.2224 9.16691 66.9892 9.66772 66.7488 10.1837C66.3957 10.9542 66.3957 10.9542 66.0355 11.7403C65.457 13.0012 64.875 14.2603 64.2895 15.518C61.8472 15.518 61.6102 15.3915 59.9597 13.7861C59.4399 13.3039 59.4399 13.3039 58.9097 12.8119C58.1931 11.6385 58.1931 11.6385 58.2537 10.0798C59.1393 6.91038 60.6518 4.07091 62.0726 1.1084Z" fill="#7FC366"/>
<path id="Vector_4" d="M63.1811 17.1807C62.323 19.9282 61.2315 22.5223 60.0636 25.1475C59.7936 25.7594 59.7936 25.7594 59.5181 26.3837C59.0778 27.3809 58.6356 28.3772 58.1931 29.3734C55.4498 29.3734 52.7064 29.3734 49.8799 29.3734C52.0765 22.1245 52.0765 22.1245 55.6147 19.8868C56.2965 19.5528 56.983 19.2281 57.6736 18.9126C58.0197 18.7426 58.3658 18.5725 58.7225 18.3973C60.3081 17.6392 61.4034 17.1807 63.1811 17.1807Z" fill="#71BB75"/>
<path id="Vector_5" d="M7.20468 23.8313C9.5514 24.5577 11.6795 25.4627 13.8553 26.6024C13.6724 26.9682 13.4895 27.3339 13.3011 27.7108C12.7524 27.7108 12.2037 27.7108 11.6384 27.7108C12.0042 28.4424 12.37 29.1739 12.7468 29.9277C11.0842 30.4819 11.0842 30.4819 9.42155 30.4819C9.97022 30.8477 10.5189 31.2135 11.0842 31.5903C11.0842 31.9561 11.0842 32.3219 11.0842 32.6988C8.449 32.3794 6.66682 31.2851 4.43359 29.9277C4.61649 29.5619 4.79938 29.1961 4.98781 28.8193C6.45571 28.4903 7.92071 28.408 9.42155 28.265C8.50709 27.1677 7.59263 26.0703 6.65046 24.9397C6.83335 24.5739 7.01624 24.2082 7.20468 23.8313Z" fill="#0293BA"/>
<path id="Vector_6" d="M15.5186 7.75903C16.0673 7.94192 16.616 8.12482 17.1813 8.31325C16.9984 8.67903 16.8155 9.04482 16.6271 9.42168C16.0784 9.42168 15.5297 9.42168 14.9644 9.42168C14.9644 9.97036 14.9644 10.519 14.9644 11.0843C15.3302 11.2672 15.696 11.4501 16.0728 11.6386C16.21 11.2842 16.3472 10.9298 16.4885 10.5648C17.1813 9.42168 17.1813 9.42168 18.2897 8.97138C19.3981 8.86747 19.3981 8.86747 20.5066 9.42168C20.6451 12.5392 20.6451 12.5392 19.3981 14.4096C17.9433 14.5136 17.9433 14.5136 16.6271 14.4096C16.81 13.861 16.9928 13.3123 17.1813 12.747C17.73 12.5641 18.2786 12.3812 18.8439 12.1928C19.0268 11.6441 19.2097 11.0954 19.3981 10.5301C18.9981 10.8959 18.598 11.2617 18.1858 11.6386C16.5074 12.8321 15.8528 12.9752 13.856 12.747C13.4403 11.5 13.4403 11.5 13.3018 9.9759C14.3756 8.69427 14.3756 8.69427 15.5186 7.75903Z" fill="#6EBA78"/>
<path id="Vector_7" d="M12.7471 12.1929C13.8556 13.3013 13.8556 13.3013 14.4098 14.964C15.8729 14.964 17.3361 14.964 18.8435 14.964C18.8435 15.3297 18.8435 15.6955 18.8435 16.0724C17.5633 16.2553 16.283 16.4382 14.964 16.6266C14.964 17.1753 14.964 17.724 14.964 18.2893C15.6956 18.4721 16.4271 18.655 17.1809 18.8435C17.1809 19.2093 17.1809 19.575 17.1809 19.9519C14.7485 19.5834 12.7576 18.7395 10.5303 17.735C10.5303 17.1864 10.5303 16.6377 10.5303 16.0724C11.2618 16.2553 11.9934 16.4382 12.7471 16.6266C12.5928 15.6836 12.5928 15.6836 12.4354 14.7215C12.3554 14.0699 12.2754 13.4184 12.1929 12.7471C12.3758 12.5642 12.5587 12.3813 12.7471 12.1929Z" fill="#58B188"/>
<path id="Vector_8" d="M12.1926 18.8435C12.1926 19.2093 12.1926 19.5751 12.1926 19.952C11.6439 20.1349 11.0953 20.3178 10.53 20.5062C10.3471 21.0549 10.1642 21.6035 9.97574 22.1688C10.9949 23.4365 10.9949 23.4365 12.539 23.3465C12.9734 23.3237 13.4077 23.3008 13.8553 23.2773C13.6724 21.997 13.4895 20.7168 13.301 19.3978C14.0326 19.7635 14.7642 20.1293 15.5179 20.5062C15.7833 23.4918 15.7833 23.4918 14.6519 24.9399C12.6202 25.7734 11.4042 25.1934 9.42152 24.3857C8.31308 22.7231 8.31308 22.7231 8.38236 21.0258C8.8673 19.3978 8.8673 19.3978 9.9411 18.6011C11.0842 18.2893 11.0842 18.2893 12.1926 18.8435Z" fill="#37A69B"/>
<path id="Vector_9" d="M67.8567 38.6565C68.5597 38.7251 68.5597 38.7251 69.2769 38.795C70.5461 40.6989 70.4842 41.558 70.3853 43.783C68.5148 43.8869 68.5148 43.8869 66.5058 43.783C65.3974 42.1203 65.3974 42.1203 65.5706 40.6655C66.1 38.8367 66.1 38.8367 67.8567 38.6565ZM67.06 39.9035C66.8771 40.635 66.6942 41.3666 66.5058 42.1203C67.3288 42.669 67.3288 42.669 68.1685 43.2288C68.3513 42.863 68.5342 42.4972 68.7227 42.1203C68.3569 42.1203 67.9911 42.1203 67.6142 42.1203C67.6142 41.7546 67.6142 41.3888 67.6142 41.0119C68.1629 40.829 68.7116 40.6461 69.2769 40.4577C68.5453 40.2748 67.8138 40.0919 67.06 39.9035Z" fill="#82C562"/>
<path id="Vector_10" d="M60.4092 38.7952C62.626 39.9036 62.626 39.9036 63.1803 41.012C63.3632 40.2805 63.546 39.5489 63.7345 38.7952C64.1003 38.7952 64.466 38.7952 64.8429 38.7952C64.8429 40.4412 64.8429 42.0872 64.8429 43.7831C64.2942 43.7831 63.7456 43.7831 63.1803 43.7831C62.8145 43.2344 62.4487 42.6858 62.0718 42.1205C61.8889 42.6691 61.706 43.2178 61.5176 43.7831C61.1518 43.7831 60.786 43.7831 60.4092 43.7831C60.4092 42.1371 60.4092 40.4911 60.4092 38.7952Z" fill="#7BC16B"/>
<path id="Vector_11" d="M26.0488 38.7952C27.7115 39.3494 27.7115 39.3494 28.2657 40.4578C28.4486 39.9091 28.6315 39.3605 28.8199 38.7952C29.1857 38.7952 29.5515 38.7952 29.9283 38.7952C29.9283 40.4412 29.9283 42.0872 29.9283 43.7831C29.3797 43.6002 28.831 43.4173 28.2657 43.2289C28.0828 42.8631 27.8999 42.4973 27.7115 42.1205C27.5286 42.6691 27.3457 43.2178 27.1573 43.7831C26.7915 43.7831 26.4257 43.7831 26.0488 43.7831C26.0488 42.1371 26.0488 40.4911 26.0488 38.7952Z" fill="#0599B1"/>
<path id="Vector_12" d="M16.0723 38.7952C17.1804 38.7716 18.2894 38.7725 19.3976 38.7952C19.9518 39.3494 19.9518 39.3494 20.0059 40.3734C19.9879 41.51 19.9698 42.6465 19.9518 43.7831C19.586 43.7831 19.2202 43.7831 18.8433 43.7831C18.8433 43.2344 18.8433 42.6858 18.8433 42.1205C18.2947 42.1205 17.746 42.1205 17.1807 42.1205C17.1807 42.6691 17.1807 43.2178 17.1807 43.7831C16.8149 43.7831 16.4491 43.7831 16.0723 43.7831C16.0723 42.1371 16.0723 40.4911 16.0723 38.7952ZM17.1807 39.9036C17.1807 40.2694 17.1807 40.6352 17.1807 41.012C17.7294 41.012 18.278 41.012 18.8433 41.012C18.8433 40.6462 18.8433 40.2805 18.8433 39.9036C18.2947 39.9036 17.746 39.9036 17.1807 39.9036Z" fill="#008CC5"/>
<path id="Vector_13" d="M35.8161 38.7261C36.2504 38.7489 36.6848 38.7718 37.1323 38.7954C37.3152 39.344 37.4981 39.8927 37.6865 40.458C36.7721 40.458 35.8576 40.458 34.9155 40.458C34.9155 41.0067 34.9155 41.5554 34.9155 42.1207C35.4641 42.3035 36.0128 42.4864 36.5781 42.6749C36.5781 42.3091 36.5781 41.9433 36.5781 41.5664C36.9439 41.5664 37.3097 41.5664 37.6865 41.5664C37.5037 42.298 37.3208 43.0296 37.1323 43.7833C35.8161 43.8526 35.8161 43.8526 34.3612 43.7833C33.2528 42.6749 33.2528 42.6749 33.1143 41.2893C33.3129 39.3024 33.8235 38.821 35.8161 38.7261Z" fill="#26A2A1"/>
<path id="Vector_14" d="M11.084 38.7952C12.1813 38.7952 13.2787 38.7952 14.4093 38.7952C14.5922 39.7096 14.7751 40.6241 14.9635 41.5663C14.049 41.7491 13.1346 41.932 12.1924 42.1205C12.1924 42.6691 12.1924 43.2178 12.1924 43.7831C11.8266 43.7831 11.4609 43.7831 11.084 43.7831C11.084 42.1371 11.084 40.4911 11.084 38.7952ZM12.1924 39.9036C12.1924 40.2694 12.1924 40.6352 12.1924 41.012C12.7411 41.012 13.2898 41.012 13.8551 41.012C13.8551 40.6463 13.8551 40.2805 13.8551 39.9036C13.3064 39.9036 12.7577 39.9036 12.1924 39.9036Z" fill="#0087CE"/>
<path id="Vector_15" d="M39.3496 38.7952C39.7154 38.7952 40.0812 38.7952 40.458 38.7952C40.458 39.5267 40.458 40.2583 40.458 41.012C41.0067 41.012 41.5554 41.012 42.1207 41.012C42.1207 40.2805 42.1207 39.5489 42.1207 38.7952C42.4865 38.7952 42.8523 38.7952 43.2291 38.7952C43.2291 40.4412 43.2291 42.0872 43.2291 43.7831C42.8633 43.7831 42.4976 43.7831 42.1207 43.7831C42.1207 43.0516 42.1207 42.32 42.1207 41.5663C41.572 41.5663 41.0233 41.5663 40.458 41.5663C40.458 42.2978 40.458 43.0294 40.458 43.7831C40.0923 43.7831 39.7265 43.7831 39.3496 43.7831C39.3496 42.1371 39.3496 40.4911 39.3496 38.7952Z" fill="#45AA93"/>
<path id="Vector_16" d="M50.4341 38.7952C50.7999 38.7952 51.1657 38.7952 51.5426 38.7952C52.0912 40.4412 52.6399 42.0872 53.2052 43.7831C52.8394 43.7831 52.4737 43.7831 52.0968 43.7831C52.0968 43.4173 52.0968 43.0516 52.0968 42.6747C51.3652 42.6747 50.6337 42.6747 49.8799 42.6747C49.8799 43.0405 49.8799 43.4063 49.8799 43.7831C49.5141 43.7831 49.1484 43.7831 48.7715 43.7831C49.3202 42.1371 49.8688 40.4911 50.4341 38.7952Z" fill="#62B482"/>
<path id="Vector_17" d="M22.1685 38.7952C22.7172 38.7952 23.2659 38.7952 23.8312 38.7952C24.1969 40.4412 24.5627 42.0872 24.9396 43.7831C24.5738 43.7831 24.208 43.7831 23.8312 43.7831C23.8312 43.4173 23.8312 43.0516 23.8312 42.6747C22.7338 43.0405 21.6365 43.4063 20.5059 43.7831C21.0545 42.1371 21.6032 40.4911 22.1685 38.7952ZM22.7227 40.4578C23.2769 41.5663 23.2769 41.5663 23.2769 41.5663L22.7227 40.4578Z" fill="#0092BB"/>
<path id="Vector_18" d="M44.8916 38.7952C45.989 38.7952 47.0863 38.7952 48.2169 38.7952C48.2169 39.1609 48.2169 39.5267 48.2169 39.9036C47.3024 39.9036 46.388 39.9036 45.4458 39.9036C45.4458 40.2694 45.4458 40.6352 45.4458 41.012C46.3603 41.012 47.2747 41.012 48.2169 41.012C48.2169 41.1949 48.2169 41.3778 48.2169 41.5663C47.3024 41.5663 46.388 41.5663 45.4458 41.5663C45.4458 41.932 45.4458 42.2978 45.4458 42.6747C46.3603 42.6747 47.2747 42.6747 48.2169 42.6747C48.2169 43.0405 48.2169 43.4063 48.2169 43.7831C47.1196 43.7831 46.0222 43.7831 44.8916 43.7831C44.8916 42.1371 44.8916 40.4911 44.8916 38.7952Z" fill="#54AF8C"/>
<path id="Vector_19" d="M53.7588 38.7952C54.1246 38.7952 54.4904 38.7952 54.8672 38.7952C54.8672 40.0754 54.8672 41.3556 54.8672 42.6747C55.7817 42.6747 56.6961 42.6747 57.6383 42.6747C57.6383 43.0405 57.6383 43.4063 57.6383 43.7831C56.3581 43.7831 55.0778 43.7831 53.7588 43.7831C53.7588 42.1371 53.7588 40.4911 53.7588 38.7952Z" fill="#6CB87A"/>
<path id="Vector_20" d="M39.3496 38.7952C39.7154 38.7952 40.0812 38.7952 40.458 38.7952C40.9261 40.6674 41.0724 41.9402 40.458 43.7831C40.0923 43.7831 39.7265 43.7831 39.3496 43.7831C39.3496 42.1371 39.3496 40.4911 39.3496 38.7952Z" fill="#3BA898"/>
<path id="Vector_21" d="M13.3018 19.3977C14.3991 19.9464 14.3991 19.9464 15.5186 20.5061C15.5186 21.6035 15.5186 22.7008 15.5186 23.8314C14.97 24.1058 14.97 24.1058 14.4102 24.3857C14.0444 22.7396 13.6786 21.0936 13.3018 19.3977Z" fill="#1A9FA6"/>
<path id="Vector_22" d="M58.1924 38.7952C58.5582 38.7952 58.9239 38.7952 59.3008 38.7952C59.3008 40.4412 59.3008 42.0872 59.3008 43.7831C58.935 43.7831 58.5693 43.7831 58.1924 43.7831C58.1924 42.1371 58.1924 40.4911 58.1924 38.7952Z" fill="#74BD72"/>
<path id="Vector_23" d="M31.0361 38.7952C31.4019 38.7952 31.7677 38.7952 32.1446 38.7952C32.1446 40.4412 32.1446 42.0872 32.1446 43.7831C31.7788 43.7831 31.413 43.7831 31.0361 43.7831C31.0361 42.1371 31.0361 40.4911 31.0361 38.7952Z" fill="#109EAA"/>
<path id="Vector_24" d="M11.0841 18.2891C11.4498 18.472 11.8156 18.6548 12.1925 18.8433C12.1925 19.2091 12.1925 19.5748 12.1925 19.9517C11.6438 20.1346 11.0951 20.3175 10.5298 20.5059C10.1641 20.8717 9.79827 21.2375 9.4214 21.6144C9.23851 20.8828 9.05562 20.1512 8.86719 19.3975C9.90634 18.8086 9.90634 18.8086 11.0841 18.2891Z" fill="#1B9FA5"/>
</g>
</svg>
