<svg width="22" height="22" viewBox="0 0 22 22" fill="none" xmlns="http://www.w3.org/2000/svg">
<g id="simple-icons:glassdoor" clip-path="url(#clip0_3053_1680)">
<path id="Vector" d="M12.9338 5.28434e-05C12.9176 -0.00152754 12.9013 0.000363433 12.886 0.00559877C12.8707 0.0108341 12.8566 0.0192926 12.8448 0.0304063C12.833 0.04152 12.8237 0.0550316 12.8175 0.0700338C12.8114 0.085036 12.8085 0.101182 12.8091 0.117386V3.27989C12.8091 3.34222 12.8586 3.38989 12.92 3.39722C15.3217 3.55489 17.1459 4.26805 17.1459 6.77147H11.9951C11.9788 6.77135 11.9627 6.77447 11.9476 6.78064C11.9325 6.78682 11.9188 6.79593 11.9073 6.80744C11.8958 6.81896 11.8867 6.83265 11.8805 6.84772C11.8744 6.86279 11.8712 6.87893 11.8714 6.89522V15.1122C11.8714 15.181 11.9264 15.236 11.9951 15.236H21.1645C21.2333 15.236 21.2883 15.181 21.2883 15.1122V6.73022C21.2883 4.67964 20.5549 3.01222 19.0736 1.84622C17.7096 0.776469 15.6636 0.131136 12.9338 0.00096951M0.833774 6.77239C0.817566 6.77239 0.801518 6.77559 0.786555 6.78182C0.771592 6.78805 0.75801 6.79718 0.746592 6.80869C0.735174 6.82019 0.726145 6.83384 0.720027 6.84885C0.713908 6.86386 0.71082 6.87993 0.710941 6.89614V15.1058C0.710941 15.1746 0.765941 15.2296 0.834691 15.2296H5.98544C5.98544 17.733 4.16127 18.4471 1.75961 18.6038C1.73025 18.6063 1.70286 18.6196 1.68271 18.6411C1.66257 18.6626 1.6511 18.6908 1.65052 18.7202V21.8836C1.65052 21.9524 1.70552 22.0074 1.77427 22.0001C4.50411 21.8699 6.54827 21.2246 7.91319 20.1548C9.39452 18.9888 10.1279 17.3223 10.1279 15.2708V6.89522C10.128 6.87893 10.1249 6.86279 10.1187 6.84772C10.1125 6.83265 10.1034 6.81896 10.0919 6.80744C10.0804 6.79593 10.0667 6.78682 10.0516 6.78064C10.0365 6.77447 10.0204 6.77135 10.0041 6.77147L0.833774 6.77239Z" fill="white"/>
</g>
<defs>
<clipPath id="clip0_3053_1680">
<rect width="22" height="22" fill="white"/>
</clipPath>
</defs>
</svg>
