<svg width="55" height="54" viewBox="0 0 55 54" fill="none" xmlns="http://www.w3.org/2000/svg">
<g id="Frame 1029">
<path id="Vector" d="M37.769 14.002C41.1989 16.7807 43.3579 20.8081 43.8835 25.1599C44.1945 30.0237 42.8357 34.5319 39.6416 38.2766C37.5503 40.6249 34.7444 42.3554 31.6964 43.1501C31.5519 43.1895 31.4074 43.229 31.2585 43.2696C26.8306 44.4584 22.3191 43.7002 18.3498 41.458C17.5797 40.9803 16.8817 40.4391 16.1876 39.859C16.0491 39.7485 15.9106 39.6379 15.768 39.524C12.5368 36.8393 10.6531 32.8158 10.1993 28.6951C9.9042 23.7165 11.3637 19.256 14.6905 15.4845C20.8271 9.07099 30.7946 8.57143 37.769 14.002ZM16.0004 16.7869C13.0583 20.1445 11.7957 24.0771 12.0706 28.5091C12.4816 32.3228 14.3228 35.9007 17.2365 38.4199C20.6221 41.0911 24.4438 42.3253 28.7524 41.8627C32.795 41.3325 36.4124 39.4063 38.9478 36.2075C41.4123 32.8034 42.4892 28.7426 41.962 24.5775C41.5038 21.8932 40.245 19.3932 38.4566 17.3451C38.3138 17.1571 38.171 16.9691 38.0238 16.7753C35.6881 14.2369 32.0286 12.3137 28.5335 12.1136C23.7615 11.9092 19.3828 13.2894 16.0004 16.7869Z" fill="#060606"/>
<path id="Vector_2" d="M40.3276 0.0411107C40.8663 0.576721 40.88 1.19168 40.9943 1.91339C41.0182 2.06128 41.0422 2.20916 41.0668 2.36152C41.2281 3.41097 41.3438 4.45923 41.4154 5.51841C41.4253 5.65142 41.4352 5.78443 41.4454 5.92147C41.4835 6.62197 41.4796 6.88205 41.0762 7.48372C40.5718 7.70249 40.5718 7.70249 39.93 7.914C39.1644 8.17063 38.4062 8.42902 37.6566 8.72876C37.4587 8.8069 37.4587 8.8069 37.2568 8.88662C37.0013 8.98812 36.7466 9.09152 36.4928 9.19706C35.6987 9.5076 35.1652 9.55979 34.3393 9.34438C34.2776 8.91457 34.2158 8.48475 34.1522 8.04192C34.8009 7.47634 35.5181 7.2451 36.3276 6.9953C37.2225 6.72631 37.2225 6.72631 38.082 6.36733C34.8662 4.34329 30.8493 3.68398 27.1113 3.70427C26.9787 3.70467 26.8461 3.70507 26.7095 3.70549C20.2206 3.737 14.8265 6.20335 10.0118 10.4608C9.88904 10.567 9.76625 10.6733 9.63975 10.7827C4.96589 15.0972 2.89217 21.7056 2.59076 27.8492C2.52644 28.323 2.52644 28.323 2.15217 28.6952C1.63383 28.7612 1.3412 28.7845 0.910206 28.4757C0.120753 27.4276 0.683245 25.2078 0.853919 23.9621C1.88908 17.196 5.67691 10.8359 11.2282 6.76272C15.8654 3.46682 21.061 1.62696 26.7838 1.65755C26.9156 1.65789 27.0474 1.65823 27.1832 1.65858C29.2381 1.66747 31.2172 1.77399 33.2165 2.27389C33.3486 2.30582 33.4807 2.33775 33.6167 2.37065C35.5913 2.8606 37.391 3.59577 39.2048 4.50668C39.1906 4.39124 39.1763 4.27579 39.1616 4.15685C39.0987 3.63418 39.0406 3.1111 38.9826 2.58788C38.9601 2.40619 38.9375 2.22451 38.9143 2.03732C38.8956 1.86282 38.8769 1.68833 38.8576 1.50856C38.839 1.34778 38.8204 1.18701 38.8012 1.02136C38.8306 0.599307 38.8306 0.599307 39.0796 0.267015C39.5143 -0.0473231 39.803 -0.0257717 40.3276 0.0411107Z" fill="#060606"/>
<path id="Vector_3" d="M53.3213 25.2878C53.8009 25.3459 53.8009 25.3459 54.1071 25.5632C54.7821 26.4651 54.4138 28.0258 54.2614 29.081C53.0876 36.3624 49.7238 42.9977 43.6086 47.4063C38.9329 50.6605 33.588 52.4119 27.871 52.3952C27.7402 52.3951 27.6094 52.395 27.4747 52.3949C25.2651 52.387 23.1809 52.1954 21.0523 51.5811C20.8288 51.5169 20.8288 51.5169 20.6009 51.4513C18.9345 50.9584 17.3297 50.391 15.8125 49.5344C15.8417 49.7342 15.8709 49.934 15.901 50.1399C15.9379 50.4071 15.9746 50.6743 16.0113 50.9415C16.0405 51.1382 16.0405 51.1382 16.0702 51.3387C16.1877 52.2127 16.1635 52.9467 15.9996 53.8139C15.5674 53.8753 15.1351 53.9367 14.6897 54C14.1954 53.2843 14.036 52.7323 13.9507 51.8719C13.9154 51.5301 13.9154 51.5301 13.8794 51.1814C13.8573 50.9449 13.8353 50.7084 13.8125 50.4647C13.7883 50.2283 13.764 49.9918 13.739 49.7481C13.6761 49.1188 13.6141 48.4905 13.5669 47.8598C13.5493 47.6931 13.5318 47.5264 13.5137 47.3547C13.5669 46.9295 13.5669 46.9295 13.8725 46.6182C14.3757 46.3377 14.8678 46.1439 15.4134 45.957C15.6254 45.8841 15.8375 45.8112 16.0559 45.7361C16.387 45.6245 16.387 45.6245 16.7248 45.5108C16.9441 45.435 17.1633 45.3592 17.3893 45.2811C19.3308 44.6193 19.3308 44.6193 20.3037 44.5107C20.6546 44.72 20.6546 44.72 20.8652 45.0688C20.9587 45.534 20.9587 45.534 20.8652 45.9992C20.1063 46.5457 19.2474 46.8361 18.3739 47.1505C18.2353 47.2012 18.0967 47.2519 17.954 47.3042C17.6147 47.4282 17.2751 47.5511 16.9353 47.6738C17.4151 48.1508 17.9527 48.3381 18.5728 48.5808C18.6978 48.6299 18.8228 48.679 18.9516 48.7296C21.8935 49.8609 24.7451 50.3572 27.8944 50.3485C28.0915 50.3484 28.0915 50.3484 28.2925 50.3483C30.4467 50.3419 32.4561 50.1492 34.526 49.5344C34.6479 49.5006 34.7697 49.4667 34.8953 49.4318C40.8197 47.7732 46.0325 43.7001 49.0757 38.3938C50.4855 35.8636 51.4174 33.1633 51.9529 30.3232C51.9853 30.1545 52.0177 29.9858 52.0511 29.812C52.275 28.6004 52.4015 27.4192 52.4397 26.1869C52.5099 25.5439 52.6748 25.3702 53.3213 25.2878Z" fill="#060606"/>
<path id="Vector_4" d="M21.2489 20.4484C21.451 20.449 21.451 20.449 21.6572 20.4496C22.068 20.4502 22.4785 20.4459 22.8893 20.4412C23.1501 20.4407 23.411 20.4406 23.6718 20.4408C24.0284 20.44 24.0284 20.44 24.3921 20.4391C24.9825 20.5084 24.9825 20.5084 25.34 20.6958C25.6717 21.299 25.6276 21.9304 25.625 22.6009C25.626 22.7511 25.627 22.9014 25.628 23.0562C25.6292 23.3738 25.6289 23.6915 25.6273 24.0091C25.6258 24.4948 25.6311 24.98 25.6371 25.4656C25.6374 25.7744 25.6373 26.0832 25.6367 26.392C25.6399 26.6095 25.6399 26.6095 25.6431 26.8314C25.6348 27.4752 25.5938 27.8783 25.2247 28.416C24.7097 28.751 24.4331 28.7821 23.8217 28.7679C23.6383 28.7655 23.455 28.7631 23.2661 28.7607C23.076 28.7544 22.8859 28.7482 22.6901 28.7418C22.4971 28.7384 22.3041 28.7351 22.1053 28.7316C21.6296 28.7228 21.154 28.7095 20.6784 28.6953C20.6784 29.6777 20.6784 30.6601 20.6784 31.6723C20.9826 31.6658 21.2868 31.6593 21.6002 31.6527C21.9986 31.6474 22.3969 31.6424 22.7953 31.6374C22.9959 31.6327 23.1965 31.6281 23.4032 31.6232C23.5955 31.6214 23.7879 31.6196 23.9861 31.6178C24.2522 31.6134 24.2522 31.6134 24.5236 31.6089C24.9825 31.6723 24.9825 31.6723 25.3276 31.925C25.5439 32.2305 25.5439 32.2305 25.5088 32.7073C25.3567 33.1608 25.3567 33.1608 24.9825 33.533C24.4134 33.5811 24.4134 33.5811 23.6901 33.5824C23.4991 33.5829 23.4991 33.5829 23.3042 33.5835C23.0349 33.5837 22.7656 33.583 22.4963 33.5815C22.0835 33.5795 21.6708 33.5814 21.2581 33.5838C20.9966 33.5836 20.7351 33.5831 20.4737 33.5824C20.235 33.582 19.9963 33.5815 19.7504 33.5811C19.1813 33.533 19.1813 33.533 18.807 33.1608C18.7586 32.5779 18.7586 32.5779 18.7573 31.8351C18.757 31.7044 18.7566 31.5736 18.7562 31.4389C18.756 31.1624 18.7567 30.8858 18.7582 30.6093C18.7602 30.1854 18.7583 29.7617 18.7559 29.3378C18.7561 29.0693 18.7566 28.8009 18.7573 28.5324C18.7577 28.2873 18.7582 28.0422 18.7586 27.7896C18.807 27.2067 18.807 27.2067 19.1813 26.8346C19.6361 26.7924 19.6361 26.7924 20.2003 26.7983C20.3817 26.7992 20.5632 26.8001 20.7501 26.8011C20.9812 26.8045 21.2122 26.8079 21.4503 26.8113C22.5503 26.8229 22.5503 26.8229 23.6725 26.8346C23.6725 25.361 23.6725 23.8873 23.6725 22.369C22.2113 22.3838 22.2113 22.3838 20.7501 22.4026C20.478 22.404 20.478 22.404 20.2003 22.4054C19.921 22.4083 19.921 22.4083 19.6361 22.4113C19.1813 22.369 19.1813 22.369 18.807 21.9969C18.7602 21.4387 18.7602 21.4387 18.807 20.8805C19.451 20.2403 20.3791 20.4519 21.2489 20.4484Z" fill="#020202"/>
<path id="Vector_5" d="M33.9649 20.5082C35.0069 20.614 35.0069 20.614 35.2748 20.8804C35.2954 21.2608 35.3027 21.6419 35.305 22.0229C35.3068 22.2675 35.3086 22.5122 35.3104 22.7642C35.3113 23.0334 35.3121 23.3026 35.3128 23.5718C35.3139 23.8459 35.315 24.1201 35.3161 24.3943C35.318 24.9698 35.3191 25.5452 35.3198 26.1207C35.3208 26.8592 35.3253 27.5977 35.3306 28.3363C35.3341 28.9028 35.3351 29.4693 35.3354 30.0357C35.3359 30.3081 35.3375 30.5804 35.3399 30.8528C35.3431 31.2332 35.3424 31.6136 35.3415 31.9941C35.3426 32.3192 35.3426 32.3192 35.3436 32.651C35.3209 32.8192 35.2982 32.9874 35.2748 33.1607C34.7134 33.5328 34.7134 33.5328 34.2339 33.4863C33.7778 33.3467 33.7778 33.3467 33.4035 32.9746C33.361 32.5395 33.361 32.5395 33.3669 32.0021C33.3681 31.8103 33.3693 31.6184 33.3706 31.4207C33.3737 31.2197 33.3769 31.0187 33.3801 30.8116C33.3818 30.6092 33.3835 30.4067 33.3852 30.1982C33.3896 29.6971 33.3958 29.1961 33.4035 28.6951C33.2987 28.698 33.1939 28.701 33.086 28.704C32.611 28.7156 32.1359 28.7228 31.6608 28.73C31.4135 28.737 31.4135 28.737 31.1612 28.7442C30.9232 28.7469 30.9232 28.7469 30.6805 28.7496C30.5345 28.7525 30.3885 28.7555 30.238 28.7585C29.8479 28.6951 29.8479 28.6951 29.5152 28.4708C29.1859 27.99 29.1835 27.7838 29.2865 27.2066C29.5527 26.6893 29.8807 26.2208 30.2149 25.745C30.3095 25.6067 30.4042 25.4685 30.5017 25.3261C30.8042 24.8855 31.1097 24.4471 31.4152 24.0086C31.6196 23.7113 31.8238 23.4139 32.0278 23.1164C32.4018 22.5731 32.7759 22.0298 33.153 21.4886C33.2287 21.3798 33.3043 21.2711 33.3822 21.159C33.5906 20.8804 33.5906 20.8804 33.9649 20.5082Z" fill="#050505"/>
<path id="Vector_6" d="M33.2162 24.7877C33.2779 24.7877 33.3397 24.7877 33.4033 24.7877C33.4033 25.4631 33.4033 26.1386 33.4033 26.8344C32.9093 26.8344 32.4153 26.8344 31.9062 26.8344C32.1199 26.4928 32.3345 26.1518 32.5495 25.8111C32.6689 25.6211 32.7883 25.4312 32.9114 25.2354C33.0623 25.0138 33.0623 25.0138 33.2162 24.7877Z" fill="#E8E8E8"/>
</g>
</svg>
