<svg width="55" height="54" viewBox="0 0 55 54" fill="none" xmlns="http://www.w3.org/2000/svg">
<g id="Frame 1028">
<rect width="54" height="54" transform="translate(0.5)" fill="#EBF4FA"/>
<path id="Vector" d="M25.9253 10.7149L25.9253 10.7149L25.9255 10.7188L25.967 11.4813L25.9839 11.8641C25.9845 11.8834 25.985 11.9025 25.9856 11.9213C25.9951 12.2481 26.0028 12.513 26.0853 12.7575C26.1685 13.0045 26.3228 13.2156 26.5097 13.4715C26.5212 13.4872 26.5328 13.5031 26.5445 13.5191L26.6743 13.6971L26.8933 13.7215L26.9205 13.7245C27.1701 13.7522 27.3337 13.7704 27.4995 13.7704C27.6653 13.7704 27.8289 13.7522 28.0786 13.7245L28.1058 13.7215L28.2801 13.7021L28.4041 13.5781C29.0045 12.9777 29.0161 12.2976 29.0257 11.7332C29.0271 11.6462 29.0286 11.5621 29.0321 11.4814C29.0321 11.4805 29.0322 11.4796 29.0322 11.4788L29.0535 11.0908L29.0535 11.0905C29.0619 10.9338 29.0699 10.7772 29.0776 10.6208C32.6837 10.8232 36.0643 12.4143 38.7317 14.8776L38.7317 14.8776L38.7393 14.8844L39.1255 15.2266C41.8913 17.8109 43.7253 21.6635 43.8887 25.421L43.7846 25.4258L43.7807 25.426L43.0208 25.4674L43.0156 25.4676L42.639 25.4843C42.6378 25.4843 42.6366 25.4844 42.6354 25.4844C42.6162 25.485 42.5971 25.4855 42.5782 25.4861C42.2515 25.4956 41.9866 25.5033 41.742 25.5858C41.4951 25.669 41.284 25.8233 41.0281 26.0102C41.0124 26.0217 40.9965 26.0333 40.9804 26.045L40.8024 26.1748L40.7781 26.3938L40.7751 26.4209C40.7473 26.6706 40.7291 26.8342 40.7291 27C40.7291 27.1658 40.7473 27.3295 40.7751 27.5791L40.7781 27.6063L40.7975 27.7806L40.9215 27.9046C41.5219 28.505 42.202 28.5166 42.7664 28.5262C42.8533 28.5276 42.9375 28.5291 43.0182 28.5326C43.019 28.5326 43.0199 28.5327 43.0208 28.5327L43.4087 28.554L43.4091 28.554C43.5665 28.5625 43.7238 28.5705 43.8809 28.5782C43.8056 30.1538 43.52 31.698 42.8905 33.1107C42.5402 33.3684 42.2153 33.4074 41.6073 33.4802L41.5828 33.4832L41.5458 33.4876L41.5098 33.4975C39.1568 34.1448 36.9901 35.5253 35.5433 37.5438C35.5429 37.5444 35.5425 37.545 35.5421 37.5456L35.2553 37.939L35.2487 37.948L35.2426 37.9573C34.6553 38.8435 34.3089 39.6823 34.0443 40.6858C33.8207 41.5256 33.7235 41.8844 33.6264 42.1059C33.5585 42.261 33.5025 42.3287 33.3036 42.5277C32.946 42.6881 32.6125 42.7727 32.1803 42.856L32.167 42.8586L32.1538 42.8619L31.5196 43.0205C31.5186 43.0207 31.5176 43.0209 31.5167 43.0212C30.6621 43.2239 29.8927 43.374 29.079 43.3983L29.0738 43.2851L29.0736 43.2812L29.0322 42.5213L29.0319 42.5161L29.0152 42.1395C29.0152 42.1384 29.0152 42.1372 29.0151 42.136C29.0146 42.1167 29.014 42.0976 29.0135 42.0788C29.0039 41.752 28.9962 41.4871 28.9138 41.2425C28.8305 40.9956 28.6763 40.7845 28.4893 40.5285C28.4778 40.5129 28.4662 40.497 28.4545 40.4809L28.3247 40.3029L28.1058 40.2786L28.0785 40.2756C27.8289 40.2478 27.6653 40.2296 27.4995 40.2296C27.3337 40.2296 27.1701 40.2478 26.9205 40.2756L26.8933 40.2786L26.719 40.298L26.5949 40.422C25.9945 41.0224 25.983 41.7025 25.9734 42.2669C25.9719 42.3538 25.9705 42.438 25.967 42.5188C25.9669 42.5196 25.9669 42.5204 25.9668 42.5213L25.9456 42.9092L25.9456 42.9096C25.9371 43.067 25.9291 43.2243 25.9214 43.3814C21.9542 43.1758 18.5178 41.2874 15.5919 38.5267C13.0177 35.8305 11.3865 32.281 11.1276 28.5783L11.2144 28.5743L11.2144 28.5743L11.2183 28.5741L11.9783 28.5327L11.9835 28.5324L12.3635 28.5156C12.3828 28.5151 12.4019 28.5145 12.4208 28.514C12.7476 28.5044 13.0125 28.4967 13.257 28.4143C13.504 28.331 13.7151 28.1768 13.971 27.9898C13.9867 27.9783 14.0026 27.9668 14.0186 27.955L14.1966 27.8252L14.221 27.6063L14.224 27.5791C14.2517 27.3294 14.2699 27.1658 14.2699 27C14.2699 26.8342 14.2517 26.6706 14.224 26.421L14.221 26.3938L14.2016 26.2195L14.0776 26.0955C13.4772 25.495 12.7971 25.4835 12.2327 25.4739C12.1457 25.4724 12.0615 25.471 11.9808 25.4675L11.5903 25.4461L11.59 25.4461C11.4326 25.4376 11.2753 25.4296 11.1181 25.4219C11.3237 21.4546 13.2123 18.0181 15.9732 15.0921C18.6095 12.5663 22.2897 10.6851 25.9201 10.6026L25.9253 10.7149Z" fill="#EBF4FA" stroke="black"/>
<path id="Vector_2" d="M8.43157 45.6352L8.43265 45.6363C8.75218 45.9605 9.07096 46.2839 9.39091 46.6059L8.43157 45.6352ZM8.43157 45.6352C8.21373 45.4155 7.99581 45.1959 7.7778 44.9764C7.33041 44.5256 6.88378 44.074 6.43755 43.6217C6.75942 43.0746 7.21454 42.6648 7.77782 42.1575C7.80128 42.1364 7.82493 42.1151 7.84877 42.0936L7.84888 42.0938M8.43157 45.6352L7.84888 42.0938M7.84888 42.0938L7.8581 42.085M7.84888 42.0938L7.8581 42.085M7.8581 42.085C8.27024 41.6941 8.63907 41.3288 8.80851 40.6309L8.83636 40.5161M7.8581 42.085L8.83636 40.5161M8.83636 40.5161L8.80996 40.4011M8.83636 40.5161L8.80996 40.4011M8.80996 40.4011C8.64311 39.674 8.27396 39.1201 7.92896 38.6024M8.80996 40.4011L7.92896 38.6024M7.92896 38.6024C7.91522 38.5818 7.90151 38.5613 7.88785 38.5407C6.55403 36.4235 5.75801 34.1093 5.19811 31.6378C5.19401 31.6192 5.18993 31.6003 5.1858 31.5812C5.13664 31.3542 5.08052 31.0951 4.91328 30.8886C4.81836 30.7713 4.70621 30.6893 4.5985 30.6224C4.49801 30.56 4.37342 30.4943 4.23664 30.4221L4.22322 30.415L4.12593 30.3636M7.92896 38.6024L4.12593 30.3636M4.12593 30.3636L4.01608 30.3578M4.12593 30.3636L4.01608 30.3578M4.01608 30.3578L1 30.1991M4.01608 30.3578L1 30.1991M1 30.1991V30.1904V30.1762V30.162V30.1478V30.1336V30.1194V30.1052V30.091V30.0768V30.0626V30.0484V30.0341V30.0199V30.0057V29.9915V29.9773V29.9631V29.9489V29.9347V29.9205V29.9063V29.892V29.8778V29.8636V29.8494V29.8352V29.821V29.8068V29.7926V29.7784V29.7641V29.7499V29.7357V29.7215V29.7073V29.6931V29.6789V29.6646V29.6504V29.6362V29.622V29.6078V29.5936V29.5794V29.5651V29.5509V29.5367V29.5225V29.5083V29.4941V29.4798V29.4656V29.4514V29.4372V29.423V29.4088V29.3945V29.3803V29.3661V29.3519V29.3377V29.3234V29.3092V29.295V29.2808V29.2665V29.2523V29.2381V29.2239V29.2097V29.1954V29.1812V29.167V29.1528V29.1385V29.1243V29.1101V29.0959V29.0816V29.0674V29.0532V29.0389V29.0247V29.0105V28.9963V28.982V28.9678V28.9536V28.9393V28.9251V28.9109V28.8967V28.8824V28.8682V28.854V28.8397V28.8255V28.8113V28.797V28.7828V28.7685V28.7543V28.7401V28.7258V28.7116V28.6974V28.6831V28.6689V28.6547V28.6404V28.6262V28.6119V28.5977V28.5834V28.5692V28.555V28.5407V28.5265V28.5122V28.498V28.4837V28.4695V28.4553V28.441V28.4268V28.4125V28.3983V28.384V28.3698V28.3555V28.3413V28.327V28.3128V28.2985V28.2843V28.27V28.2558V28.2415V28.2273V28.213V28.1987V28.1845V28.1702V28.156V28.1417V28.1275V28.1132V28.0989V28.0847V28.0704V28.0562V28.0419V28.0276V28.0134V27.9991V27.9848V27.9706V27.9563V27.942V27.9278V27.9135V27.8992V27.885V27.8707V27.8564V27.8422V27.8279V27.8136V27.7993V27.7851V27.7708V27.7565V27.7422V27.728V27.7137V27.6994V27.6851V27.6709V27.6566V27.6423V27.628V27.6137V27.5995V27.5852V27.5709V27.5566V27.5423V27.528V27.5138V27.4995V27.4852V27.4709V27.4566V27.4423V27.428V27.4137V27.3994V27.3851V27.3708V27.3565V27.3423V27.328V27.3137V27.2994V27.2851V27.2708V27.2565V27.2422V27.2279V27.2136V27.1993V27.1849V27.1706V27.1563V27.142V27.1277V27.1134V27.0991V27.0848V27.0705V27.0562V27.0419V27.0276V27.0132V26.9989V26.9846V26.9703V26.956V26.9417V26.9273V26.913V26.8987V26.8844V26.8701V26.8557V26.8414V26.8271V26.8127V26.7984V26.7841V26.7698V26.7554V26.7411V26.7268V26.7124V26.6981V26.6838V26.6694V26.6551V26.6408V26.6264V26.6121V26.5977V26.5834V26.5691V26.5547V26.5404V26.526V26.5117V26.4973V26.483V26.4686V26.4543V26.4399V26.4256V26.4112V26.3969V26.3825V26.3682V26.3538V26.3395V26.3251V26.3108V26.2964V26.282V26.2677V26.2533V26.2389V26.2246V26.2102V26.1958V26.1815V26.1671V26.1527V26.1384V26.124V26.1096V26.0952V26.0809V26.0665V26.0521V26.0377V26.0233V30.1991Z" fill="#EBF4FA" stroke="black"/>
<path id="Vector_3" d="M39.3475 38.0835C42.279 35.6315 46.2514 35.7199 49.4675 37.6904C51.0825 38.8483 52.1352 40.4777 52.6575 42.4192C53.0028 44.9452 52.6675 47.2634 51.1684 49.2824C49.7714 50.9595 47.9597 52.2073 45.8156 52.4397C43.0517 52.5855 40.9112 51.9926 38.8194 50.1494C36.9325 48.1857 36.5278 45.9567 36.5703 43.2324C36.6603 41.1658 37.7912 39.5648 39.3475 38.0835Z" fill="#EBF4FA" stroke="black"/>
<path id="Vector_4" d="M21.7114 20.0028L21.7117 20.0031C22.4302 20.7932 23.1567 21.5778 23.8997 22.3497L24.2208 22.6964L24.2207 22.6965L24.2296 22.7057C24.5183 23.0017 24.8156 23.2955 25.1988 23.5563L25.3233 23.641L25.4738 23.6429C25.4866 23.643 25.4994 23.6432 25.5119 23.6433C25.7119 23.646 25.8811 23.6482 26.0488 23.6147C26.203 23.5838 26.3484 23.5243 26.5171 23.4523C27.7507 23.3707 28.6061 23.4503 29.6722 23.9611L29.7913 24.0182L29.9231 24.009C30.4827 23.9698 30.9572 23.7311 31.3554 23.4652C31.6062 23.2977 31.8665 23.0892 32.0984 22.9034C32.2124 22.8121 32.3195 22.7263 32.4152 22.6536C32.8391 22.3456 33.1052 22.1804 33.5123 22.1052C33.6575 22.1333 33.6702 22.1405 33.686 22.1494L33.6866 22.1497C33.6993 22.1569 33.7252 22.1738 33.7825 22.2225C33.8307 22.2636 33.889 22.3165 33.9704 22.3914C34.0261 22.488 34.0649 22.5563 34.0941 22.6123C34.1285 22.6781 34.1384 22.7062 34.1421 22.7196C34.1482 22.741 34.1524 22.7592 34.1431 22.9443C34.0678 23.1501 33.9953 23.2638 33.9136 23.3554C33.8112 23.4702 33.6754 23.5735 33.4183 23.7592L33.4163 23.7606L32.9698 24.0862L32.5406 24.3861L32.5406 24.386L32.5352 24.3899L32.1965 24.6333C31.824 24.8933 31.702 24.9751 31.6197 25.0108C31.6184 25.0114 31.6171 25.012 31.6158 25.0125C31.5873 25.0251 31.5746 25.0306 31.3576 25.0306H30.5486L30.9104 25.7543L31.052 26.0374C31.1666 27.323 31.1218 28.3209 30.4245 29.2478C29.6836 30.0302 29.0109 30.4815 28.0062 30.6096C27.3471 30.6223 26.8442 30.6037 26.3932 30.4888C25.9537 30.3768 25.5415 30.167 25.0881 29.7583C24.3958 29.0786 23.994 28.4399 23.9176 27.5519L23.9252 27.0186H23.9252L23.9252 27.0147L23.9287 26.4709C23.9442 26.1921 23.9509 26.083 23.9679 25.9748C23.9854 25.8639 24.0143 25.7497 24.0895 25.4582L24.0944 25.4391L24.0978 25.4197L24.1006 25.4036C24.1227 25.2775 24.1444 25.1541 24.1538 25.0469C24.1645 24.9271 24.1641 24.7906 24.12 24.6445C24.0762 24.4997 24.0016 24.3855 23.928 24.2912C23.861 24.2053 23.7745 24.1109 23.6841 24.0121L23.6734 24.0005L23.6568 23.9824L23.6386 23.966L23.1541 23.5314C22.5867 23.0032 22.0637 22.5148 21.5939 21.9505L21.5939 21.9505L21.5919 21.9481C21.158 21.4335 20.7016 20.9657 20.2218 20.5103L19.8699 20.1728L19.8699 20.1728L19.8689 20.1718C19.6338 19.9476 19.3963 19.7255 19.1563 19.506C18.8672 19.2288 18.6953 19.05 18.5667 18.8578C18.4507 18.6843 18.3577 18.4806 18.269 18.1521C18.2677 17.8849 18.2704 17.8111 18.2806 17.7611C18.2847 17.7407 18.2888 17.725 18.3286 17.6486C18.5043 17.5614 18.6179 17.5286 18.7205 17.5165C18.8403 17.5023 18.9809 17.5118 19.229 17.5553C19.9877 18.0645 20.6079 18.7633 21.2643 19.5029C21.4109 19.668 21.5593 19.8352 21.7114 20.0028Z" fill="white" stroke="black"/>
<path id="Vector_5" d="M48.2959 42.6579L48.2959 42.6579L48.2921 42.6622L47.8394 43.1805L47.5933 43.4548L47.592 43.4561C47.2495 43.8405 46.9167 44.2326 46.5883 44.6195C46.5534 44.6606 46.5185 44.7017 46.4836 44.7428C45.1033 46.365 44.4355 47.1493 44.0398 47.5469C43.8438 47.7439 43.7478 47.8111 43.6932 47.8399C43.6581 47.8585 43.6302 47.868 43.5487 47.8839C42.9237 47.7796 42.5828 47.4599 42.0116 46.9242C41.9586 46.8744 41.9036 46.8228 41.8461 46.7693L41.8462 46.7693L41.8395 46.7633L41.4664 46.4281C41.4663 46.428 41.4662 46.4279 41.4661 46.4278C40.7851 45.8137 40.5028 45.556 40.3651 45.3781C40.3114 45.3086 40.2965 45.2712 40.287 45.2379C40.2736 45.1915 40.2655 45.1353 40.2518 45.0102C40.2787 44.7486 40.2891 44.6711 40.3051 44.616C40.3137 44.5868 40.3231 44.5637 40.3743 44.4756C40.5189 44.4023 40.6357 44.3737 40.7533 44.3628C40.8977 44.3494 41.0531 44.3607 41.2926 44.384C41.4832 44.5045 41.5764 44.565 41.6664 44.632C41.7717 44.7104 41.8753 44.7995 42.1197 45.0109L42.1196 45.0109L42.123 45.0137L42.6056 45.4237L42.9648 45.7417L43.3121 46.0492L43.6447 45.7259C44.4043 44.9875 45.0972 44.2112 45.776 43.4205C45.7761 43.4204 45.7763 43.4202 45.7764 43.4201L46.0801 43.068L46.0802 43.0679L46.3826 42.7172L46.3834 42.7164L46.683 42.3704L46.683 42.3705L46.6857 42.3672C46.8904 42.1268 47.0912 41.8833 47.2882 41.6373L47.574 41.2849L47.574 41.2849L47.5779 41.2801L47.8049 40.993C47.9063 40.9016 47.9155 40.8991 47.9242 40.8967C47.9252 40.8964 47.9262 40.8961 47.9273 40.8957C47.9473 40.8885 47.9876 40.8771 48.08 40.8604C48.157 40.8464 48.2542 40.8314 48.3872 40.8114C48.6494 40.8576 48.7047 40.8723 48.7421 40.8905C48.7635 40.901 48.7844 40.9143 48.8783 41.0052C48.903 41.2668 48.9093 41.4555 48.8876 41.6285C48.8644 41.8134 48.8062 42.0002 48.6671 42.2425L48.2959 42.6579Z" fill="#EBF4FA" stroke="black"/>
<path id="Vector_6" d="M28.2344 25.1632C28.7378 25.5161 29.0613 25.8997 29.3365 26.4489C29.4368 27.18 29.2657 27.7423 28.8658 28.366C28.242 28.7659 27.6798 28.9371 26.9487 28.8367C26.3984 28.561 26.021 28.235 25.663 27.7347C25.5231 27.0816 25.5041 26.7076 25.8596 26.129C26.5828 25.2239 27.0814 25.0095 28.2344 25.1632Z" fill="#040404"/>
</g>
</svg>
