<svg width="98" height="40" viewBox="0 0 98 40" fill="none" xmlns="http://www.w3.org/2000/svg">
<g id="unicus logo 1" clip-path="url(#clip0_2881_1545)">
<path id="Vector" d="M19.7515 5.92453C19.7515 6.08333 19.7515 6.24213 19.7515 6.40574C19.9103 6.40574 20.0691 6.40574 20.2327 6.40574C20.4419 6.7159 20.6407 7.03301 20.8342 7.35313C21.3797 8.12111 21.3797 8.12111 22.2215 8.46969C22.6293 8.48764 23.0372 8.50223 23.4452 8.51386C25.1323 8.66565 26.4296 9.61997 27.5562 10.8269C28.9119 12.4888 29.4315 14.1334 29.3758 16.2706C29.1624 17.3526 28.8379 18.3408 28.3081 19.3082C28.1094 20.1471 28.4817 20.6131 28.888 21.3449C29.645 22.7525 29.4963 24.3794 29.1051 25.8798C28.3868 28.0711 27.039 29.3681 25.0449 30.4663C23.8421 31.0176 22.7337 30.9995 21.4358 30.9476C21.3812 31.1212 21.3266 31.2949 21.2703 31.4739C20.551 33.0153 18.9514 34.2066 17.3859 34.8264C15.4737 35.3569 13.4472 35.2406 11.6414 34.4128C10.2417 33.5568 9.2246 32.5028 8.68364 30.9476C8.41567 30.9674 8.14769 30.9873 7.87159 31.0077C5.92257 30.9974 4.25191 30.1113 2.85082 28.7981C1.5266 27.2414 0.90425 25.4066 0.910936 23.3873C1.02389 22.4315 1.38246 21.5972 1.75964 20.7171C2.06445 19.7445 1.74392 19.2412 1.33012 18.3308C0.689375 16.6306 0.682183 14.6364 1.36019 12.9472C2.35757 11.0466 3.76904 9.57968 5.79637 8.8118C6.25096 8.73656 6.70736 8.67155 7.16481 8.61631C8.11413 8.48074 8.11413 8.48074 8.86409 7.92551C9.09557 7.59276 9.31932 7.25449 9.53516 6.91139C10.5087 5.51094 12.0366 4.73702 13.6461 4.31548C16.0471 4.09317 17.7759 4.60742 19.7515 5.92453ZM12.0972 17.1428C11.4252 18.0447 11.1334 19 11.0897 20.1203C11.3243 21.4696 11.9487 22.3853 13.0146 23.2482C13.982 23.7828 14.8073 23.8407 15.9018 23.7294C16.9229 23.3928 17.6588 22.9306 18.4282 22.1805C18.9886 20.8496 19.0465 19.6139 18.7891 18.1954C18.2002 17.0935 17.4721 16.4469 16.353 15.9097C14.6241 15.609 13.418 15.9101 12.0972 17.1428Z" fill="#71CFAB"/>
<path id="Vector_2" d="M19.7515 5.92453C19.7515 6.08333 19.7515 6.24213 19.7515 6.40574C19.9103 6.40574 20.0691 6.40574 20.2327 6.40574C20.5429 6.75725 20.5429 6.75725 20.8643 7.21779C20.9716 7.36852 21.0789 7.51926 21.1895 7.67456C21.4358 8.08999 21.4358 8.08999 21.4358 8.5712C21.2087 8.62423 21.2087 8.62423 20.9771 8.67834C18.6443 9.28964 17.224 10.324 15.9469 12.3748C15.6018 13.0117 15.3599 13.6442 15.18 14.3457C15.4182 14.4251 15.6564 14.5045 15.9018 14.5863C15.7101 14.6273 15.5185 14.6682 15.321 14.7104C13.4698 15.1338 12.0645 15.5347 10.8792 17.0977C10.0355 18.5362 10.1285 20.3915 10.5342 21.9709C10.6085 22.5263 10.6085 22.5263 10.35 22.9361C10.2219 23.059 10.0938 23.1818 9.96186 23.3083C8.48692 24.907 8.06475 26.4225 8.13664 28.5847C8.2187 29.4312 8.39351 30.1497 8.68364 30.9476C6.61344 31.1009 4.94491 30.5316 3.31512 29.2332C1.86001 27.8694 0.979884 25.9493 0.909057 23.9549C0.913004 22.7628 1.29427 21.803 1.75964 20.7171C2.06445 19.7445 1.74392 19.2412 1.33012 18.3308C0.689375 16.6306 0.682183 14.6364 1.36019 12.9472C2.35756 11.0466 3.76904 9.57968 5.79637 8.8118C6.25096 8.73656 6.70736 8.67155 7.16481 8.61631C8.11413 8.48074 8.11413 8.48074 8.86409 7.92551C9.09557 7.59276 9.31932 7.25449 9.53516 6.91139C10.5087 5.51094 12.0366 4.73702 13.6461 4.31548C16.0471 4.09317 17.7759 4.60742 19.7515 5.92453Z" fill="#72DAD4"/>
<path id="Vector_3" d="M22.1418 8.31738C24.3654 8.47696 26.0236 9.18478 27.5564 10.8268C28.9121 12.4887 29.4317 14.1333 29.376 16.2705C29.1626 17.3525 28.8381 18.3407 28.3083 19.3082C28.1096 20.147 28.4819 20.613 28.8882 21.3449C29.6452 22.7525 29.4965 24.3793 29.1053 25.8797C28.3874 28.0699 27.0395 29.3699 25.0451 30.4663C23.8869 30.9863 22.9247 30.9905 21.6766 30.9475C21.7147 30.7406 21.7529 30.5338 21.7922 30.3206C22.1266 28.1352 22.1593 26.1226 20.9548 24.2105C20.6877 23.8668 20.4171 23.5259 20.1427 23.188C19.7668 22.7086 19.7668 22.7086 19.5111 22.2857C19.6615 21.7143 19.6615 21.7143 19.9923 21.0827C20.1802 19.4707 19.9242 18.2225 19.2705 16.7518C19.4194 16.7319 19.5683 16.7121 19.7216 16.6916C20.2662 16.5596 20.2662 16.5596 20.5027 16.0741C20.5725 15.9007 20.6422 15.7274 20.7141 15.5487C20.8374 15.3147 20.8374 15.3147 20.9632 15.076C21.931 13.2177 22.2053 11.4783 21.6615 9.42831C21.5871 9.14544 21.5127 8.86258 21.436 8.57115C21.6766 8.33054 21.6766 8.33054 22.1418 8.31738Z" fill="#FDDD5B"/>
<path id="Vector_4" d="M10.6086 17.2327C10.5695 17.3596 10.5305 17.4864 10.4902 17.6171C10.3381 18.3365 10.3362 19.009 10.3379 19.7441C10.3373 20.0117 10.3367 20.2794 10.3361 20.5552C10.3416 21.3106 10.3416 21.3106 10.5306 21.9744C10.6086 22.5261 10.6086 22.5261 10.3501 22.9359C10.2221 23.0587 10.094 23.1815 9.96198 23.308C8.48705 24.9067 8.06487 26.4222 8.13676 28.5845C8.21883 29.4309 8.39364 30.1494 8.68376 30.9473C6.61356 31.1006 4.94504 30.5313 3.31524 29.233C1.86013 27.8692 0.980007 25.949 0.90918 23.9547C0.937355 22.0544 1.63719 20.1991 2.94681 18.8127C5.18624 16.9101 7.79188 16.0467 10.6086 17.2327Z" fill="#FDDD5A"/>
<path id="Vector_5" d="M21.6762 8.81158C22.369 10.8898 22.318 12.5806 21.4356 14.5861C20.8999 15.5969 20.4728 16.3509 19.5108 16.9922C19.6299 17.2205 19.749 17.4487 19.8717 17.6839C20.4127 18.9653 20.4718 20.2781 20.0747 21.6135C19.4447 23.0336 18.4109 24.0593 17.0098 24.7245C15.735 25.1469 14.3986 25.1605 13.1253 24.7217C11.6208 23.9568 10.6691 22.9489 10.1271 21.3231C9.95988 19.5766 9.90251 18.0897 10.9927 16.6491C12.1715 15.3259 13.5288 14.8891 15.1799 14.3455C15.1898 14.152 15.1997 13.9584 15.2099 13.759C15.6461 11.9833 16.8127 10.5594 18.3077 9.5334C20.4581 8.34004 20.4581 8.34004 21.6762 8.81158ZM12.0971 17.1426C11.4251 18.0445 11.1332 18.9998 11.0895 20.1201C11.3241 21.4694 11.9485 22.3851 13.0144 23.2479C13.9818 23.7826 14.8071 23.8405 15.9017 23.7292C16.9227 23.3926 17.6587 22.9304 18.428 22.1803C18.9884 20.8493 19.0464 19.6137 18.7889 18.1952C18.2 17.0933 17.4719 16.4466 16.3528 15.9095C14.6239 15.6088 13.4178 15.9099 12.0971 17.1426Z" fill="#70CEAA"/>
<path id="Vector_6" d="M22.1418 8.31738C24.3654 8.47696 26.0236 9.18478 27.5564 10.8268C28.9122 12.4888 29.4316 14.1333 29.376 16.2705C29.1417 17.4737 28.7387 18.5543 28.1729 19.639C27.2771 19.3404 26.9118 18.8591 26.2481 18.1954C24.5868 16.9831 22.6997 16.8732 20.7141 16.9924C20.008 17.0923 20.008 17.0923 19.5111 17.233C19.4317 17.0742 19.3523 16.9154 19.2705 16.7518C19.4194 16.7319 19.5683 16.7121 19.7216 16.6916C20.2669 16.5626 20.2669 16.5626 20.4745 16.0779C20.5536 15.9033 20.6327 15.7286 20.7141 15.5487C20.8374 15.3147 20.8374 15.3147 20.9632 15.076C21.931 13.2177 22.2053 11.4783 21.6615 9.42831C21.5871 9.14544 21.5127 8.86258 21.436 8.57115C21.6766 8.33054 21.6766 8.33054 22.1418 8.31738Z" fill="#72DAD4"/>
<path id="Vector_7" d="M19.7518 5.92453C19.7518 6.08333 19.7518 6.24213 19.7518 6.40574C19.9106 6.40574 20.0694 6.40574 20.2331 6.40574C20.5432 6.75725 20.5432 6.75725 20.8646 7.21779C20.972 7.36852 21.0793 7.51926 21.1898 7.67456C21.4361 8.08999 21.4361 8.08999 21.4361 8.5712C21.2847 8.60655 21.1334 8.64191 20.9774 8.67834C18.6345 9.29231 17.2577 10.3229 15.9567 12.3617C15.647 12.9287 15.4076 13.5009 15.1803 14.1051C14.7918 13.5223 14.4873 12.9673 14.1728 12.3457C13.1023 10.4344 11.8192 9.67577 9.75541 9.01857C9.16518 8.8118 9.16518 8.8118 8.44336 8.33059C9.78182 6.33304 11.2849 4.93397 13.6465 4.31548C16.0474 4.09317 17.7762 4.60742 19.7518 5.92453Z" fill="#FDDD5A"/>
<path id="Vector_8" d="M14.9394 25.4133C15.0982 25.4133 15.257 25.4133 15.4206 25.4133C15.508 25.6529 15.508 25.6529 15.5973 25.8974C16.4856 28.2379 17.5122 29.331 19.7515 30.4661C20.3167 30.6771 20.8446 30.8188 21.4357 30.9473C20.9152 32.6034 19.5389 33.7125 18.0672 34.5564C16.1916 35.2989 14.1287 35.3443 12.2175 34.6767C10.7767 34.0162 9.5192 32.9511 8.87157 31.4877C8.80954 31.3094 8.7475 31.131 8.68359 30.9473C8.87248 30.8918 9.06136 30.8362 9.25597 30.779C11.8003 29.9892 13.0772 29.2816 14.4187 26.9538C14.6702 26.4347 14.8274 25.9768 14.9394 25.4133Z" fill="#72DAD4"/>
<path id="Vector_9" d="M52.3836 8.87205C52.5722 8.9316 52.7608 8.99115 52.9551 9.0525C53.2301 9.6026 53.2248 9.90508 53.223 10.516C53.223 10.7183 53.2229 10.9206 53.2229 11.129C53.2211 11.4568 53.2211 11.4568 53.2192 11.7913C53.2188 12.0149 53.2185 12.2385 53.2181 12.4689C53.2168 13.1848 53.2138 13.9006 53.2107 14.6165C53.2095 15.1012 53.2084 15.5858 53.2074 16.0705C53.2048 17.2601 53.2006 18.4496 53.1957 19.6392C52.8781 19.798 52.5605 19.9568 52.2332 20.1204C50.7199 18.658 49.3106 17.1868 48.0016 15.5359C47.4062 14.8088 46.786 14.1139 46.1514 13.421C45.9377 13.1873 45.724 12.9536 45.5039 12.7128C45.3426 12.5371 45.1813 12.3614 45.0151 12.1804C45.0207 12.5027 45.0207 12.5027 45.0265 12.8315C45.0388 13.6293 45.0479 14.4269 45.0547 15.2247C45.0583 15.5699 45.0633 15.915 45.0695 16.2602C45.0783 16.7565 45.0824 17.2527 45.0856 17.7491C45.0893 18.0477 45.0931 18.3463 45.097 18.654C45.0151 19.3986 45.0151 19.3986 44.6497 19.8626C44.4733 19.9902 44.4733 19.9902 44.2932 20.1204C43.8168 19.9616 43.3404 19.8028 42.8496 19.6392C42.8836 19.4839 42.9177 19.3286 42.9528 19.1686C43.3108 17.4008 43.4039 15.7103 43.391 13.9097C43.3928 13.6469 43.3947 13.384 43.3966 13.1132C43.3935 11.8303 43.3755 10.7296 42.8496 9.53371C43.3308 9.0525 43.3308 9.0525 43.8835 8.94254C44.8087 9.09898 45.2176 9.64533 45.797 10.3307C45.9119 10.4613 46.0268 10.5918 46.1451 10.7263C47.061 11.775 47.9401 12.8544 48.8131 13.9389C49.677 14.9886 50.5925 15.991 51.5114 16.9925C51.5256 16.1604 51.534 15.3284 51.5415 14.4962C51.5455 14.2639 51.5496 14.0316 51.5537 13.7923C51.5642 12.2339 51.3989 10.8073 51.0302 9.29311C51.752 8.81189 51.752 8.81189 52.3836 8.87205Z" fill="#1D1D1D"/>
<path id="Vector_10" d="M72.4448 9.05224C72.6616 9.97099 72.7077 10.8088 72.6919 11.7515C72.689 12.0353 72.686 12.3191 72.683 12.6115C72.6745 13.2062 72.6652 13.8008 72.6548 14.3954C72.6522 14.6792 72.6495 14.963 72.6468 15.2554C72.6428 15.5136 72.6387 15.7718 72.6345 16.0378C72.6876 16.7838 72.826 17.2913 73.1666 17.9547C73.8566 18.4894 74.3367 18.6901 75.2145 18.6464C76.4532 18.4705 76.4532 18.4705 77.4317 17.7526C78.7155 15.5748 78.3826 12.6068 77.8668 10.2459C77.7509 9.76046 77.7509 9.76046 77.4975 9.29285C78.0316 8.96858 78.34 8.80105 78.9712 8.85675C79.4223 9.05224 79.4223 9.05224 79.9035 9.77406C79.9658 10.3296 79.9658 10.3296 79.9675 10.979C79.9684 11.3353 79.9684 11.3353 79.9693 11.6989C79.9675 11.947 79.9656 12.1952 79.9637 12.4508C79.9665 12.8146 79.9665 12.8146 79.9693 13.1858C79.9629 15.6804 79.7165 17.5866 77.9486 19.4585C76.6375 20.2565 75.2198 20.4935 73.7079 20.2254C72.6295 19.9257 72.0052 19.4959 71.2417 18.6765C70.7998 17.6142 70.6931 16.6831 70.6693 15.5383C70.6653 15.3818 70.6612 15.2253 70.657 15.0641C70.6443 14.569 70.6345 14.0739 70.6252 13.5786C70.6112 12.9235 70.5955 12.2685 70.5791 11.6134C70.5734 11.3239 70.5676 11.0345 70.5617 10.7363C70.5507 10.0024 70.5507 10.0024 70.2793 9.29285C71.0855 8.78522 71.5355 8.79967 72.4448 9.05224Z" fill="#1F1F1F"/>
<path id="Vector_11" d="M32.6542 8.88684C33.2256 9.05226 33.2256 9.05226 33.4662 9.29286C33.4785 9.7664 33.4747 10.2404 33.4644 10.7139C33.4603 11.0073 33.4563 11.3008 33.4521 11.6031C33.4416 12.2209 33.4291 12.8387 33.4145 13.4565C33.34 15.9259 33.34 15.9259 34.1881 18.1953C35.0717 18.6562 35.865 18.7794 36.8441 18.5731C37.728 18.2384 38.3184 17.8256 38.7596 16.9923C39.069 15.8561 39.0444 14.717 39.0453 13.5486C39.0497 13.2539 39.0497 13.2539 39.0542 12.9532C39.0573 11.6522 38.8828 10.5425 38.519 9.29286C39.2408 8.81165 39.2408 8.81165 39.8573 8.82669C40.4438 9.05226 40.4438 9.05226 40.7164 9.53911C40.99 10.4785 41.0071 11.3417 41.0002 12.3155C40.9987 12.6031 40.9987 12.6031 40.9972 12.8966C40.9549 15.1272 40.605 17.3387 39.2408 19.1577C38.1942 20.0281 36.9935 20.3932 35.6317 20.3607C34.8958 20.245 34.1833 20.0804 33.4662 19.8795C33.4662 19.7207 33.4662 19.5619 33.4662 19.3983C33.228 19.3983 32.9898 19.3983 32.7444 19.3983C31.4989 17.7724 31.6295 16.0516 31.6166 14.0749C31.6073 13.4276 31.5955 12.7804 31.5837 12.1331C31.581 11.8478 31.5783 11.5624 31.5755 11.2683C31.5451 10.5805 31.4584 9.96146 31.3008 9.29286C32.0226 8.81165 32.0226 8.81165 32.6542 8.88684Z" fill="#1E1E1E"/>
<path id="Vector_12" d="M8.44317 8.57129C10.7584 8.88916 12.4133 9.62839 13.9029 11.4651C14.3577 12.1508 14.6603 12.8756 14.9499 13.6438C15.1732 14.1869 15.1732 14.1869 15.902 14.5864C15.7103 14.6274 15.5186 14.6683 15.3211 14.7105C13.4159 15.1463 11.9571 15.5098 10.8492 17.2331C9.62664 16.8256 9.05883 15.7136 8.43001 14.6306C7.68505 12.9881 7.61825 10.7607 8.20727 9.07036C8.28512 8.90567 8.36296 8.74097 8.44317 8.57129Z" fill="#71D0AB"/>
<path id="Vector_13" d="M16.8199 16.5563C17.6387 17.2347 18.4705 18.0424 18.6066 19.1381C18.6506 20.4841 18.5232 21.5084 17.5868 22.5263C16.6727 23.2281 15.8127 23.5766 14.6544 23.4737C13.3468 23.1521 12.7842 22.8643 11.9777 21.7744C11.4526 20.7608 11.3659 19.795 11.5717 18.6766C12.7126 16.5522 14.4671 15.5629 16.8199 16.5563ZM13.7371 18.1954C13.7371 19.1482 13.7371 20.101 13.7371 21.0827C13.9753 21.2018 13.9753 21.2018 14.2183 21.3233C14.1389 20.2911 14.0595 19.2589 13.9777 18.1954C13.8983 18.1954 13.8189 18.1954 13.7371 18.1954ZM16.1432 18.1954C16.0638 19.2276 15.9844 20.2598 15.9026 21.3233C16.0614 21.2439 16.2202 21.1645 16.3838 21.0827C16.3838 20.1299 16.3838 19.1771 16.3838 18.1954C16.3044 18.1954 16.225 18.1954 16.1432 18.1954Z" fill="#181818"/>
<path id="Vector_14" d="M10.6093 17.2329C10.5696 17.3542 10.5299 17.4755 10.489 17.6004C10.2944 18.5631 10.3593 19.5267 10.3781 20.5051C10.387 21.2504 10.366 21.8127 10.1281 22.5263C8.42609 23.1673 6.54788 22.8386 4.93252 22.1306C3.97864 21.5933 3.20198 20.8892 2.42871 20.1202C2.7027 18.9557 3.36608 18.4556 4.30469 17.8006C6.28453 16.579 8.42773 16.3144 10.6093 17.2329Z" fill="#D9D34F"/>
<path id="Vector_15" d="M25.5269 17.4737C26.6111 18.1209 27.4238 18.7011 27.9329 19.8797C27.6097 20.1883 27.2832 20.4934 26.9555 20.797C26.6833 21.0525 26.6833 21.0525 26.4056 21.313C25.0282 22.374 23.7671 22.6447 22.0832 22.6166C21.9112 22.6194 21.7392 22.6222 21.562 22.6251C21.0634 22.6223 21.0634 22.6223 20.2335 22.5264C20.0747 22.2882 19.9159 22.05 19.7523 21.8046C19.8317 21.5664 19.9111 21.3282 19.9929 21.0828C20.0942 19.714 20.0513 18.5145 19.5117 17.2331C21.3736 16.2401 23.6723 16.6612 25.5269 17.4737Z" fill="#DAD44F"/>
<path id="Vector_16" d="M16.9498 14.9837C18.3788 15.6265 19.2943 16.7028 20.0834 18.0299C20.457 19.6364 20.4206 21.1193 19.5927 22.5694C18.7485 23.7197 17.7377 24.4837 16.384 24.9322C14.7517 25.1672 13.4412 24.9875 12.04 24.1061C11.1017 23.3506 10.5111 22.4717 10.1283 21.3232C9.96095 19.5757 9.9089 18.0981 10.9873 16.6511C12.6293 14.8341 14.5722 14.3242 16.9498 14.9837ZM12.0982 17.1426C11.4262 18.0446 11.1344 18.9999 11.0907 20.1201C11.3253 21.4695 11.9497 22.3851 13.0155 23.248C13.983 23.7826 14.8083 23.8405 15.9028 23.7292C16.9239 23.3927 17.6598 22.9305 18.4292 22.1803C18.9896 20.8494 19.0475 19.6138 18.7901 18.1953C18.2012 17.0934 17.4731 16.4467 16.354 15.9095C14.6251 15.6088 13.419 15.9099 12.0982 17.1426Z" fill="#161816"/>
<path id="Vector_17" d="M66.2794 8.75169C66.4534 8.75293 66.6274 8.75417 66.8066 8.75545C68.0767 8.77451 68.0767 8.77451 68.3546 9.05245C68.3644 9.45334 68.3649 9.8546 68.3546 10.2555C67.5456 10.5078 66.8512 10.4914 66.0087 10.451C64.6524 10.4444 63.6515 10.5931 62.5801 11.4585C61.6139 12.6421 61.4631 13.6347 61.5255 15.1503C61.6705 16.1563 61.9453 16.6718 62.5801 17.4737C63.8046 18.328 65.2879 18.5855 66.7559 18.3421C67.2128 18.2289 67.6642 18.0939 68.114 17.9549C68.2331 18.7886 68.2331 18.7886 68.3546 19.6391C66.9501 20.4872 65.1337 20.3209 63.5838 19.9634C61.941 19.3763 60.7053 18.4155 59.8432 16.8872C59.4215 15.1585 59.2199 13.5694 60.0687 11.9397C61.7658 9.85106 63.5391 8.67095 66.2794 8.75169Z" fill="#1D1D1D"/>
<path id="Vector_18" d="M51.0308 23.7292C51.3484 23.7292 51.666 23.7292 51.9932 23.7292C52.2995 24.2603 52.6052 24.7917 52.9105 25.3233C53.0392 25.5461 53.0392 25.5461 53.1704 25.7735C54.6399 28.3349 54.6399 28.3349 54.6399 29.0226C54.7987 29.0226 54.9575 29.0226 55.1211 29.0226C55.1816 28.8232 55.242 28.6237 55.3044 28.4182C55.6419 27.4673 56.0562 26.5938 56.5196 25.6992C56.5992 25.5356 56.6787 25.372 56.7607 25.2034C57.3741 24.0224 57.3741 24.0224 58.1916 23.7415C58.4582 23.7354 58.4582 23.7354 58.7302 23.7292C59.0919 24.4527 58.974 25.1933 58.9557 25.9849C58.9327 27.6838 59.0986 29.2812 59.452 30.9474C59.055 31.0268 58.658 31.1062 58.249 31.188C57.7306 30.1198 57.6673 29.1491 57.6174 27.985C57.6081 27.8068 57.5988 27.6286 57.5892 27.445C57.5667 27.0085 57.5466 26.5719 57.5271 26.1353C57.3994 26.402 57.2716 26.6688 57.1399 26.9436C56.9683 27.2958 56.7967 27.6479 56.6249 28C56.5411 28.1756 56.4574 28.3511 56.3711 28.532C55.9003 29.491 55.4661 30.2403 54.6399 30.9474C53.7254 29.5543 52.9566 28.1174 52.2338 26.6165C51.8829 27.3184 51.918 27.9863 51.8729 28.7669C51.7791 30.3867 51.7791 30.3867 51.512 31.188C51.0356 31.1086 50.5592 31.0292 50.0684 30.9474C50.1205 30.7663 50.1726 30.5852 50.2263 30.3985C50.7361 28.4535 50.8493 26.7246 50.7921 24.7255C50.7914 24.4761 50.7908 24.2268 50.7902 23.9699C50.8696 23.8905 50.949 23.8111 51.0308 23.7292Z" fill="#2B2B2B"/>
<path id="Vector_19" d="M86.8809 8.81159C87.0397 8.97039 87.1985 9.12919 87.3621 9.2928C87.3019 9.90936 87.3019 9.90936 87.1215 10.4958C86.4165 10.8483 85.7554 10.7416 84.9786 10.7214C84.4603 10.7015 84.4603 10.7015 83.9936 10.977C83.8523 11.7543 83.7866 12.1547 83.9936 12.9019C84.5532 13.5151 85.1475 14.0116 85.8028 14.5203C86.4741 15.1356 86.7823 15.6705 87.1215 16.511C87.1215 17.4896 86.9113 17.9102 86.3545 18.7216C85.383 19.6931 84.5869 20.1554 83.2116 20.1802C82.3094 20.1201 82.3094 20.1201 81.8281 19.8795C81.8281 19.3237 81.8281 18.7679 81.8281 18.1952C82.1064 18.1994 82.1064 18.1994 82.3902 18.2037C82.7521 18.2069 82.7521 18.2069 83.1214 18.2103C83.4815 18.2145 83.4815 18.2145 83.8489 18.2187C84.471 18.2386 84.471 18.2386 84.956 17.9546C85.1832 17.5285 85.1832 17.5285 85.1966 16.9922C84.7214 16.0618 84.1318 15.4064 83.377 14.6914C82.7052 14.0549 82.1627 13.5337 81.8281 12.6613C81.7981 11.3412 82.4515 10.6194 83.3141 9.70258C84.3971 8.69148 85.4679 8.71893 86.8809 8.81159Z" fill="#232323"/>
<path id="Vector_20" d="M38.5192 24.4511C39.2676 25.2625 39.5436 26.1113 39.617 27.203C39.5559 28.4368 39.0717 29.2983 38.2786 30.2256C37.1827 31.197 36.1096 31.492 34.6695 31.4286C33.4769 31.172 32.5363 30.7305 31.7823 29.7444C31.1778 28.6867 31.1382 27.5627 31.301 26.3759C31.7411 25.0983 32.5307 24.3665 33.7071 23.7293C35.3594 23.0683 37.1278 23.4106 38.5192 24.4511ZM32.7447 25.8947C32.4477 27.1568 32.4869 28.0626 32.9853 29.2632C33.5276 29.9241 33.916 30.1781 34.7598 30.3252C35.8324 30.3859 36.4162 30.3481 37.3162 29.7294C38.0774 28.6114 38.3566 27.7982 38.1282 26.4511C37.7755 25.6014 37.599 25.201 36.835 24.6917C35.0512 24.1684 34.0546 24.5847 32.7447 25.8947Z" fill="#2D2D2D"/>
<path id="Vector_21" d="M76.2939 23.7293C76.9056 23.7096 77.5167 23.6954 78.1286 23.6841C78.3001 23.6781 78.4716 23.6721 78.6483 23.6658C80.1676 23.6449 81.1162 24.0414 82.279 25.0526C82.9597 25.9338 82.9461 26.8315 82.889 27.9117C82.6871 29.1999 82.0025 29.9144 81.0008 30.6768C79.6985 31.4463 78.2398 31.3386 76.7752 31.1881C76.3213 30.7342 76.4762 29.9509 76.4584 29.345C76.4534 29.1851 76.4484 29.0252 76.4433 28.8605C76.4275 28.3481 76.4133 27.8357 76.3992 27.3233C76.3888 26.9767 76.3783 26.63 76.3677 26.2834C76.3419 25.432 76.3176 24.5807 76.2939 23.7293ZM77.7376 24.6917C77.7376 26.5179 77.7376 28.3441 77.7376 30.2256C79.3739 30.2256 80.1093 30.1592 81.3166 29.1128C81.7459 28.2065 81.7723 27.3571 81.5873 26.3759C81.1221 25.5168 80.6047 25.0058 79.6624 24.6917C79.0272 24.6917 78.392 24.6917 77.7376 24.6917Z" fill="#282828"/>
<path id="Vector_22" d="M57.768 9.05233C57.8474 12.5459 57.9268 16.0395 58.0086 19.639C57.5322 19.7978 57.0558 19.9566 56.565 20.1202C56.2079 19.8713 56.2079 19.8713 55.8431 19.3984C55.783 18.7805 55.7648 18.2225 55.7811 17.6061C55.7827 17.4301 55.7843 17.2541 55.7859 17.0728C55.7916 16.5095 55.8021 15.9465 55.8131 15.3833C55.8216 14.8244 55.829 14.2656 55.835 13.7067C55.8391 13.3593 55.8446 13.0119 55.8519 12.6646C55.8686 11.5143 55.7652 10.4285 55.6025 9.29294C56.3244 8.81172 56.3244 8.81172 57.768 9.05233Z" fill="#272727"/>
<path id="Vector_23" d="M64.5044 23.9699C65.2027 24.7193 65.4668 25.1212 65.4668 26.1504C65.1106 27.1965 64.6591 27.8473 63.6773 28.376C63.0607 28.5414 63.0607 28.5414 61.8577 28.5414C61.9371 29.3354 62.0165 30.1294 62.0983 30.9474C61.6998 31.0394 61.2984 31.1192 60.8953 31.1881C60.4414 30.7342 60.5963 29.9509 60.5785 29.345C60.5735 29.1851 60.5685 29.0252 60.5634 28.8605C60.5476 28.3481 60.5335 27.8357 60.5193 27.3233C60.5089 26.9767 60.4984 26.63 60.4878 26.2834C60.462 25.432 60.4377 24.5807 60.4141 23.7293C60.7531 23.6848 61.0925 23.6422 61.4319 23.6005C61.6209 23.5766 61.8098 23.5527 62.0045 23.5281C62.9675 23.4621 63.5981 23.6166 64.5044 23.9699ZM61.8577 24.6917C61.8577 25.6445 61.8577 26.5973 61.8577 27.579C63.0644 27.4997 63.0644 27.4997 64.0232 26.8571C64.1034 26.015 64.1034 26.015 64.0232 25.1729C63.3801 24.5299 62.7038 24.2686 61.8577 24.6917Z" fill="#313131"/>
<path id="Vector_24" d="M71.4826 23.7292C71.929 23.7885 71.929 23.7885 72.445 23.9699C72.743 24.3843 72.743 24.3843 73.0014 24.9473C73.1007 25.1616 73.1999 25.376 73.3022 25.5968C73.4163 25.8539 73.5305 26.111 73.6481 26.3759C73.7983 26.7034 73.9487 27.0307 74.0992 27.3581C74.255 27.7022 74.4104 28.0465 74.5654 28.391C74.6788 28.6399 74.6788 28.6399 74.7945 28.8939C75.163 29.7299 75.3323 30.2589 75.3323 31.188C74.9353 31.1086 74.5383 31.0292 74.1293 30.9474C73.8911 30.2328 73.6529 29.5182 73.4075 28.782C72.5341 28.8614 71.6607 28.9408 70.7608 29.0226C70.5226 29.7372 70.2844 30.4518 70.039 31.188C69.642 31.1086 69.245 31.0292 68.8359 30.9474C68.9789 30.1015 69.2017 29.3925 69.5653 28.6166C69.6611 28.4088 69.757 28.2009 69.8557 27.9868C70.0581 27.5545 70.2605 27.1222 70.4628 26.6898C70.5587 26.482 70.6545 26.2742 70.7533 26.0601C70.8412 25.8725 70.9291 25.6848 71.0197 25.4915C71.2521 24.9069 71.3779 24.3484 71.4826 23.7292ZM71.9638 25.6541C71.3364 26.8198 71.3364 26.8198 71.4826 28.0602C71.959 28.0602 72.4354 28.0602 72.9262 28.0602C72.688 27.2662 72.4498 26.4722 72.2044 25.6541C72.125 25.6541 72.0456 25.6541 71.9638 25.6541Z" fill="#2C2C2C"/>
<path id="Vector_25" d="M44.2941 23.4888C45.3866 24.4849 46.1512 25.6119 46.9408 26.8573C47.1772 26.4718 47.4126 26.0857 47.6475 25.6993C47.7787 25.4844 47.9099 25.2695 48.0451 25.048C48.4109 24.4495 48.4109 24.4495 48.625 23.7294C48.8632 23.65 49.1014 23.5706 49.3468 23.4888C49.5056 23.727 49.6644 23.9652 49.828 24.2106C49.5628 24.632 49.2971 25.0529 49.031 25.4738C48.8831 25.7082 48.7351 25.9427 48.5827 26.1843C48.1438 26.8573 48.1438 26.8573 47.7312 27.3742C47.1206 28.2538 47.3956 29.3228 47.5423 30.331C47.6018 30.6362 47.6018 30.6362 47.6626 30.9476C47.1862 31.027 46.7098 31.1064 46.2189 31.1882C46.2239 30.9785 46.2289 30.7688 46.234 30.5528C46.1933 28.2016 45.5845 26.7202 44.0535 24.9324C43.8947 24.853 43.7359 24.7736 43.5723 24.6918C43.6625 24.2256 43.6625 24.2256 43.8129 23.7294C43.9717 23.65 44.1305 23.5706 44.2941 23.4888Z" fill="#242424"/>
<path id="Vector_26" d="M87.3624 23.7292C87.283 24.1262 87.2036 24.5232 87.1218 24.9323C86.8935 24.9273 86.6652 24.9224 86.43 24.9172C85.7006 24.878 85.7006 24.878 85.1969 25.1729C85.2609 26.1117 85.3089 26.501 86.024 27.1428C86.2275 27.2868 86.4309 27.4307 86.6406 27.5789C87.2445 28.4848 87.2697 28.9126 87.1218 29.985C86.491 30.7261 86.1213 31.1261 85.1537 31.2613C84.6255 31.2632 84.6255 31.2632 83.7533 31.188C83.6739 30.9498 83.5945 30.7116 83.5127 30.4662C83.5921 30.3074 83.6715 30.1486 83.7533 29.985C83.9766 29.9949 84.1999 30.0049 84.43 30.0151C85.235 30.0503 85.235 30.0503 85.9188 29.5038C85.6634 28.5675 85.2583 28.1135 84.5503 27.4887C83.8729 26.8368 83.7628 26.7264 83.6781 25.7443C84.092 24.6799 84.4986 24.3677 85.4375 23.7292C86.2291 23.4654 86.5715 23.5369 87.3624 23.7292Z" fill="#272727"/>
<path id="Vector_27" d="M40.6843 23.7292C41.0813 23.7292 41.4783 23.7292 41.8873 23.7292C41.8873 25.873 41.8873 28.0168 41.8873 30.2256C42.7607 30.1462 43.6341 30.0668 44.534 29.985C44.6134 30.3026 44.6928 30.6202 44.7746 30.9474C44.534 31.188 44.534 31.188 43.6684 31.2115C43.3103 31.2099 42.9522 31.207 42.5941 31.2031C42.4116 31.202 42.2291 31.2009 42.041 31.1998C41.5888 31.1969 41.1365 31.1926 40.6843 31.188C40.6441 30.1645 40.6054 29.141 40.5683 28.1173C40.5554 27.7688 40.5421 27.4204 40.5284 27.0719C40.5087 26.5721 40.4906 26.0722 40.4728 25.5723C40.4615 25.2712 40.4502 24.97 40.4385 24.6598C40.4437 23.9699 40.4437 23.9699 40.6843 23.7292Z" fill="#2E2E2E"/>
<path id="Vector_28" d="M67.0309 23.6992C67.6324 23.7293 67.6324 23.7293 67.873 23.9699C67.8941 24.4861 67.8987 25.0031 67.8965 25.5197C67.8957 25.8338 67.8949 26.1478 67.8941 26.4714C67.8921 26.8055 67.8901 27.1396 67.888 27.4737C67.8868 27.8088 67.8857 28.1439 67.8847 28.4789C67.8819 29.3018 67.8779 30.1246 67.873 30.9475C67.4745 31.0394 67.0731 31.1193 66.6699 31.1881C66.0343 30.5524 66.3227 28.8282 66.2952 27.9614C66.279 27.4607 66.2603 26.9602 66.2414 26.4596C66.2308 26.1467 66.2203 25.8337 66.2094 25.5113C66.1996 25.2218 66.1898 24.9322 66.1797 24.6339C66.1918 23.7412 66.1918 23.7412 67.0309 23.6992Z" fill="#3A3A3A"/>
<path id="Vector_29" d="M51.2714 26.6167C51.3508 26.6167 51.4302 26.6167 51.512 26.6167C51.512 28.1253 51.512 29.6339 51.512 31.1882C51.0356 31.1088 50.5592 31.0294 50.0684 30.9476C50.2227 30.2706 50.3782 29.594 50.5345 28.9175C50.5784 28.7244 50.6223 28.5314 50.6675 28.3324C51.0035 26.8846 51.0035 26.8846 51.2714 26.6167Z" fill="#232323"/>
</g>
<defs>
<clipPath id="clip0_2881_1545">
<rect width="96.2424" height="39.7" fill="white" transform="translate(0.984375 0.149902)"/>
</clipPath>
</defs>
</svg>
