<svg width="336" height="494" viewBox="0 0 336 494" fill="none" xmlns="http://www.w3.org/2000/svg">
<path d="M136.759 3.43825C136.759 3.43825 70.212 14.2038 50.1504 73.4102C50.1504 73.4102 46.2364 82.2176 47.7036 93.4718C49.1719 104.726 18.8345 124.788 10.5158 129.191C2.19812 133.595 -3.67387 137.51 2.68682 147.296C9.04861 157.083 14.1859 164.177 9.41484 171.028C4.64377 177.878 15.1644 185.584 16.1429 189.989C17.1214 194.392 6.7232 191.579 4.15509 196.228C1.58589 200.877 6.9681 202.956 8.31392 209.562C9.65975 216.167 2.07568 224.73 1.46344 228.032C0.852302 231.335 -0.371077 247.483 17.3663 249.196C35.1036 250.909 67.2755 250.542 74.6157 259.349C81.9549 268.156 96.6343 317.7 107.277 333.479C117.919 349.26 123.424 359.168 122.323 378.986C121.223 398.802 113.883 435.133 105.442 449.079C97.0017 463.025 83.7905 493.851 83.7905 493.851H342.269C342.269 493.851 320.25 417.396 290.401 379.719C260.553 342.043 243.428 318.925 236.088 301.919C227.89 282.926 196.454 247.383 241.959 207.972C270.38 183.358 286.495 137.378 275.723 97.8767C258.107 33.2869 206.241 -10.2616 136.759 3.43825Z" fill="#1B3139"/>
<path d="M262.653 149.686C258.963 161.799 252.189 171.204 242.192 175.984C220.719 186.25 214.225 158.061 186.185 156.209C158.143 154.357 123.635 150.941 111.316 141.381C100.538 133.017 93.8477 107.51 118.23 97.9228C128.37 93.935 138.611 96.5207 148.218 99.6283" stroke="white" stroke-width="3.30941" stroke-miterlimit="10" stroke-linecap="round" stroke-linejoin="round"/>
<path d="M105.235 106.981C105.235 106.981 76.2248 100.937 73.0423 80.2166C73.0423 80.2166 65.7417 50.2003 105.007 25.3643C152.431 -4.63001 212.236 27.7669 225.165 36.9174C232.357 42.0073 242.664 52.0657 251.105 67.0705" stroke="white" stroke-width="3.30941" stroke-miterlimit="10" stroke-linecap="round" stroke-linejoin="round"/>
<path d="M144.748 152.482C144.748 152.482 142.592 168.345 163.999 171.471" stroke="white" stroke-width="3.30941" stroke-miterlimit="10" stroke-linecap="round" stroke-linejoin="round"/>
<path d="M152.45 153.427C152.45 153.427 151.408 167.492 164.329 170.539" stroke="white" stroke-width="3.30941" stroke-miterlimit="10" stroke-linecap="round" stroke-linejoin="round"/>
<path d="M160.939 154.761L164.732 173.363C164.732 173.363 164.909 179.141 178.916 181.754C192.924 184.366 200.639 188.944 207.429 187.556C214.217 186.17 222.416 182.393 223.604 175.416" stroke="white" stroke-width="3.30941" stroke-miterlimit="10" stroke-linecap="round" stroke-linejoin="round"/>
<path d="M153.495 168.515C153.495 168.515 162.552 182.51 164.972 193.162C167.392 203.815 169.077 204.994 174.751 202.797C180.425 200.602 178.17 195.097 177.114 191.479C176.059 187.862 175.708 185.57 177.178 181.398" stroke="white" stroke-width="3.30941" stroke-miterlimit="10" stroke-linecap="round" stroke-linejoin="round"/>
<path d="M175.219 155.455C175.219 155.455 171.129 162.723 162.578 162.8" stroke="white" stroke-width="3.30941" stroke-miterlimit="10" stroke-linecap="round" stroke-linejoin="round"/>
<path d="M183.306 156.018C183.306 156.018 176.55 168.067 163.18 165.747" stroke="white" stroke-width="3.30941" stroke-miterlimit="10" stroke-linecap="round" stroke-linejoin="round"/>
<path d="M192.341 157.086C192.341 157.086 184.79 172.893 163.889 169.232" stroke="white" stroke-width="3.30941" stroke-miterlimit="10" stroke-linecap="round" stroke-linejoin="round"/>
<path d="M220.029 181.703C220.029 181.703 217.851 170.361 189.94 160.654" stroke="white" stroke-width="3.30941" stroke-miterlimit="10" stroke-linecap="round" stroke-linejoin="round"/>
<path d="M186.019 164.481C186.019 164.481 211.66 172.709 215.119 184.992" stroke="white" stroke-width="3.30941" stroke-miterlimit="10" stroke-linecap="round" stroke-linejoin="round"/>
<path d="M200.792 171.166C200.792 171.166 202.161 181.026 211.425 186.491" stroke="white" stroke-width="3.30941" stroke-miterlimit="10" stroke-linecap="round" stroke-linejoin="round"/>
<path d="M190.402 166.086C190.402 166.086 194.17 180.865 205.84 187.772" stroke="white" stroke-width="3.30941" stroke-miterlimit="10" stroke-linecap="round" stroke-linejoin="round"/>
<path d="M180.752 168.376C180.752 168.376 192.089 184.293 202.124 187.61" stroke="white" stroke-width="3.30941" stroke-miterlimit="10" stroke-linecap="round" stroke-linejoin="round"/>
<path d="M177.27 169.567C177.27 169.567 179.241 179.114 186.374 183.433" stroke="white" stroke-width="3.30941" stroke-miterlimit="10" stroke-linecap="round" stroke-linejoin="round"/>
<path d="M173.2 170.191C173.2 170.191 173.151 177.765 178.308 181.248" stroke="white" stroke-width="3.30941" stroke-miterlimit="10" stroke-linecap="round" stroke-linejoin="round"/>
<path d="M200.028 93.2931H154.245C152.254 93.2931 150.626 91.6638 150.626 89.6737V46.4021C150.626 44.411 152.255 42.7827 154.245 42.7827H200.028C202.019 42.7827 203.647 44.4121 203.647 46.4021V89.6737C203.647 91.6638 202.019 93.2931 200.028 93.2931Z" fill="white"/>
<path d="M164.18 49.2722H163.507C162.932 49.2722 162.461 48.8012 162.461 48.2265V34.3192C162.461 33.7445 162.932 33.2734 163.507 33.2734H164.18C164.754 33.2734 165.225 33.7445 165.225 34.3192V48.2265C165.225 48.8012 164.754 49.2722 164.18 49.2722Z" fill="white"/>
<path d="M170.697 49.2722H170.025C169.451 49.2722 168.979 48.8012 168.979 48.2265V34.3192C168.979 33.7445 169.451 33.2734 170.025 33.2734H170.697C171.273 33.2734 171.744 33.7445 171.744 34.3192V48.2265C171.744 48.8012 171.274 49.2722 170.697 49.2722Z" fill="white"/>
<path d="M177.216 49.2722H176.544C175.968 49.2722 175.497 48.8012 175.497 48.2265V34.3192C175.497 33.7445 175.968 33.2734 176.544 33.2734H177.216C177.792 33.2734 178.262 33.7445 178.262 34.3192V48.2265C178.263 48.8012 177.792 49.2722 177.216 49.2722Z" fill="white"/>
<path d="M183.734 49.2722H183.061C182.487 49.2722 182.016 48.8012 182.016 48.2265V34.3192C182.016 33.7445 182.487 33.2734 183.061 33.2734H183.734C184.31 33.2734 184.78 33.7445 184.78 34.3192V48.2265C184.781 48.8012 184.31 49.2722 183.734 49.2722Z" fill="white"/>
<path d="M190.254 49.2722H189.581C189.006 49.2722 188.535 48.8012 188.535 48.2265V34.3192C188.535 33.7445 189.006 33.2734 189.581 33.2734H190.254C190.829 33.2734 191.3 33.7445 191.3 34.3192V48.2265C191.3 48.8012 190.829 49.2722 190.254 49.2722Z" fill="white"/>
<path d="M164.18 102.9H163.507C162.932 102.9 162.461 102.429 162.461 101.855V87.9473C162.461 87.3725 162.932 86.9004 163.507 86.9004H164.18C164.754 86.9004 165.225 87.3714 165.225 87.9473V101.855C165.225 102.429 164.754 102.9 164.18 102.9Z" fill="white"/>
<path d="M170.697 102.9H170.025C169.451 102.9 168.979 102.429 168.979 101.855V87.9473C168.979 87.3725 169.451 86.9004 170.025 86.9004H170.697C171.273 86.9004 171.744 87.3714 171.744 87.9473V101.855C171.744 102.429 171.274 102.9 170.697 102.9Z" fill="white"/>
<path d="M177.216 102.9H176.544C175.968 102.9 175.497 102.429 175.497 101.855V87.9473C175.497 87.3725 175.968 86.9004 176.544 86.9004H177.216C177.792 86.9004 178.262 87.3714 178.262 87.9473V101.855C178.263 102.429 177.792 102.9 177.216 102.9Z" fill="white"/>
<path d="M183.734 102.9H183.061C182.487 102.9 182.016 102.429 182.016 101.855V87.9473C182.016 87.3725 182.487 86.9004 183.061 86.9004H183.734C184.31 86.9004 184.78 87.3714 184.78 87.9473V101.855C184.781 102.429 184.31 102.9 183.734 102.9Z" fill="white"/>
<path d="M190.254 102.9H189.581C189.006 102.9 188.535 102.429 188.535 101.855V87.9473C188.535 87.3725 189.006 86.9004 189.581 86.9004H190.254C190.829 86.9004 191.3 87.3714 191.3 87.9473V101.855C191.3 102.429 190.829 102.9 190.254 102.9Z" fill="white"/>
<path d="M158.065 80.7866V81.4595C158.065 82.0343 157.594 82.5053 157.019 82.5053H143.113C142.539 82.5053 142.066 82.0343 142.066 81.4595V80.7866C142.066 80.2108 142.537 79.7397 143.113 79.7397H157.019C157.594 79.7397 158.065 80.2108 158.065 80.7866Z" fill="white"/>
<path d="M158.065 74.2679V74.9409C158.065 75.5167 157.594 75.9877 157.019 75.9877H143.113C142.539 75.9877 142.066 75.5167 142.066 74.9409V74.2679C142.066 73.6932 142.537 73.2222 143.113 73.2222H157.019C157.594 73.2222 158.065 73.6932 158.065 74.2679Z" fill="white"/>
<path d="M158.065 67.7495V68.4224C158.065 68.9972 157.594 69.4682 157.019 69.4682H143.113C142.539 69.4682 142.066 68.9972 142.066 68.4224V67.7495C142.066 67.1737 142.537 66.7026 143.113 66.7026H157.019C157.594 66.7037 158.065 67.1737 158.065 67.7495Z" fill="white"/>
<path d="M158.065 61.2313V61.9042C158.065 62.4801 157.594 62.9511 157.019 62.9511H143.113C142.539 62.9511 142.066 62.4801 142.066 61.9042V61.2313C142.066 60.6555 142.537 60.1855 143.113 60.1855H157.019C157.594 60.1855 158.065 60.6566 158.065 61.2313Z" fill="white"/>
<path d="M158.065 54.7139V55.3868C158.065 55.9615 157.594 56.4326 157.019 56.4326H143.113C142.539 56.4326 142.066 55.9615 142.066 55.3868V54.7139C142.066 54.1391 142.537 53.667 143.113 53.667H157.019C157.594 53.667 158.065 54.138 158.065 54.7139Z" fill="white"/>
<path d="M211.693 80.7866V81.4595C211.693 82.0343 211.222 82.5053 210.647 82.5053H196.741C196.165 82.5053 195.694 82.0343 195.694 81.4595V80.7866C195.694 80.2108 196.166 79.7397 196.741 79.7397H210.648C211.222 79.7397 211.693 80.2108 211.693 80.7866Z" fill="white"/>
<path d="M211.693 74.2679V74.9409C211.693 75.5167 211.222 75.9877 210.647 75.9877H196.741C196.165 75.9877 195.694 75.5167 195.694 74.9409V74.2679C195.694 73.6932 196.166 73.2222 196.741 73.2222H210.648C211.222 73.2222 211.693 73.6932 211.693 74.2679Z" fill="white"/>
<path d="M211.693 67.7495V68.4224C211.693 68.9972 211.222 69.4682 210.647 69.4682H196.741C196.165 69.4682 195.694 68.9972 195.694 68.4224V67.7495C195.694 67.1737 196.166 66.7026 196.741 66.7026H210.648C211.222 66.7037 211.693 67.1737 211.693 67.7495Z" fill="white"/>
<path d="M211.693 61.2313V61.9042C211.693 62.4801 211.222 62.9511 210.647 62.9511H196.741C196.165 62.9511 195.694 62.4801 195.694 61.9042V61.2313C195.694 60.6555 196.166 60.1855 196.741 60.1855H210.648C211.222 60.1855 211.693 60.6566 211.693 61.2313Z" fill="white"/>
<path d="M211.693 54.7139V55.3868C211.693 55.9615 211.222 56.4326 210.647 56.4326H196.741C196.165 56.4326 195.694 55.9615 195.694 55.3868V54.7139C195.694 54.1391 196.166 53.667 196.741 53.667H210.648C211.222 53.667 211.693 54.138 211.693 54.7139Z" fill="white"/>
<path d="M163.234 83.6372H160.131L169.106 59.1946H172.161L181.136 83.6372H178.033L170.729 63.0615H170.538L163.234 83.6372ZM164.38 74.0893H176.887V76.715H164.38V74.0893ZM187.903 59.1946V83.6372H184.943V59.1946H187.903Z" fill="black"/>
<path d="M154.344 55.0495H115.028C113.653 55.0495 112.334 54.5035 111.363 53.5316L102.06 44.2288C101.088 43.257 99.7686 42.7109 98.3941 42.7109H84.7461" stroke="white" stroke-width="3.30941" stroke-miterlimit="10" stroke-linecap="round"/>
<path d="M154.344 81.1235H116.178C115.303 81.1235 114.462 81.471 113.843 82.0899L102.278 93.6552C101.659 94.274 100.82 94.6215 99.9438 94.6215H80.8584" stroke="white" stroke-width="3.30941" stroke-miterlimit="10" stroke-linecap="round"/>
<path d="M153.283 68.0382H114.013C113.012 68.0382 112.041 67.6951 111.262 67.0663L102.087 59.6631C101.309 59.0343 100.338 58.6924 99.3361 58.6924H76.2012" stroke="white" stroke-width="3.30941" stroke-miterlimit="10" stroke-linecap="round"/>
</svg>
