<svg width="402" height="168" viewBox="0 0 402 168" fill="none" xmlns="http://www.w3.org/2000/svg">
<path d="M225.266 89.287H189.745C186.906 89.287 184.274 87.8 182.808 85.368L162.432 51.548C160.967 49.115 158.334 47.628 155.495 47.628H77.0892C74.1642 47.628 71.4662 46.051 70.0322 43.502L48.0312 4.41699" stroke="#1C2E64" stroke-width="3" stroke-miterlimit="10" stroke-linecap="round"/>
<path d="M227.766 165.764H143.714C140.875 165.764 138.243 164.277 136.778 161.845L116.402 128.024C114.937 125.592 112.304 124.105 109.465 124.105H31.058C28.133 124.105 25.435 122.528 24 119.979L2 80.8931" stroke="#1C2E64" stroke-width="3" stroke-miterlimit="10" stroke-linecap="round"/>
<path d="M234.266 125.009H166.962C164.122 125.009 161.49 123.523 160.025 121.09L139.649 87.2696C138.184 84.8366 135.552 83.3496 132.713 83.3496H118.791" stroke="#1C2E64" stroke-width="3" stroke-miterlimit="10" stroke-linecap="round"/>
<path d="M400.141 142.047H155.885C153.046 142.047 150.414 140.56 148.948 138.128L128.572 104.307C127.107 101.875 124.475 100.388 121.635 100.388H107.712" stroke="#1C2E64" stroke-width="3" stroke-miterlimit="10" stroke-linecap="round"/>
<path d="M152.602 70.36C151.137 67.927 148.504 66.44 145.665 66.44H67.2591C64.3341 66.44 61.6361 64.863 60.2021 62.314L38.2021 23.229" stroke="#1C2E64" stroke-width="3" stroke-miterlimit="10"/>
<path d="M374.016 108.099H179.915C177.076 108.099 174.444 106.612 172.978 104.18" stroke="#1C2E64" stroke-width="3" stroke-miterlimit="10" stroke-linecap="round"/>
<path d="M175.917 102.341C175.917 104.504 174.164 106.258 172 106.258C169.837 106.258 168.083 104.504 168.083 102.341C168.083 100.179 169.836 98.4248 172 98.4248C174.164 98.4248 175.917 100.178 175.917 102.341Z" fill="white" stroke="#1C2E64"/>
<path d="M156.519 70.8086C156.519 72.9722 154.765 74.7246 152.602 74.7246C150.439 74.7246 148.685 72.9713 148.685 70.8086C148.685 68.6457 150.439 66.8916 152.602 66.8916C154.764 66.8916 156.519 68.6448 156.519 70.8086Z" fill="white" stroke="#1C2E64"/>
<path d="M35.4313 20.4589C36.717 19.1731 38.9277 18.7459 41.0796 20.3498C42.6827 22.5017 42.2554 24.712 40.9698 25.9974C39.6843 27.2829 37.474 27.7099 35.3226 26.1068C33.7186 23.9554 34.1456 21.7447 35.4313 20.4589Z" fill="white" stroke="#1C2E64"/>
<path d="M45.2614 1.64714C46.5471 0.361388 48.7577 -0.0656641 50.9096 1.53884C52.5132 3.69074 52.086 5.90096 50.8003 7.1864C49.5146 8.47188 47.3041 8.89886 45.1527 7.29578C43.5487 5.14387 43.9757 2.93293 45.2614 1.64714Z" fill="white" stroke="#1C2E64"/>
<path d="M122.706 83.3496C122.706 85.5125 120.952 87.2666 118.789 87.2666C116.626 87.2666 114.872 85.5125 114.872 83.3496C114.872 81.1878 116.626 79.4336 118.789 79.4336C120.953 79.4336 122.706 81.1868 122.706 83.3496Z" fill="white" stroke="#1C2E64"/>
<path d="M111.629 100.778C111.629 102.941 109.875 104.695 107.712 104.695C105.549 104.695 103.796 102.941 103.796 100.778C103.796 98.6159 105.549 96.8618 107.712 96.8618C109.876 96.8618 111.629 98.6159 111.629 100.778Z" fill="white" stroke="#1C2E64"/>
</svg>
