<svg width="387" height="168" viewBox="0 0 387 168" fill="none" xmlns="http://www.w3.org/2000/svg">
<path d="M227.417 89.2875H189.745C186.906 89.2875 184.273 87.8005 182.808 85.3685L162.432 51.5475C160.967 49.1155 158.334 47.6285 155.495 47.6285H77.0882C74.1632 47.6285 71.4653 46.0515 70.0312 43.5025L48.0312 4.41748" stroke="#1C2E64" stroke-width="3" stroke-miterlimit="10"/>
<path d="M230.458 163.337H143.714C140.875 163.337 138.242 161.85 136.777 159.417L116.401 125.597C114.936 123.165 112.304 121.678 109.464 121.678H31.057C28.132 121.678 25.435 120.101 24 117.552L2 78.4673" stroke="#1C2E64" stroke-width="3" stroke-miterlimit="10"/>
<path d="M236.826 126.969H166.961C164.122 126.969 161.49 125.482 160.025 123.05L139.648 89.2295C138.183 86.7975 135.55 85.3105 132.711 85.3105H118.789" stroke="#1C2E64" stroke-width="3" stroke-miterlimit="10"/>
<path d="M289.394 145.378H155.884C153.045 145.378 150.412 143.891 148.947 141.459L128.57 107.638C127.105 105.206 124.473 103.719 121.634 103.719H107.712" stroke="#1C2E64" stroke-width="3" stroke-miterlimit="10"/>
<path d="M152.601 70.3585C151.136 67.9265 148.504 66.4395 145.664 66.4395H67.2582C64.3332 66.4395 61.6352 64.8625 60.2012 62.3135L38.2012 23.2285" stroke="#1C2E64" stroke-width="3" stroke-miterlimit="10"/>
<path d="M381.808 108.099H179.915C177.075 108.099 174.443 106.612 172.978 104.18" stroke="#1C2E64" stroke-width="3" stroke-miterlimit="10"/>
<path d="M175.916 102.341C175.916 104.504 174.163 106.258 171.999 106.258C169.836 106.258 168.082 104.504 168.082 102.341C168.082 100.177 169.835 98.4243 171.999 98.4243C174.163 98.4243 175.916 100.177 175.916 102.341Z" fill="white" stroke="#1C2E64"/>
<path d="M236.826 130.884C238.989 130.884 240.743 129.131 240.743 126.968C240.743 124.806 238.989 123.052 236.826 123.051V130.884ZM236.826 130.884C234.663 130.884 232.91 129.131 232.91 126.968M236.826 130.884L232.91 126.968M232.91 126.968C232.91 124.805 234.664 123.051 236.826 123.051L232.91 126.968Z" fill="white" stroke="#1C2E64"/>
<path d="M231.334 89.2876C231.334 91.4505 229.58 93.2046 227.417 93.2046C225.254 93.2046 223.5 91.4514 223.5 89.2876C223.5 87.1247 225.254 85.3706 227.417 85.3706C229.58 85.3706 231.334 87.1247 231.334 89.2876Z" fill="white" stroke="#1C2E64"/>
<path d="M156.518 70.8086C156.518 72.9715 154.764 74.7246 152.602 74.7246C150.439 74.7246 148.685 72.9713 148.685 70.8086C148.685 68.6457 150.439 66.8916 152.602 66.8916C154.764 66.8916 156.518 68.6456 156.518 70.8086Z" fill="white" stroke="#1C2E64"/>
<path d="M289.394 149.295C291.556 149.295 293.311 147.541 293.311 145.378C293.311 143.216 291.557 141.462 289.394 141.461V149.295ZM289.394 149.295C287.231 149.295 285.477 147.542 285.477 145.378M289.394 149.295L285.477 145.378M285.477 145.378C285.477 143.216 287.231 141.462 289.393 141.461L285.477 145.378Z" fill="white" stroke="#1C2E64"/>
<path d="M385.725 108.099C385.725 110.262 383.971 112.016 381.808 112.016C379.644 112.016 377.891 110.262 377.891 108.099C377.891 105.935 379.644 104.182 381.808 104.182C383.971 104.182 385.725 105.935 385.725 108.099Z" fill="white" stroke="#1C2E64"/>
<path d="M35.4306 20.4587C36.7164 19.1729 38.9271 18.7459 41.0784 20.3503C42.6821 22.5023 42.255 24.7125 40.9695 25.9979C39.6839 27.2834 37.4734 27.7104 35.3215 26.1073C33.7175 23.9554 34.1448 21.7445 35.4306 20.4587Z" fill="white" stroke="#1C2E64"/>
<path d="M45.2612 1.64713C46.5468 0.361502 48.7577 -0.0656044 50.9102 1.53846C52.5133 3.69034 52.086 5.90057 50.8005 7.18601C49.5149 8.47148 47.3046 8.89848 45.1532 7.29538C43.5487 5.14342 43.9756 2.93275 45.2612 1.64713Z" fill="white" stroke="#1C2E64"/>
<path d="M118.789 89.2266C120.952 89.2266 122.705 87.4726 122.705 85.3096C122.705 83.1468 120.952 81.3936 118.789 81.3926V89.2266ZM118.789 89.2266C116.626 89.2266 114.872 87.4724 114.872 85.3096M118.789 89.2266L114.872 85.3096M114.872 85.3096C114.872 83.1467 116.625 81.3927 118.789 81.3926L114.872 85.3096Z" fill="white" stroke="#1C2E64"/>
<path d="M111.628 103.466C111.628 105.629 109.875 107.383 107.712 107.383C105.549 107.383 103.795 105.629 103.795 103.466C103.795 101.302 105.548 99.5493 107.712 99.5493C109.875 99.5493 111.628 101.302 111.628 103.466Z" fill="white" stroke="#1C2E64"/>
<path d="M234.375 163.337C234.375 165.5 232.621 167.253 230.458 167.253C228.295 167.253 226.541 165.499 226.541 163.337C226.541 161.174 228.295 159.42 230.458 159.42C232.621 159.42 234.375 161.174 234.375 163.337Z" fill="white" stroke="#1C2E64"/>
</svg>
