<svg width="305" height="163" viewBox="0 0 305 163" fill="none" xmlns="http://www.w3.org/2000/svg">
<path d="M95.7754 86.87H121.959C124.799 86.87 127.431 85.383 128.897 82.951L149.273 49.13C150.739 46.698 153.371 45.211 156.21 45.211H234.615C237.54 45.211 240.237 43.634 241.672 41.085L263.673 2" stroke="#1C2E64" stroke-width="3" stroke-miterlimit="10" stroke-linecap="round"/>
<path d="M105.705 160.92H167.989C170.829 160.92 173.461 159.433 174.925 157.001L195.302 123.18C196.767 120.748 199.399 119.261 202.238 119.261H280.644C283.569 119.261 286.267 117.684 287.702 115.135L309.702 76.0498" stroke="#1C2E64" stroke-width="3" stroke-miterlimit="10"/>
<path d="M192.914 82.8931H178.991C176.152 82.8931 173.519 84.3801 172.054 86.8121L151.678 120.633C150.212 123.065 147.58 124.552 144.74 124.552H95.7748H32.7328L27.6758 118.43V109.72" stroke="#1C2E64" stroke-width="3" stroke-miterlimit="10" stroke-linecap="round"/>
<path d="M203.991 101.303H190.068C187.229 101.303 184.597 102.79 183.132 105.222L162.756 139.043C161.29 141.475 158.658 142.962 155.82 142.962H35.416C30.893 142.962 26.565 141.114 23.436 137.847L2 115.462" stroke="#1C2E64" stroke-width="3" stroke-miterlimit="10" stroke-linecap="round"/>
<path d="M159.102 67.942C160.567 65.51 163.2 64.023 166.038 64.023H244.444C247.369 64.023 250.067 62.446 251.502 59.897L273.502 20.811" stroke="#1C2E64" stroke-width="3" stroke-miterlimit="10"/>
<path d="M138.725 101.763C137.26 104.195 134.628 105.682 131.788 105.682H70.3371L62.2151 98.688H52.2871" stroke="#1C2E64" stroke-width="3" stroke-miterlimit="10" stroke-linecap="round"/>
<path d="M139.703 103.841C137.54 103.841 135.787 102.087 135.787 99.9238C135.787 97.7608 137.54 96.0068 139.703 96.0068C141.866 96.0068 143.62 97.761 143.62 99.9238C143.62 102.088 141.866 103.841 139.703 103.841Z" fill="white" stroke="#1C2E64"/>
<path d="M155.185 68.3911C155.185 70.554 156.939 72.3081 159.102 72.3081C161.265 72.3081 163.018 70.5542 163.018 68.3911C163.018 66.2282 161.264 64.4742 159.102 64.4741L155.185 68.3911ZM155.185 68.3911C155.185 66.2284 156.938 64.4751 159.102 64.4741L155.185 68.3911Z" fill="white" stroke="#1C2E64"/>
<path d="M192.914 86.8101C190.751 86.8101 188.997 85.0559 188.997 82.8931C188.997 80.7293 190.751 78.9761 192.914 78.9761C195.078 78.9761 196.83 80.73 196.83 82.8931C196.83 85.0571 195.078 86.8101 192.914 86.8101Z" fill="white" stroke="#1C2E64"/>
<path d="M203.991 104.966C201.828 104.966 200.074 103.212 200.074 101.049C200.074 98.886 201.828 97.1318 203.991 97.1318C206.154 97.1318 207.908 98.886 207.908 101.049C207.908 103.213 206.154 104.966 203.991 104.966Z" fill="white" stroke="#1C2E64"/>
</svg>
